<?xml version="1.0" encoding="UTF-8" standalone="no"?>
<!-- Created with Inkscape (http://www.inkscape.org/) -->

<svg
   xmlns:dc="http://purl.org/dc/elements/1.1/"
   xmlns:cc="http://creativecommons.org/ns#"
   xmlns:rdf="http://www.w3.org/1999/02/22-rdf-syntax-ns#"
   xmlns:svg="http://www.w3.org/2000/svg"
   xmlns="http://www.w3.org/2000/svg"
   xmlns:sodipodi="http://sodipodi.sourceforge.net/DTD/sodipodi-0.dtd"
   xmlns:inkscape="http://www.inkscape.org/namespaces/inkscape"
   width="50"
   height="50"
   viewBox="0 0 13.229166 13.229167"
   version="1.1"
   id="svg8"
   sodipodi:docname="deezer.svg"
   inkscape:version="0.92.3 (2405546, 2018-03-11)">
  <defs
     id="defs2" />
  <sodipodi:namedview
     id="base"
     pagecolor="#ffffff"
     bordercolor="#666666"
     borderopacity="1.0"
     inkscape:pageopacity="0.0"
     inkscape:pageshadow="2"
     inkscape:zoom="3.959798"
     inkscape:cx="34.177101"
     inkscape:cy="84.180334"
     inkscape:document-units="mm"
     inkscape:current-layer="layer1"
     showgrid="false"
     fit-margin-top="5"
     fit-margin-left="0"
     fit-margin-right="0"
     fit-margin-bottom="5"
     inkscape:window-width="2477"
     inkscape:window-height="1417"
     inkscape:window-x="75"
     inkscape:window-y="-8"
     inkscape:window-maximized="1"
     units="px" />
  <metadata
     id="metadata5">
    <rdf:RDF>
      <cc:Work
         rdf:about="">
        <dc:format>image/svg+xml</dc:format>
        <dc:type
           rdf:resource="http://purl.org/dc/dcmitype/StillImage" />
        <dc:title></dc:title>
      </cc:Work>
    </rdf:RDF>
  </metadata>
  <g
     inkscape:label="Ebene 1"
     inkscape:groupmode="layer"
     id="layer1"
     transform="translate(-61.50432,-243.48222)">
    <g
       id="g8556"
       transform="matrix(0.12531329,0,0,0.12531329,54.655277,221.68162)">
      <path
         inkscape:connector-curvature="0"
         id="path8519"
         d="m 54.655357,253.34375 v -3.04271 h 9.657292 9.65729 v 3.04271 3.04271 h -9.65729 -9.657292 z"
         style="fill:#000000;stroke-width:0.26458332" />
      <path
         inkscape:connector-curvature="0"
         id="path8517"
         d="m 76.351189,253.34375 v -3.04271 h 9.65729 9.65729 v 3.04271 3.04271 h -9.65729 -9.65729 z"
         style="fill:#000000;stroke-width:0.26458332" />
      <path
         inkscape:connector-curvature="0"
         id="path8515"
         d="m 97.782439,253.34375 v -3.04271 h 9.657291 9.65729 v 3.04271 3.04271 h -9.65729 -9.657291 z"
         style="fill:#000000;stroke-width:0.26458332" />
      <path
         inkscape:connector-curvature="0"
         id="path8513"
         d="m 119.47827,253.34375 v -3.04271 h 9.65729 9.65729 v 3.04271 3.04271 h -9.65729 -9.65729 z"
         style="fill:#000000;stroke-width:0.26458332" />
      <path
         inkscape:connector-curvature="0"
         id="path8511"
         d="m 140.90952,253.34375 v -3.04271 h 9.65729 9.65729 v 3.04271 3.04271 h -9.65729 -9.65729 z"
         style="fill:#000000;stroke-width:0.26458332" />
      <path
         inkscape:connector-curvature="0"
         id="path8509"
         d="m 54.655357,245.67083 v -3.04271 h 9.657292 9.65729 v 3.04271 3.04271 h -9.65729 -9.657292 z"
         style="fill:#000000;stroke-width:0.26458332" />
      <path
         inkscape:connector-curvature="0"
         id="path8507"
         d="m 76.351189,245.67083 v -3.04271 h 9.65729 9.65729 v 3.04271 3.04271 h -9.65729 -9.65729 z"
         style="fill:#000000;stroke-width:0.26458332" />
      <path
         inkscape:connector-curvature="0"
         id="path8505"
         d="m 97.782439,245.67083 v -3.04271 h 9.657291 9.65729 v 3.04271 3.04271 h -9.65729 -9.657291 z"
         style="fill:#000000;stroke-width:0.26458332" />
      <path
         inkscape:connector-curvature="0"
         id="path8503"
         d="m 119.47827,245.67083 v -3.04271 h 9.65729 9.65729 v 3.04271 3.04271 h -9.65729 -9.65729 z"
         style="fill:#000000;stroke-width:0.26458332" />
      <path
         inkscape:connector-curvature="0"
         id="path8501"
         d="m 140.90952,245.67083 v -3.04271 h 9.65729 9.65729 v 3.04271 3.04271 h -9.65729 -9.65729 z"
         style="fill:#000000;stroke-width:0.26458332" />
      <path
         inkscape:connector-curvature="0"
         id="path8499"
         d="m 54.655357,237.99791 v -3.0427 h 9.657292 9.65729 v 3.0427 3.04271 h -9.65729 -9.657292 z"
         style="fill:#000000;stroke-width:0.26458332" />
      <path
         inkscape:connector-curvature="0"
         id="path8497"
         d="m 76.351189,237.99791 v -3.0427 h 9.65729 9.65729 v 3.0427 3.04271 h -9.65729 -9.65729 z"
         style="fill:#000000;stroke-width:0.26458332" />
      <path
         inkscape:connector-curvature="0"
         id="path8495"
         d="m 97.782439,237.99791 v -3.0427 h 9.657291 9.65729 v 3.0427 3.04271 h -9.65729 -9.657291 z"
         style="fill:#000000;stroke-width:0.26458332" />
      <path
         inkscape:connector-curvature="0"
         id="path8493"
         d="m 119.47827,237.99791 v -3.0427 h 9.65729 9.65729 v 3.0427 3.04271 h -9.65729 -9.65729 z"
         style="fill:#000000;stroke-width:0.26458332" />
      <path
         inkscape:connector-curvature="0"
         id="path8491"
         d="m 140.90952,237.99791 v -3.0427 h 9.65729 9.65729 v 3.0427 3.04271 h -9.65729 -9.65729 z"
         style="fill:#000000;stroke-width:0.26458332" />
      <path
         inkscape:connector-curvature="0"
         id="path8489"
         d="m 54.655357,230.58958 v -3.04271 h 9.657292 9.65729 v 3.04271 3.04271 h -9.65729 -9.657292 z"
         style="fill:#000000;stroke-width:0.26458332" />
      <path
         inkscape:connector-curvature="0"
         id="path8487"
         d="m 97.782439,230.58958 v -3.04271 h 9.657291 9.65729 v 3.04271 3.04271 h -9.65729 -9.657291 z"
         style="fill:#000000;stroke-width:0.26458332" />
      <path
         inkscape:connector-curvature="0"
         id="path8485"
         d="m 119.47827,230.58958 v -3.04271 h 9.65729 9.65729 v 3.04271 3.04271 h -9.65729 -9.65729 z"
         style="fill:#000000;stroke-width:0.26458332" />
      <path
         inkscape:connector-curvature="0"
         id="path8483"
         d="m 140.90952,230.58958 v -3.04271 h 9.65729 9.65729 v 3.04271 3.04271 h -9.65729 -9.65729 z"
         style="fill:#000000;stroke-width:0.26458332" />
      <path
         inkscape:connector-curvature="0"
         id="path8481"
         d="m 54.655357,222.91667 v -3.04271 h 9.657292 9.65729 v 3.04271 3.0427 h -9.65729 -9.657292 z"
         style="fill:#000000;stroke-width:0.26458332" />
      <path
         inkscape:connector-curvature="0"
         id="path8479"
         d="m 97.782439,222.91667 v -3.04271 h 9.657291 9.65729 v 3.04271 3.0427 h -9.65729 -9.657291 z"
         style="fill:#000000;stroke-width:0.26458332" />
      <path
         inkscape:connector-curvature="0"
         id="path8477"
         d="m 119.47827,222.91667 v -3.04271 h 9.65729 9.65729 v 3.04271 3.0427 h -9.65729 -9.65729 z"
         style="fill:#000000;stroke-width:0.26458332" />
      <path
         inkscape:connector-curvature="0"
         id="path8475"
         d="m 140.90952,222.91667 v -3.04271 h 9.65729 9.65729 v 3.04271 3.0427 h -9.65729 -9.65729 z"
         style="fill:#000000;stroke-width:0.26458332" />
      <path
         inkscape:connector-curvature="0"
         id="path8473"
         d="m 97.782439,215.24375 v -3.04271 h 9.657291 9.65729 v 3.04271 3.04271 h -9.65729 -9.657291 z"
         style="fill:#000000;stroke-width:0.26458332" />
      <path
         inkscape:connector-curvature="0"
         id="path8471"
         d="m 140.90952,215.24375 v -3.04271 h 9.65729 9.65729 v 3.04271 3.04271 h -9.65729 -9.65729 z"
         style="fill:#000000;stroke-width:0.26458332" />
      <path
         inkscape:connector-curvature="0"
         id="path8469"
         d="m 97.782439,207.83542 v -3.04271 h 9.657291 9.65729 v 3.04271 3.0427 h -9.65729 -9.657291 z"
         style="fill:#000000;stroke-width:0.26458332" />
      <path
         inkscape:connector-curvature="0"
         id="path8467"
         d="m 140.90952,207.83542 v -3.04271 h 9.65729 9.65729 v 3.04271 3.0427 h -9.65729 -9.65729 z"
         style="fill:#000000;stroke-width:0.26458332" />
      <path
         inkscape:connector-curvature="0"
         id="path8463"
         d="m 140.90952,200.1625 v -3.04271 h 9.65729 9.65729 v 3.04271 3.04271 h -9.65729 -9.65729 z"
         style="fill:#000000;stroke-width:0.26458332" />
    </g>
  </g>
</svg>
