<?xml version="1.0" encoding="UTF-8" standalone="no"?>
<!-- Created with Inkscape (http://www.inkscape.org/) -->

<svg
   xmlns:dc="http://purl.org/dc/elements/1.1/"
   xmlns:cc="http://creativecommons.org/ns#"
   xmlns:rdf="http://www.w3.org/1999/02/22-rdf-syntax-ns#"
   xmlns:svg="http://www.w3.org/2000/svg"
   xmlns="http://www.w3.org/2000/svg"
   xmlns:sodipodi="http://sodipodi.sourceforge.net/DTD/sodipodi-0.dtd"
   xmlns:inkscape="http://www.inkscape.org/namespaces/inkscape"
   width="31.166519mm"
   height="13.229167mm"
   viewBox="0 0 31.166519 13.229168"
   version="1.1"
   id="svg13768"
   inkscape:version="0.92.3 (2405546, 2018-03-11)"
   sodipodi:docname="logo_cold_skin_studios.svg">
  <defs
     id="defs13762" />
  <sodipodi:namedview
     id="base"
     pagecolor="#ffffff"
     bordercolor="#666666"
     borderopacity="1.0"
     inkscape:pageopacity="0.0"
     inkscape:pageshadow="2"
     inkscape:zoom="5.6"
     inkscape:cx="-18.986346"
     inkscape:cy="90.305547"
     inkscape:document-units="mm"
     inkscape:current-layer="layer1"
     showgrid="false"
     fit-margin-top="0"
     fit-margin-left="0"
     fit-margin-right="0"
     fit-margin-bottom="0"
     inkscape:measure-start="810.357,485"
     inkscape:measure-end="843.214,383.929"
     inkscape:window-width="2477"
     inkscape:window-height="1417"
     inkscape:window-x="75"
     inkscape:window-y="-8"
     inkscape:window-maximized="1" />
  <metadata
     id="metadata13765">
    <rdf:RDF>
      <cc:Work
         rdf:about="">
        <dc:format>image/svg+xml</dc:format>
        <dc:type
           rdf:resource="http://purl.org/dc/dcmitype/StillImage" />
        <dc:title></dc:title>
      </cc:Work>
    </rdf:RDF>
  </metadata>
  <g
     inkscape:label="Ebene 1"
     inkscape:groupmode="layer"
     id="layer1"
     transform="translate(192.06823,14.418617)">
    <path
       d="m -192.06823,-14.418617 v 6.6145057 6.6146609 h 15.58333 15.58319 v -6.6146609 -6.6145057 h -15.58319 z m 0.40068,0.400688 h 15.18265 15.18244 v 6.2138177 6.2139734 h -15.18244 -15.18265 v -6.2139734 z m 18.18947,2.359243 c -0.1856,-0.0036 -0.37034,0.0602 -0.49967,0.190353 -0.1479,0.148833 -0.20335,0.314275 -0.20309,0.606881 2.3e-4,0.413633 0.11857,0.608772 0.44863,0.739719 0.29569,0.117316 0.45402,0.2088796 0.4802,0.2777379 0.014,0.036909 0.0254,0.1587702 0.0254,0.2708008 -1.6e-4,0.3217912 -0.10758,0.4378908 -0.36109,0.390334 -0.11679,-0.021912 -0.1951,-0.1420202 -0.19537,-0.2992733 v -0.1126481 h -0.21204 -0.21205 v 0.1692309 c 0,0.2876548 0.17823,0.5464338 0.44076,0.6400134 0.0565,0.02011 0.18013,0.0366 0.27484,0.0366 0.30409,0 0.47944,-0.099683 0.60212,-0.3422412 0.0661,-0.1307579 0.0747,-0.178693 0.0829,-0.4647772 0.006,-0.1936349 -0.003,-0.365466 -0.0225,-0.4373398 -0.0492,-0.1839554 -0.2001,-0.3101584 -0.51722,-0.4325764 -0.17185,-0.06634 -0.29117,-0.130297 -0.34027,-0.182381 -0.0715,-0.07585 -0.0751,-0.09083 -0.0657,-0.275459 0.009,-0.17036 0.019,-0.204434 0.0822,-0.267591 0.10014,-0.100139 0.25591,-0.100933 0.35503,-0.0018 0.0549,0.05491 0.0733,0.103511 0.0829,0.219084 l 0.0123,0.148523 0.21531,-0.0077 0.2153,-0.0076 -0.008,-0.185538 c -0.01,-0.228028 -0.0762,-0.376812 -0.22504,-0.504173 -0.12761,-0.10923 -0.29206,-0.164983 -0.45582,-0.168196 z m -15.34241,7.25e-4 c -0.0254,1.2e-5 -0.0512,0.0012 -0.0777,0.0036 -0.27167,0.0244 -0.4813,0.178886 -0.56226,0.414354 -0.0331,0.0962 -0.0404,0.28168 -0.0404,1.028587 0,0.5830919 0.0107,0.9535823 0.0296,1.0287949 0.0393,0.1558738 0.20366,0.3407927 0.34856,0.392094 0.16177,0.057275 0.4324,0.05386 0.56687,-0.0072 0.22997,-0.1044222 0.36469,-0.3151275 0.39582,-0.6189434 l 0.0183,-0.1780835 h -0.22897 -0.22897 v 0.1345462 c 0,0.1133905 -0.0122,0.1467582 -0.0774,0.2120435 -0.10204,0.1020425 -0.23132,0.1056968 -0.3221,0.00911 l -0.0643,-0.068386 -0.008,-0.8443947 c -0.006,-0.701097 -9.8e-4,-0.860484 0.0318,-0.939028 0.0496,-0.118639 0.14574,-0.160906 0.27142,-0.119429 0.10814,0.03569 0.14849,0.102535 0.16726,0.277012 l 0.0142,0.132528 h 0.21204 0.21205 l -0.006,-0.184451 c -0.0139,-0.411489 -0.27175,-0.67292 -0.65203,-0.672731 z m 6.0786,0.02226 v 1.236023 c 0,0.8807522 0.009,1.2664221 0.0316,1.3416315 0.0383,0.1276516 0.15368,0.2490213 0.26832,0.2821897 0.0464,0.013434 0.14103,0.025502 0.21028,0.026816 l 0.1259,0.00243 V -8.943331 c 0,-0.1948779 -6.8e-4,-0.1968302 -0.0758,-0.2133378 -0.0451,-0.00991 -0.0881,-0.043498 -0.10602,-0.082881 -0.0211,-0.046288 -0.0302,-0.4167358 -0.0302,-1.2312092 v -1.164945 h -0.21205 z m 3.4192,0 v 0.493094 0.493095 l -0.0922,-0.08097 c -0.10269,-0.09016 -0.22947,-0.123709 -0.38759,-0.102501 -0.14744,0.01978 -0.23231,0.08371 -0.29285,0.220585 -0.0484,0.109391 -0.0515,0.169566 -0.0439,0.8525743 0.009,0.8157469 0.0171,0.8568179 0.18833,0.9612366 0.056,0.034132 0.13282,0.051819 0.22576,0.051872 0.15478,1.089e-4 0.21985,-0.025073 0.32956,-0.1274022 l 0.0729,-0.067972 v 0.084486 0.084486 h 0.21205 0.21204 v -1.4312937 -1.431294 h -0.21204 z m 8.61427,0 v 1.431294 1.431294 h 0.21205 0.21204 v -0.2779448 c 0,-0.2641161 0.004,-0.284506 0.0818,-0.4108343 0.045,-0.073109 0.09,-0.1328896 0.10002,-0.1328896 0.01,0 0.0944,0.1848755 0.18761,0.4108344 l 0.16938,0.4108343 h 0.23421 c 0.12881,0 0.2342,-0.00435 0.2342,-0.00963 0,-0.00528 -0.12706,-0.2706688 -0.28235,-0.5897461 -0.15529,-0.3190775 -0.28229,-0.5920446 -0.28203,-0.6066226 1.5e-4,-0.014578 0.0977,-0.1905013 0.21685,-0.3909033 0.11913,-0.200403 0.22369,-0.382817 0.23234,-0.405347 0.0135,-0.03526 -0.0145,-0.03986 -0.20169,-0.03318 l -0.21737,0.0078 -0.22986,0.414613 -0.22985,0.4146653 -0.007,-0.8321263 -0.007,-0.832074 h -0.21168 z m 3.3927,0 v 0.212044 0.212043 h 0.21204 0.21205 v -0.212043 -0.212044 h -0.21205 z m -18.1304,0.794853 c -0.15281,-0.003 -0.30675,0.04383 -0.42372,0.149507 -0.17724,0.160119 -0.19848,0.257792 -0.19848,0.9128848 v 0.5717306 l 0.0797,0.1558748 c 0.0671,0.1311148 0.1023,0.1676716 0.22173,0.2300591 0.17556,0.091718 0.43019,0.1018434 0.60165,0.023969 0.1294,-0.058774 0.25768,-0.2068561 0.29917,-0.3453473 0.0423,-0.1410811 0.0404,-1.167818 -0.002,-1.310984 -0.0716,-0.239509 -0.32306,-0.382746 -0.57774,-0.387694 z m 21.51637,0.0037 c -0.10254,0.0023 -0.19405,0.03807 -0.27215,0.106643 l -0.0922,0.08097 v -0.08226 -0.08226 h -0.21204 -0.21205 v 1.0204595 1.0204595 h 0.2106 0.21054 l 0.008,-0.7677778 c 0.009,-0.8312172 0.008,-0.8260452 0.15675,-0.8625142 0.0516,-0.01262 0.0887,-1.94e-4 0.14578,0.04892 l 0.0766,0.0659 v 0.7576824 0.757683 l 0.22032,5.17e-5 0.22028,5.19e-5 -0.008,-0.8813059 c -0.008,-0.8734871 -0.009,-0.8822441 -0.0709,-0.9820991 -0.075,-0.120591 -0.14234,-0.167496 -0.27536,-0.191802 -0.0365,-0.0067 -0.0719,-0.0096 -0.10612,-0.0088 z m -3.38597,0.02309 v 1.0204595 1.0204595 h 0.21204 0.21205 v -1.0204595 -1.0204595 h -0.21205 z m -18.1289,0.408556 c 0.0496,5.71e-4 0.0981,0.02503 0.13833,0.07258 0.0405,0.04788 0.0464,0.116666 0.0464,0.543465 0,0.4834402 -6.5e-4,0.4892944 -0.065,0.5536634 -0.0806,0.080589 -0.18088,0.083384 -0.25201,0.00704 -0.0505,-0.05421 -0.054,-0.091407 -0.054,-0.5679515 v -0.5099189 l 0.0717,-0.05643 c 0.0367,-0.02888 0.076,-0.04289 0.11461,-0.04245 z m 5.89539,0.008 c 0.056,-0.002 0.11564,0.01735 0.15515,0.05684 0.0533,0.05331 0.0589,0.08905 0.0674,0.4311799 0.0113,0.4571576 -0.007,0.5928647 -0.0897,0.6758371 -0.0761,0.076136 -0.14465,0.079811 -0.22809,0.012269 -0.0619,-0.050107 -0.0626,-0.056218 -0.0626,-0.5688834 0,-0.4526866 0.006,-0.5239556 0.0452,-0.5633956 0.0279,-0.02788 0.0691,-0.0423 0.11264,-0.04385 z m -4.60785,3.5378034 c -0.20276,-0.00183 -0.40104,0.073911 -0.51862,0.2362194 -0.13778,0.1902084 -0.1675,0.3074963 -0.1551,0.6121101 0.0178,0.4368971 0.0998,0.5456007 0.55398,0.7344388 0.13719,0.057037 0.28222,0.1332341 0.32231,0.1693348 0.0687,0.061874 0.0729,0.078588 0.0729,0.2922328 0,0.2705676 -0.0246,0.3465854 -0.13005,0.4011018 -0.22225,0.1149303 -0.42657,-0.016932 -0.42657,-0.2753046 v -0.10773 h -0.21204 -0.21204 v 0.1692309 c 0,0.2870592 0.17594,0.5431278 0.44075,0.6415663 0.0679,0.025257 0.17597,0.035189 0.31962,0.029353 0.2916,-0.011851 0.43542,-0.095852 0.55097,-0.3217925 0.0714,-0.1395329 0.0807,-0.1861345 0.0897,-0.448056 0.0196,-0.5727243 -0.0638,-0.7125455 -0.53958,-0.9043946 -0.38233,-0.1541795 -0.41949,-0.1957011 -0.40643,-0.45432 0.008,-0.1569679 0.0211,-0.2047105 0.0714,-0.2582727 0.17828,-0.1897737 0.45427,-0.044176 0.45427,0.2396362 v 0.116427 l 0.21867,-0.00771 0.21867,-0.00766 -0.009,-0.1855381 c -0.005,-0.1145008 -0.0291,-0.2286611 -0.062,-0.2981345 -0.11332,-0.239785 -0.38139,-0.3703836 -0.64208,-0.3727328 z m 9.68489,0.021484 v 0.491593 0.4915932 l -0.1067,-0.08578 c -0.0864,-0.06946 -0.13553,-0.087609 -0.25842,-0.095616 -0.19866,-0.012943 -0.31549,0.047915 -0.39795,0.2073325 -0.0596,0.115235 -0.0605,0.1305109 -0.053,0.8595116 0.009,0.8239243 0.0163,0.8638511 0.18787,0.968484 0.056,0.034131 0.13281,0.051872 0.22576,0.051872 0.15478,1.087e-4 0.21984,-0.025073 0.32956,-0.1274021 l 0.0729,-0.067972 v 0.084486 0.084486 h 0.21204 0.21205 v -1.4312939 -1.4312939 h -0.21205 z m 2.54452,0 v 0.2120435 0.2120436 h 0.21204 0.21205 v -0.2120436 -0.2120435 h -0.21205 z m -9.40943,0.2120435 v 0.3048126 0.3048126 h -0.10602 -0.10602 v 0.1722854 0.1722854 h 0.10602 0.10602 l 6.2e-4,0.6692624 c 5.2e-4,0.5953096 0.006,0.6812336 0.0499,0.7778724 0.0454,0.100013 0.1431,0.1932589 0.24103,0.2300591 0.0219,0.00822 0.12027,0.015892 0.21867,0.017032 l 0.17891,0.00212 V -4.17442 -4.3732108 h -0.0913 c -0.16431,0 -0.17378,-0.03863 -0.17378,-0.708296 v -0.5904707 h 0.13252 0.13253 v -0.1722854 -0.1722854 h -0.13253 -0.13252 v -0.3048126 -0.3048126 h -0.21205 z m 12.57683,0.5833785 c -0.16346,0 -0.28481,0.043787 -0.40384,0.1456765 -0.18318,0.1567903 -0.20532,0.2535495 -0.20532,0.9010298 -6e-5,0.399323 0.01,0.5852953 0.0357,0.6582356 0.0481,0.1366302 0.17867,0.2804323 0.30823,0.3392903 0.0679,0.030839 0.16844,0.048248 0.27851,0.048248 0.2088,2e-7 0.35151,-0.058598 0.46929,-0.1927338 0.0464,-0.052913 0.097,-0.1412383 0.11228,-0.196306 0.0154,-0.055645 0.0277,-0.3532576 0.0277,-0.6699871 -1.1e-4,-0.5446312 -0.003,-0.5758782 -0.0633,-0.7055004 -0.0992,-0.2130613 -0.29507,-0.3279531 -0.5592,-0.3279531 z m -9.92629,0.026247 v 0.8596667 c 0,0.5429772 0.0104,0.8871902 0.0282,0.9343168 0.0335,0.088618 0.14925,0.2170205 0.22359,0.2479709 0.0292,0.012139 0.11472,0.02283 0.19014,0.023762 0.11722,0.00144 0.15473,-0.011752 0.25843,-0.090905 l 0.12129,-0.092614 v 0.079361 0.079361 h 0.21205 0.21204 v -1.0204595 -1.0204596 h -0.20987 -0.20987 l -0.01,0.7487788 c -0.006,0.4118283 -0.0191,0.7679732 -0.0301,0.7914358 -0.0344,0.073327 -0.14259,0.1158563 -0.22281,0.087644 -0.13018,-0.04578 -0.13816,-0.097304 -0.13859,-0.8923325 l -4.1e-4,-0.735526 h -0.21204 z m 6.75884,0 v 1.0270859 h -1e-4 v 1.0270859 l 0.21209,-0.00865 0.2121,-0.00865 v -1.0184404 -1.0184406 h -0.21205 z m -2.7516,0.4006876 c 0.0369,0.0021 0.0747,0.022256 0.11954,0.060828 l 0.0743,0.063934 v 0.4774084 c 0,0.4434681 -0.004,0.4827648 -0.0556,0.5523177 -0.0363,0.048818 -0.0845,0.077755 -0.13859,0.08314 -0.0694,0.00692 -0.0918,-0.00601 -0.13734,-0.079516 -0.0505,-0.081512 -0.0539,-0.1224854 -0.047,-0.5739049 0.007,-0.4746727 0.009,-0.4873105 0.07,-0.5367352 0.0416,-0.033649 0.0777,-0.049574 0.11461,-0.047472 z m 5.92661,0.00595 c 0.0504,-0.00184 0.10145,0.023207 0.14485,0.074495 0.0405,0.04784 0.0464,0.1164058 0.0464,0.5386508 0,0.4493547 -0.004,0.4888046 -0.0549,0.5536634 -0.0697,0.088605 -0.17982,0.092275 -0.25848,0.00854 -0.0549,-0.058476 -0.0577,-0.084597 -0.0577,-0.5578566 v -0.4964594 l 0.0676,-0.06761 c 0.0343,-0.034314 0.073,-0.051994 0.11223,-0.053425 z"
       id="path18302"
       inkscape:connector-curvature="0" />
  </g>
</svg>
