<?xml version="1.0" encoding="UTF-8" standalone="no"?>
<!-- Created with Inkscape (http://www.inkscape.org/) -->

<svg
   xmlns:dc="http://purl.org/dc/elements/1.1/"
   xmlns:cc="http://creativecommons.org/ns#"
   xmlns:rdf="http://www.w3.org/1999/02/22-rdf-syntax-ns#"
   xmlns:svg="http://www.w3.org/2000/svg"
   xmlns="http://www.w3.org/2000/svg"
   xmlns:sodipodi="http://sodipodi.sourceforge.net/DTD/sodipodi-0.dtd"
   xmlns:inkscape="http://www.inkscape.org/namespaces/inkscape"
   width="149.22501mm"
   height="149.22501mm"
   viewBox="0 0 149.22501 149.22501"
   version="1.1"
   id="svg8"
   inkscape:version="0.92.3 (2405546, 2018-03-11)"
   sodipodi:docname="logo_rama.svg">
  <defs
     id="defs2" />
  <sodipodi:namedview
     id="base"
     pagecolor="#ffffff"
     bordercolor="#666666"
     borderopacity="1.0"
     inkscape:pageopacity="0.0"
     inkscape:pageshadow="2"
     inkscape:zoom="0.98994949"
     inkscape:cx="396.69868"
     inkscape:cy="246.24769"
     inkscape:document-units="mm"
     inkscape:current-layer="layer1"
     showgrid="false"
     fit-margin-top="0"
     fit-margin-left="0"
     fit-margin-right="0"
     fit-margin-bottom="0"
     inkscape:window-width="2477"
     inkscape:window-height="1417"
     inkscape:window-x="75"
     inkscape:window-y="-8"
     inkscape:window-maximized="1" />
  <metadata
     id="metadata5">
    <rdf:RDF>
      <cc:Work
         rdf:about="">
        <dc:format>image/svg+xml</dc:format>
        <dc:type
           rdf:resource="http://purl.org/dc/dcmitype/StillImage" />
        <dc:title></dc:title>
      </cc:Work>
    </rdf:RDF>
  </metadata>
  <g
     inkscape:label="Ebene 1"
     inkscape:groupmode="layer"
     id="layer1"
     transform="translate(254.1512,-36.42321)">
    <path
       style="fill:#000000;stroke-width:0.26458335"
       d="m -254.1512,111.03571 v -74.6125 h 74.6125 74.61251 v 74.6125 74.61251 h -74.61251 -74.6125 z m 29.25252,64.96447 c 1.12562,-0.4688 2.6364,-2.3196 3.02427,-3.70492 0.1816,-0.64861 0.28243,-2.0923 0.22873,-3.27484 -0.0834,-1.83554 -0.20121,-2.26619 -0.89234,-3.26072 -1.11766,-1.60829 -2.66188,-2.33648 -4.95482,-2.33648 -2.05701,0 -3.17522,0.38835 -4.27379,1.48431 -1.26038,1.25736 -1.83764,2.87303 -1.84131,5.15353 -0.004,2.38839 0.72747,4.13805 2.22621,5.32616 1.54729,1.22659 4.36907,1.49338 6.48305,0.61296 z m -4.90426,-1.41027 c -2.75073,-1.51624 -2.89786,-7.17762 -0.23586,-9.0762 1.20211,-0.85737 3.78908,-0.90515 4.90622,-0.0906 2.4628,1.79567 2.59745,6.66791 0.2442,8.83606 -0.97216,0.89569 -3.57223,1.07068 -4.91456,0.33077 z m 30.0811,1.49715 c 1.40829,-0.43635 2.19148,-1.61114 2.19148,-3.28726 0,-2.17843 -0.73662,-2.84199 -4.10104,-3.69428 -3.33769,-0.84551 -4.01972,-1.4995 -3.27297,-3.13843 0.66189,-1.45271 3.76548,-1.64594 4.91788,-0.30619 0.33222,0.38623 0.60404,0.8742 0.60404,1.08436 0,0.25159 0.28245,0.38212 0.82683,0.38212 0.78916,0 0.8191,-0.0386 0.65738,-0.84717 -0.35702,-1.78513 -2.07862,-2.85762 -4.58456,-2.856 -2.62016,0.002 -4.14516,1.3737 -4.14516,3.72932 0,1.82287 0.65308,2.43073 3.36821,3.13501 2.89528,0.751 3.84108,1.20703 4.14135,1.99681 0.59376,1.56172 -0.76104,2.84078 -3.04395,2.87378 -1.72254,0.0249 -2.75722,-0.61121 -3.20618,-1.97111 -0.22411,-0.67882 -0.46899,-0.92193 -0.99219,-0.98498 -0.60538,-0.073 -0.69452,0.012 -0.69365,0.66146 0.001,0.93295 0.81447,2.29363 1.72894,2.89282 1.32047,0.8652 3.46765,0.99155 5.60359,0.32974 z m 52.70314,0.28112 c 0.72886,-0.15631 1.62046,-0.51646 1.98134,-0.80033 0.58676,-0.46155 0.62592,-0.60281 0.37031,-1.33604 -0.23667,-0.67891 -0.32718,-0.74604 -0.52626,-0.3903 -0.72735,1.29971 -3.96737,1.66625 -5.53282,0.62593 -1.41274,-0.93885 -2.1412,-2.61933 -2.03484,-4.69422 0.0549,-1.07167 0.29439,-2.11864 0.63538,-2.77813 0.61382,-1.18713 2.19269,-2.23781 3.37302,-2.2446 0.5797,-0.003 0.71847,-0.10192 0.59531,-0.42287 -0.0883,-0.23018 -0.1606,-0.52784 -0.1606,-0.66146 0,-0.43416 -1.84657,-0.25651 -2.89536,0.27855 -1.26714,0.64644 -2.48966,2.09697 -2.88805,3.42669 -0.16611,0.5544 -0.29939,1.82763 -0.2962,2.82939 0.011,3.45182 1.57796,5.61587 4.49211,6.20388 1.35989,0.2744 1.44184,0.27337 2.88666,-0.0365 z m -29.34746,-0.47127 c 0.53982,-0.28951 1.16225,-0.95784 1.51723,-1.62912 0.56113,-1.06112 0.6019,-1.45799 0.6019,-5.8591 v -4.72089 h -0.77739 -0.77738 l -0.0825,4.88943 c -0.0823,4.87977 -0.0839,4.8908 -0.77897,5.58524 -0.84618,0.84538 -2.71879,1.14108 -3.96289,0.62576 -1.48362,-0.61454 -1.81042,-1.83764 -1.81713,-6.80095 l -0.006,-4.29948 h -0.81899 -0.81898 l 0.0914,4.82865 c 0.10205,5.3926 0.29873,6.08617 2.06304,7.27514 1.17167,0.78959 4.18432,0.84659 5.5665,0.10532 z m -62.17462,-5.32994 v -5.55625 h 2.11666 c 2.08139,0 2.11667,-0.011 2.11667,-0.66146 v -0.66146 h -5.15937 -5.15938 v 0.65076 c 0,0.63249 0.0613,0.65291 2.18281,0.7276 l 2.18282,0.0769 0.0715,5.4901 0.0715,5.49011 h 0.78839 0.78838 z m 20.6375,0.66146 c 0,-2.69214 0.0893,-4.89301 0.19844,-4.89081 0.10914,0.002 1.56632,2.20484 3.23818,4.89479 l 3.03975,4.89081 h 0.99515 0.99515 v -6.21771 -6.21771 h -0.78804 -0.78804 l -0.0719,5.0322 -0.0719,5.0322 -3.06726,-4.96606 c -3.01045,-4.87407 -3.08518,-4.96757 -4.0349,-5.04817 l -0.96763,-0.0821 v 6.23368 6.23368 h 0.66146 0.66146 z m 27.78125,-0.66146 v -5.55625 h 2.11667 c 2.08139,0 2.11666,-0.011 2.11666,-0.66146 v -0.66146 h -5.02708 -5.02708 v 0.66146 c 0,0.65043 0.0353,0.66146 2.11666,0.66146 h 2.11667 v 5.55625 5.55625 h 0.79375 0.79375 z m 26.30564,4.92073 c 1.61696,-0.9476 2.34493,-2.43651 2.48367,-5.07979 0.17433,-3.3214 -0.64645,-5.18336 -2.72941,-6.1917 -0.9001,-0.43573 -1.63378,-0.52841 -4.18302,-0.52841 h -3.09146 v 6.21771 6.21771 h 3.2179 c 2.92002,0 3.31828,-0.0588 4.30232,-0.63552 z m -5.93272,-5.55587 v -4.92111 h 2.07754 c 3.312,0 4.53278,1.14112 4.75346,4.44326 0.12946,1.93719 -0.39083,3.59771 -1.43467,4.57885 -0.58876,0.5534 -0.97965,0.64709 -3.03605,0.72765 l -2.36028,0.0925 z m 12.96458,-0.0263 v -6.21771 h -0.79375 -0.79375 v 6.21771 6.21771 h 0.79375 0.79375 z m -71.59344,-8.73125 c -0.1595,-0.63553 -0.11709,-0.66146 1.08198,-0.66146 1.19907,0 1.24148,0.0259 1.08198,0.66146 l -0.16602,0.66146 h 2.88677 c 2.85857,0 2.8884,-0.006 3.05279,-0.66146 l 0.16602,-0.66146 h 6.35151 6.35151 l 0.25148,0.66146 c 0.247,0.64965 0.30292,0.66146 3.13177,0.66146 h 2.88027 l -0.12931,-0.67646 c -0.12716,-0.6652 -0.10564,-0.6751 1.29346,-0.59531 1.2447,0.071 1.43335,0.15565 1.50732,0.67645 0.0812,0.57172 0.18868,0.59532 2.71198,0.59532 2.6262,0 2.62743,-2.7e-4 2.62743,-0.66146 v -0.66146 h 2.91697 c 2.86797,0 2.92118,0.0111 3.16845,0.66146 0.2423,0.63729 0.33766,0.66146 2.6106,0.66146 2.3038,0 2.36306,-0.0157 2.52729,-0.67006 l 0.16817,-0.67006 2.96937,0.0748 c 2.85179,0.0718 2.97271,0.0983 3.05391,0.67005 0.0812,0.57172 0.18867,0.59532 2.71198,0.59532 2.6262,0 2.62743,-2.7e-4 2.62743,-0.66146 0,-0.62566 0.079,-0.66146 1.46025,-0.66146 1.42548,0 1.45629,0.0157 1.29423,0.66146 l -0.16601,0.66146 h 2.81335 c 2.75747,0 2.81836,-0.0131 3.06485,-0.66146 l 0.25148,-0.66146 h 6.35151 6.35151 l 0.16602,0.66146 0.16601,0.66146 h 17.43382 17.43382 v -12.43542 -12.43542 h -65.35209 -65.35209 v 1.69553 1.69552 l 3.90261,0.0904 c 2.45023,0.0568 4.09953,0.21052 4.43177,0.4131 0.43004,0.26222 -0.30098,0.32416 -3.90261,0.3307 -4.2527,0.008 -4.43177,0.0294 -4.43177,0.53721 0,0.5105 0.17639,0.52917 4.99878,0.52917 5.16181,0 5.31997,0.0321 5.31997,1.07997 0,0.13923 -2.20255,0.24295 -5.15937,0.24295 -4.98299,0 -5.15938,0.0181 -5.15938,0.52916 0,0.51108 0.17639,0.52917 5.15938,0.52917 4.98298,0 5.15937,0.0181 5.15937,0.52917 0,0.51107 -0.17639,0.52916 -5.15937,0.52916 -4.98299,0 -5.15938,0.0181 -5.15938,0.52917 0,0.5091 0.17639,0.52917 4.65226,0.52917 3.58511,0 4.62716,0.0753 4.54285,0.3282 -0.20526,0.6158 -2.18013,0.95402 -5.68938,0.97438 l -3.50573,0.0203 v 1.98438 1.98437 l 3.63802,0.0186 c 2.00091,0.0102 3.87615,0.12092 4.16719,0.24599 0.3269,0.14047 -1.06366,0.2345 -3.63802,0.24598 -3.9846,0.0178 -4.16719,0.0418 -4.16719,0.54777 0,0.50939 0.17639,0.52916 4.72003,0.52916 h 4.72003 l 0.30138,0.66146 0.30138,0.66146 h -5.02141 c -4.84502,0 -5.02141,0.0186 -5.02141,0.52917 0,0.51107 0.17639,0.52916 5.15938,0.52916 h 5.15937 v 0.66146 0.66146 h -5.15937 c -4.98299,0 -5.15938,0.0181 -5.15938,0.52917 0,0.51152 0.17639,0.52916 5.29167,0.52916 5.11528,0 5.29166,0.0177 5.29166,0.52917 0,0.51153 -0.17638,0.52917 -5.29166,0.52917 -5.09683,0 -5.29167,0.0193 -5.29167,0.52368 0,0.50227 0.2192,0.52662 5.35781,0.59532 5.33015,0.0712 5.35825,0.0747 5.44236,0.66693 0.0815,0.57399 0.18359,0.59532 2.84932,0.59532 h 2.76476 z m -0.37323,-2.24896 c 0,-0.47902 0.17639,-0.52917 1.86139,-0.52917 1.77941,0 1.84892,0.0233 1.5782,0.52917 -0.23461,0.43837 -0.55399,0.52917 -1.8614,0.52917 -1.4018,0 -1.57819,-0.0592 -1.57819,-0.52917 z m 9.04605,0.0661 c 0.081,-0.42128 0.60457,-0.46944 5.80804,-0.53424 5.54491,-0.0691 5.7233,-0.0549 5.85875,0.46302 0.13709,0.52423 0.0283,0.53424 -5.80805,0.53424 -5.52205,0 -5.94138,-0.0332 -5.85874,-0.46302 z m 17.33562,-0.0661 c -0.12918,-0.49399 -0.008,-0.52917 1.82123,-0.52917 1.78321,0 1.9596,0.0476 1.9596,0.52917 0,0.47792 -0.17639,0.52917 -1.82122,0.52917 -1.59871,0 -1.83813,-0.0647 -1.95961,-0.52917 z m 9.0725,0 c 0,-0.49347 0.17639,-0.52917 2.61498,-0.52917 2.39245,0 2.62675,0.045 2.75335,0.52917 0.13183,0.50413 0.008,0.52917 -2.61497,0.52917 -2.57697,0 -2.75336,-0.0339 -2.75336,-0.52917 z m 11.9561,0.0661 c 0.0764,-0.39898 0.46333,-0.47346 2.79753,-0.53843 2.57271,-0.0716 2.70887,-0.0483 2.70887,0.46302 0,0.50756 -0.16036,0.53843 -2.79752,0.53843 -2.5217,0 -2.78879,-0.0457 -2.70888,-0.46302 z m 10.79807,-0.0661 c 0,-0.47953 0.17639,-0.52917 1.88039,-0.52917 1.60597,0 1.85695,0.0611 1.71979,0.41852 -0.0883,0.23018 -0.1606,0.46831 -0.1606,0.52916 0,0.0609 -0.7739,0.11066 -1.71979,0.11066 -1.5434,0 -1.71979,-0.0543 -1.71979,-0.52917 z m 9.18508,-0.005 c 0.13545,-0.51797 0.31384,-0.53207 5.85874,-0.46302 5.20348,0.0648 5.72707,0.11295 5.80805,0.53423 0.0826,0.42988 -0.33669,0.46303 -5.85874,0.46303 -5.83631,0 -5.94514,-0.01 -5.80805,-0.53424 z m -67.48161,-1.75881 c -0.097,-0.097 -0.17639,-0.39467 -0.17639,-0.66146 0,-0.43444 0.24855,-0.48507 2.38125,-0.48507 1.30969,0 2.38125,0.0674 2.38125,0.14969 0,0.0823 -0.12325,0.37998 -0.27389,0.66146 -0.23238,0.4342 -0.56656,0.51177 -2.20487,0.51177 -1.06203,0 -2.01034,-0.0794 -2.10735,-0.17639 z m 9.92793,-0.28663 c 0.0803,-0.4178 0.56476,-0.47008 4.96092,-0.53532 4.80837,-0.0713 5.28731,8e-4 5.30363,0.7999 0.002,0.10914 -2.3264,0.19844 -5.17473,0.19844 -4.78967,0 -5.17209,-0.0348 -5.08982,-0.46302 z m 15.83997,-0.0379 c -0.15384,-0.28744 -0.27971,-0.58998 -0.27971,-0.67231 0,-0.0823 1.07985,-0.14969 2.39966,-0.14969 2.33719,0 2.39745,0.0155 2.3151,0.59532 -0.0782,0.55046 -0.23789,0.60111 -2.11995,0.67231 -1.8006,0.0681 -2.06767,0.0167 -2.3151,-0.44563 z m 9.77446,-0.17124 c 0,-0.67106 0.004,-0.67203 2.15328,-0.59531 1.95682,0.0698 2.17329,0.13116 2.37272,0.67216 0.21728,0.58942 0.19596,0.59531 -2.15327,0.59531 -2.36459,0 -2.37273,-0.002 -2.37273,-0.67216 z m 12.7,0.42922 c 0,-0.94108 0.32691,-1.07998 2.54185,-1.07998 2.19231,0 2.22065,0.008 2.22065,0.66146 0,0.65656 -0.0176,0.66146 -2.38125,0.66146 -1.30969,0 -2.38125,-0.10933 -2.38125,-0.24294 z m 10.05417,-0.40782 c 0,-0.66985 0.008,-0.67216 2.37272,-0.67216 2.34924,0 2.37055,0.006 2.15328,0.59532 -0.19943,0.54099 -0.41591,0.60232 -2.37272,0.67215 -2.14975,0.0767 -2.15328,0.0757 -2.15328,-0.59531 z m 10.05734,0.11567 c 0.27359,-0.51121 0.50107,-0.53187 5.09912,-0.46302 4.33988,0.065 4.82151,0.11756 4.90172,0.53509 0.0823,0.42825 -0.3006,0.46302 -5.09913,0.46302 -5.12523,0 -5.18461,-0.006 -4.90171,-0.53509 z m -68.63425,-2.26468 c -0.3208,-0.836 -0.11285,-0.9044 2.74982,-0.9044 1.60073,0 2.91042,0.10933 2.91042,0.24295 0,0.96621 -0.30656,1.07997 -2.91042,1.07997 -2.11695,0 -2.61851,-0.0763 -2.74982,-0.41852 z m 25.13542,0 c -0.33024,-0.86061 -0.14407,-0.92245 2.55138,-0.84751 2.58457,0.0719 2.71595,0.10337 2.79653,0.67072 0.0828,0.58318 0.0308,0.59531 -2.55138,0.59531 -2.15955,0 -2.66495,-0.0756 -2.79653,-0.41852 z m 10.68732,-0.25503 c 0,-0.6619 0.0304,-0.67219 1.75662,-0.59531 1.54406,0.0688 1.78314,0.15027 1.97585,0.67355 0.21498,0.58378 0.18098,0.59531 -1.75662,0.59531 -1.94064,0 -1.97585,-0.012 -1.97585,-0.67355 z m 13.4978,0.34282 c 0.0101,-0.82597 0.4495,-1.01922 2.13671,-0.93976 1.5285,0.072 1.70404,0.13856 1.78025,0.67518 0.0813,0.57237 0.007,0.59531 -1.91823,0.59531 -1.42799,0 -2.00162,-0.0949 -1.99873,-0.33073 z m 9.25637,-0.33073 c 0,-0.66071 0.003,-0.66146 2.60173,-0.66146 1.43096,0 2.66817,0.0664 2.74935,0.14761 0.0812,0.0812 0.0872,0.37885 0.0132,0.66146 -0.12159,0.46502 -0.38287,0.51385 -2.74934,0.51385 -2.61291,0 -2.61497,-5.2e-4 -2.61497,-0.66146 z m -59.46735,-2.24244 c -0.32856,-0.52859 -0.28186,-0.53568 3.52513,-0.53568 3.53182,0 3.85059,0.0392 3.76929,0.46302 -0.0783,0.40806 -0.49665,0.47164 -3.52513,0.53568 -3.20623,0.0678 -3.45862,0.0368 -3.76929,-0.46302 z m 25.2479,0.34626 c -0.097,-0.097 -0.17639,-0.33514 -0.17639,-0.52917 0,-0.27438 0.70556,-0.35277 3.175,-0.35277 2.99861,0 3.175,0.0294 3.175,0.52916 0,0.49804 -0.17639,0.52917 -2.99861,0.52917 -1.64923,0 -3.07798,-0.0794 -3.175,-0.17639 z m 11.46528,-0.3666 c 0,-0.48871 0.13864,-0.535 1.38658,-0.46303 1.07165,0.0618 1.40658,0.18514 1.47461,0.543 0.0753,0.39611 -0.12505,0.46302 -1.38658,0.46302 -1.31074,0 -1.47461,-0.0603 -1.47461,-0.54299 z m 8.0981,0.12447 c -0.24146,-0.62924 -0.22923,-0.63981 0.74067,-0.63981 0.77101,0 0.88127,0.0765 0.76289,0.52916 -0.16794,0.64224 -1.26849,0.72323 -1.50356,0.11065 z m 6.23872,-0.0445 c 0.0695,-0.36524 0.40885,-0.47978 1.6069,-0.54237 1.38052,-0.0721 1.51878,-0.03 1.51878,0.46302 0,0.48724 -0.16335,0.54237 -1.6069,0.54237 -1.38756,0 -1.59487,-0.0632 -1.51878,-0.46302 z m 8.41735,-0.0661 c 0,-0.50003 0.17639,-0.52916 3.20331,-0.52916 2.81229,0 3.1837,0.0511 3.04271,0.41851 -0.0883,0.23018 -0.1606,0.46831 -0.1606,0.52917 0,0.0609 -1.36922,0.11065 -3.04271,0.11065 -2.86632,0 -3.04271,-0.0307 -3.04271,-0.52917 z m -46.56667,-0.13229 c 0,-0.33161 0.54387,-0.39687 3.30729,-0.39687 2.76343,0 3.30729,0.0653 3.30729,0.39687 0,0.33161 -0.54386,0.39688 -3.30729,0.39688 -2.76342,0 -3.30729,-0.0653 -3.30729,-0.39688 z m 58.27179,0.0742 c 0.0835,-0.25062 0.95095,-0.33882 3.33203,-0.33882 4.37771,0 4.28382,0.50549 -0.11208,0.6034 -2.61624,0.0583 -3.30861,0.001 -3.21995,-0.26458 z m -73.44225,-1.82813 c -0.44955,-0.26135 -0.43155,-0.31088 0.23964,-0.6591 0.56646,-0.29388 1.78307,-0.36074 5.5437,-0.30467 l 4.81798,0.0718 -0.22045,0.59531 c -0.21775,0.58803 -0.27958,0.59521 -5.05762,0.58727 -2.93539,-0.005 -5.02827,-0.11915 -5.32325,-0.29064 z m 15.70368,-0.032 c 0.0107,-0.87165 0.43178,-1.01426 2.76685,-0.93698 2.1395,0.0708 2.34717,0.12559 2.54879,0.6724 0.21881,0.59343 0.21073,0.59531 -2.55009,0.59531 -2.04145,0 -2.76854,-0.087 -2.76555,-0.33073 z m 10.9301,-0.12434 c -0.0923,-0.25904 -0.21603,-0.56027 -0.27494,-0.66941 -0.0589,-0.10914 1.57507,-0.19843 3.63107,-0.19843 3.7253,0 3.7379,0.002 3.65364,0.59531 -0.082,0.57732 -0.18663,0.59755 -3.46324,0.6694 -3.03947,0.0667 -3.39554,0.0268 -3.54653,-0.39687 z m 12.34918,-0.22236 c 0,-0.62102 0.0826,-0.67059 0.99219,-0.59531 0.79698,0.066 1.00882,0.19924 1.07673,0.67743 0.0758,0.53369 -0.0269,0.59531 -0.99218,0.59531 -0.9789,0 -1.07674,-0.0615 -1.07674,-0.67743 z m 7.30921,0.27159 c -0.31412,-0.8186 -0.15944,-0.91707 1.44044,-0.91707 1.51405,0 1.60107,0.034 1.52136,0.59531 -0.0733,0.51637 -0.26434,0.60576 -1.44044,0.67413 -1.05809,0.0615 -1.39223,-0.0159 -1.52136,-0.35237 z m 7.77204,0.1629 c 0,-0.77652 0.37968,-1.07997 1.35123,-1.07997 0.9223,0 1.03002,0.0692 1.03002,0.66145 0,0.60757 -0.097,0.66146 -1.19062,0.66146 -0.65485,0 -1.19063,-0.10932 -1.19063,-0.24294 z m 7.67292,-0.41852 v -0.66145 h 3.57187 c 1.99276,0 3.57188,0.1074 3.57188,0.24294 0,1.00529 -0.25811,1.07997 -3.73248,1.07997 h -3.41127 z m 12.48316,0.0661 c 0.0795,-0.55967 0.22577,-0.59993 2.44342,-0.6724 1.70867,-0.0558 2.41863,0.0171 2.57564,0.26458 0.55834,0.88009 0.25912,1.00313 -2.43937,1.00313 -2.61157,0 -2.66257,-0.0118 -2.57969,-0.59531 z m -71.59321,-2.4474 c 0.43239,-0.65991 0.44329,-0.66145 4.66462,-0.66145 3.74961,0 4.21293,0.0476 4.07061,0.41851 -0.0883,0.23018 -0.1606,0.52784 -0.1606,0.66146 0,0.13802 -1.94518,0.24294 -4.50402,0.24294 h -4.50401 z m 13.8663,0.44745 c 0,-0.11771 0.15244,-0.42249 0.33876,-0.6773 0.26511,-0.36256 0.64712,-0.44546 1.75692,-0.3813 1.19023,0.0688 1.45334,0.17766 1.63709,0.6773 0.21467,0.58376 0.18058,0.59531 -1.75692,0.59531 -1.08672,0 -1.97585,-0.0963 -1.97585,-0.21401 z m 9.26041,-0.0289 c 0,-0.13362 -0.0735,-0.43445 -0.16331,-0.66852 -0.14641,-0.38155 0.25724,-0.418 3.90261,-0.35237 3.98971,0.0718 4.0675,0.0844 4.15046,0.66852 0.0845,0.59476 0.0809,0.59531 -3.9026,0.59531 -2.24495,0 -3.98716,-0.10615 -3.98716,-0.24294 z m 13.22917,-0.41852 c 0,-0.76105 0.89196,-0.94749 1.16232,-0.24294 0.27845,0.72563 0.17945,0.9044 -0.50086,0.9044 -0.52917,0 -0.66146,-0.13229 -0.66146,-0.66146 z m 6.5106,0.24295 c -0.31735,-0.82699 -0.12726,-0.9044 2.22065,-0.9044 1.30969,0 2.38125,0.10932 2.38125,0.24294 0,0.92787 -0.33538,1.07997 -2.38125,1.07997 -1.63442,0 -2.09323,-0.0865 -2.22065,-0.41851 z m 9.36845,0.0878 c 0.0134,-1.09776 1.38313,-1.33133 1.53571,-0.26188 0.0718,0.50342 -0.0377,0.59261 -0.72761,0.59261 -0.47549,0 -0.81047,-0.13709 -0.8081,-0.33073 z m 6.87512,-0.33073 v -0.66145 h 3.92465 c 2.15856,0 3.99984,0.0752 4.09173,0.16707 0.0919,0.0919 0.048,0.38956 -0.0975,0.66146 -0.23966,0.44781 -0.62514,0.49438 -4.09173,0.49438 h -3.82715 z m 13.22917,0.41852 c 0,-0.86952 0.36092,-1.07997 1.85208,-1.07997 1.49116,0 1.85208,0.21045 1.85208,1.07997 0,0.13362 -0.83343,0.24294 -1.85208,0.24294 -1.01865,0 -1.85208,-0.10932 -1.85208,-0.24294 z m -71.51417,-2.66747 c 0.13128,-0.50201 0.36089,-0.52917 4.47315,-0.52917 2.38412,0 4.33476,0.0498 4.33476,0.11065 0,0.0609 -0.0723,0.29898 -0.1606,0.52917 -0.13735,0.35794 -0.78474,0.41851 -4.47314,0.41851 -4.18229,0 -4.30837,-0.016 -4.17417,-0.52916 z m 13.93898,0.11065 c 0.0883,-0.23019 0.1606,-0.46831 0.1606,-0.52917 0,-0.0609 0.40283,-0.11065 0.89518,-0.11065 0.67267,0 0.92958,0.13153 1.03357,0.52917 0.12328,0.47144 0.008,0.52916 -1.05579,0.52916 -0.98021,0 -1.16539,-0.075 -1.03356,-0.41851 z m 7.46495,0 c -0.0883,-0.23019 -0.1606,-0.46831 -0.1606,-0.52917 0,-0.0609 2.02406,-0.11065 4.49792,-0.11065 4.32152,0 4.49791,0.0207 4.49791,0.52917 0,0.50764 -0.17639,0.52916 -4.33731,0.52916 -3.71099,0 -4.36051,-0.0604 -4.49792,-0.41851 z m 14.1269,-0.12627 c 0,-0.29963 0.11906,-0.4712 0.26458,-0.38126 0.14552,0.0899 0.26459,0.33509 0.26459,0.54478 0,0.2097 -0.11907,0.38126 -0.26459,0.38126 -0.14552,0 -0.26458,-0.24515 -0.26458,-0.54478 z m 5.71685,0.12627 c -0.0883,-0.23019 -0.1606,-0.46831 -0.1606,-0.52917 0,-0.0609 1.44149,-0.11065 3.20331,-0.11065 2.8123,0 3.1837,0.0511 3.04271,0.41851 -0.0883,0.23019 -0.1606,0.46831 -0.1606,0.52917 0,0.0609 -1.29695,0.11065 -2.88211,0.11065 -2.38403,0 -2.90986,-0.0723 -3.04271,-0.41851 z m 10.99865,-0.0226 c 0.12873,-0.66379 0.747,-0.75494 0.747,-0.11013 0,0.32499 -0.17084,0.55121 -0.41627,0.55121 -0.24639,0 -0.38137,-0.18001 -0.33073,-0.44109 z m 6.03867,-0.0881 c 0,-0.50842 0.17639,-0.52917 4.49792,-0.52917 2.47385,0 4.49791,0.0498 4.49791,0.11065 0,0.0609 -0.0723,0.29898 -0.1606,0.52917 -0.13741,0.35808 -0.78692,0.41851 -4.49791,0.41851 -4.16093,0 -4.33732,-0.0215 -4.33732,-0.52916 z m 14.07329,0.0661 c 0.0645,-0.33496 0.34328,-0.46302 1.00796,-0.46302 0.66468,0 0.94346,0.12806 1.00796,0.46302 0.0734,0.38087 -0.10549,0.46302 -1.00796,0.46302 -0.90247,0 -1.08131,-0.0822 -1.00796,-0.46302 z m -72.10524,-1.83003 c -0.097,-0.097 -0.17639,-0.39467 -0.17639,-0.66146 0,-0.45287 0.32455,-0.48507 4.88912,-0.48507 h 4.88912 l -0.30138,0.66146 -0.30138,0.66146 h -4.41135 c -2.42624,0 -4.49073,-0.0794 -4.58774,-0.17639 z m 14.47968,-0.24213 c 0.0883,-0.23018 0.16242,-0.49807 0.16465,-0.59531 0.005,-0.23673 0.51589,0.56208 0.52107,0.81539 0.002,0.10914 -0.18728,0.19844 -0.42114,0.19844 -0.27901,0 -0.36997,-0.14389 -0.26458,-0.41852 z m 5.87974,0.006 c -0.0896,-0.23347 -0.16289,-0.53382 -0.16289,-0.66744 0,-0.13881 2.10587,-0.24294 4.91319,-0.24294 h 4.9132 l -0.0845,0.59531 c -0.0836,0.58848 -0.13809,0.59614 -4.7503,0.66744 -4.08085,0.0631 -4.68617,0.0189 -4.82865,-0.35237 z m 19.94544,0.16959 c 0,-0.13362 -0.0723,-0.43127 -0.1606,-0.66146 -0.14207,-0.37025 0.30037,-0.41851 3.83646,-0.41851 2.19839,0 3.99706,0.0674 3.99706,0.14968 0,0.0823 -0.12325,0.37999 -0.27389,0.66146 -0.24997,0.46708 -0.58504,0.51178 -3.83646,0.51178 -1.9871,0 -3.56257,-0.10744 -3.56257,-0.24295 z m 17.72709,-0.41851 v -0.66146 h 4.89479 c 2.79615,0 4.89479,0.10416 4.89479,0.24294 0,1.04255 -0.17518,1.07998 -5.05539,1.07998 h -4.73419 z m 14.81667,0.2802 c 0,-0.2097 0.11906,-0.45485 0.26458,-0.54479 0.14552,-0.0899 0.26458,0.0816 0.26458,0.38126 0,0.29963 -0.11906,0.54479 -0.26458,0.54479 -0.14552,0 -0.26458,-0.17157 -0.26458,-0.38126 z m -73.28959,-2.24294 c 0,-0.13362 -0.0723,-0.43127 -0.1606,-0.66146 -0.14322,-0.37322 0.42473,-0.41851 5.24757,-0.41851 2.97449,0 5.47459,0.0664 5.55578,0.14761 0.0812,0.0812 0.0871,0.37884 0.0132,0.66146 -0.12734,0.487 -0.40917,0.51385 -5.39517,0.51385 -3.01843,0 -5.26081,-0.10356 -5.26081,-0.24295 z m 20.02014,0.0666 c -0.097,-0.097 -0.17639,-0.39719 -0.17639,-0.66706 0,-0.46368 0.28729,-0.48671 5.22552,-0.41892 5.1929,0.0713 5.22605,0.0754 5.31007,0.66705 l 0.0845,0.59532 h -5.13368 c -2.82353,0 -5.21306,-0.0794 -5.31007,-0.17639 z m 19.93194,-0.0602 c 0,-0.13714 -0.0723,-0.43767 -0.1606,-0.66786 -0.14271,-0.3719 0.36029,-0.41851 4.51632,-0.41851 h 4.67692 l -0.0846,0.59531 c -0.0833,0.58693 -0.14692,0.59633 -4.51631,0.66786 -2.64884,0.0434 -4.43178,-0.0278 -4.43178,-0.1768 z m 18.52084,-0.41932 v -0.66705 h 5.31007 5.31007 l -0.0845,0.59531 c -0.084,0.5916 -0.11717,0.59576 -5.31007,0.66705 l -5.22552,0.0717 z m -60.00751,-2.04289 c -0.17462,-0.17462 -0.3175,-0.41275 -0.3175,-0.52916 0,-0.24213 13.05798,-0.29467 13.29914,-0.0535 0.087,0.087 0.0941,0.32511 0.0158,0.52917 -0.19254,0.50173 -12.49854,0.55239 -12.99743,0.0535 z m 20.58459,-0.21692 c 0,-0.52165 0.13438,-0.53272 5.61894,-0.46303 5.10805,0.0649 5.62703,0.11351 5.70794,0.53443 0.0825,0.42942 -0.32529,0.46302 -5.61894,0.46302 -5.55029,0 -5.70794,-0.0148 -5.70794,-0.53442 z m 20.10833,0.0108 c 0,-0.51885 0.15788,-0.53475 5.31107,-0.53475 4.91567,0 5.30444,0.0345 5.22209,0.46302 -0.0806,0.41938 -0.58117,0.46978 -5.31107,0.53476 -5.08757,0.0699 -5.22209,0.058 -5.22209,-0.46302 z m 19.31459,-0.006 c 0,-0.51276 0.17639,-0.52917 5.68854,-0.52917 5.51215,0 5.68854,0.0164 5.68854,0.52917 0,0.51276 -0.17639,0.52916 -5.68854,0.52916 -5.51215,0 -5.68854,-0.0164 -5.68854,-0.52916 z m 56.62084,-5.42396 v -1.98438 h -65.35209 -65.35209 v 1.98438 1.98437 h 65.35209 65.35209 z m 0,-6.08542 v -1.98437 h -65.35209 -65.35209 v 1.98437 1.98438 h 65.35209 65.35209 z m 0,-6.08541 v -1.98438 h -65.35209 -65.35209 v 1.98438 1.98437 h 65.35209 65.35209 z m 0,-6.21771 v -1.5875 h -65.35209 -65.35209 v 1.5875 1.5875 h 65.35209 65.35209 z m 0,-5.68855 v -1.71979 h -65.35209 -65.35209 v 1.71979 1.7198 h 65.35209 65.35209 z m 0,-5.82083 v -1.45521 h -65.35209 -65.35209 v 1.45521 1.45521 h 65.35209 65.35209 z m 0,-6.085414 v -1.190625 h -65.35209 -65.35209 v 1.190625 1.190625 h 65.35209 65.35209 z m 0,-6.879167 v -1.190625 h -65.35209 -65.35209 v 1.190625 1.190625 h 65.35209 65.35209 z m 0,-6.614584 V 82.19576 h -65.35209 -65.35209 v 1.190625 1.190625 h 65.35209 65.35209 z m 0,-7.011459 v -1.058333 h -65.35209 -65.35209 v 1.058333 1.058333 h 65.35209 65.35209 z m 0,-6.482292 v -1.190625 h -65.35209 -65.35209 v 1.190625 1.190625 h 65.35209 65.35209 z m 0,-7.143751 v -0.925671 h -65.35209 -65.35209 v 0.926041 0.926042 h 65.35209 65.35209 z m 0,-6.879167 v -0.661458 h -65.35209 -65.35209 v 0.661458 0.661459 h 65.35209 65.35209 z m 0,-6.879167 c 0,-0.351707 -7.43774,-0.396875 -65.35209,-0.396875 -57.91436,0 -65.35209,0.04517 -65.35209,0.396875 0,0.351707 7.43773,0.396875 65.35209,0.396875 57.91435,0 65.35209,-0.04517 65.35209,-0.396875 z m 0,-7.011459 c 0,-0.175675 -21.96042,-0.264583 -65.35209,-0.264583 -43.39167,0 -65.35209,0.08891 -65.35209,0.264583 0,0.175675 21.96042,0.264584 65.35209,0.264584 43.39167,0 65.35209,-0.08891 65.35209,-0.264584 z"
       id="path4758"
       inkscape:connector-curvature="0" />
  </g>
</svg>
