<?xml version="1.0" encoding="UTF-8" standalone="no"?>
<!-- Created with Inkscape (http://www.inkscape.org/) -->

<svg
   xmlns:dc="http://purl.org/dc/elements/1.1/"
   xmlns:cc="http://creativecommons.org/ns#"
   xmlns:rdf="http://www.w3.org/1999/02/22-rdf-syntax-ns#"
   xmlns:svg="http://www.w3.org/2000/svg"
   xmlns="http://www.w3.org/2000/svg"
   xmlns:sodipodi="http://sodipodi.sourceforge.net/DTD/sodipodi-0.dtd"
   xmlns:inkscape="http://www.inkscape.org/namespaces/inkscape"
   width="52"
   height="55.933956"
   id="svg3992"
   version="1.1"
   inkscape:version="0.48.5 r10040"
   sodipodi:docname="logo_atomino.svg"
   inkscape:export-filename="C:\Users\Bassmas\Desktop\Sojus Homepage\logo_atomino.png"
   inkscape:export-xdpi="72"
   inkscape:export-ydpi="72">
  <defs
     id="defs3994">
    <clipPath
       id="clipPath3169"
       clipPathUnits="userSpaceOnUse">
      <path
         inkscape:connector-curvature="0"
         id="path3171"
         d="m 0,0 895.748,0 0,895.748 L 0,895.748 0,0 z" />
    </clipPath>
  </defs>
  <sodipodi:namedview
     id="base"
     pagecolor="#ffffff"
     bordercolor="#666666"
     borderopacity="1.0"
     inkscape:pageopacity="0.0"
     inkscape:pageshadow="2"
     inkscape:zoom="2.8"
     inkscape:cx="249.65645"
     inkscape:cy="36.494387"
     inkscape:document-units="px"
     inkscape:current-layer="layer1"
     showgrid="false"
     fit-margin-top="1"
     fit-margin-left="1"
     fit-margin-right="1"
     fit-margin-bottom="1"
     inkscape:window-width="1849"
     inkscape:window-height="1058"
     inkscape:window-x="63"
     inkscape:window-y="-8"
     inkscape:window-maximized="1" />
  <metadata
     id="metadata3997">
    <rdf:RDF>
      <cc:Work
         rdf:about="">
        <dc:format>image/svg+xml</dc:format>
        <dc:type
           rdf:resource="http://purl.org/dc/dcmitype/StillImage" />
        <dc:title />
      </cc:Work>
    </rdf:RDF>
  </metadata>
  <g
     inkscape:label="Ebene 1"
     inkscape:groupmode="layer"
     id="layer1"
     transform="translate(-482.57567,-366.57329)">
    <g
       id="g3165"
       transform="matrix(1.9026672,0,0,-1.9026672,-1034.5174,1087.8584)">
      <g
         id="g3167"
         clip-path="url(#clipPath3169)">
        <g
           id="g3173"
           transform="translate(823.8662,370.9865)">
          <path
             inkscape:connector-curvature="0"
             d="m 0,0 c -0.193,0.194 -0.411,0.289 -0.654,0.289 -0.264,0 -0.492,-0.09 -0.685,-0.273 -0.193,-0.183 -0.289,-0.416 -0.289,-0.7 0,-0.244 0.096,-0.462 0.289,-0.654 0.193,-0.193 0.421,-0.289 0.685,-0.289 0.243,0 0.461,0.096 0.654,0.289 0.192,0.192 0.289,0.41 0.289,0.654 C 0.289,-0.42 0.192,-0.193 0,0"
             style="fill:#231f20;fill-opacity:1;fill-rule:nonzero;stroke:none"
             id="path3175" />
        </g>
        <g
           id="g3177"
           transform="translate(819.4773,352.8125)">
          <path
             inkscape:connector-curvature="0"
             d="m 0,0 c -0.357,0 -0.665,-0.123 -0.925,-0.371 -0.262,-0.246 -0.391,-0.562 -0.391,-0.946 0,-0.329 0.129,-0.624 0.391,-0.885 0.26,-0.259 0.568,-0.391 0.925,-0.391 0.33,0 0.624,0.132 0.885,0.391 0.26,0.261 0.391,0.556 0.391,0.885 0,0.356 -0.131,0.665 -0.391,0.926 C 0.624,-0.13 0.33,0 0,0"
             style="fill:#231f20;fill-opacity:1;fill-rule:nonzero;stroke:none"
             id="path3179" />
        </g>
        <g
           id="g3181"
           transform="translate(809.1056,370.7139)">
          <path
             inkscape:connector-curvature="0"
             d="m 0,0 c -0.041,-0.158 -0.125,-0.305 -0.258,-0.437 -0.153,-0.153 -0.321,-0.242 -0.504,-0.274 0.181,-0.033 0.345,-0.123 0.488,-0.274 0.142,-0.15 0.227,-0.321 0.259,-0.513 0.032,0.207 0.121,0.384 0.274,0.528 0.15,0.143 0.323,0.228 0.518,0.259 C 0.582,-0.678 0.409,-0.588 0.259,-0.437 0.125,-0.305 0.041,-0.158 0,0"
             style="fill:#231f20;fill-opacity:1;fill-rule:nonzero;stroke:none"
             id="path3183" />
        </g>
        <g
           id="g3185"
           transform="translate(816.6359,365.4361)">
          <path
             inkscape:connector-curvature="0"
             d="M 0,0 C 0.031,0.21 0.12,0.39 0.274,0.535 0.425,0.678 0.599,0.763 0.794,0.794 0.599,0.827 0.425,0.916 0.274,1.067 0.121,1.22 0.032,1.389 0,1.573 -0.031,1.389 -0.121,1.22 -0.274,1.067 -0.426,0.915 -0.595,0.825 -0.779,0.794 -0.595,0.762 -0.426,0.672 -0.274,0.52 -0.123,0.369 -0.033,0.195 0,0"
             style="fill:#231f20;fill-opacity:1;fill-rule:nonzero;stroke:none"
             id="path3187" />
        </g>
        <g
           id="g3189"
           transform="translate(810.9768,370.78)">
          <path
             inkscape:connector-curvature="0"
             d="m 0,0 c -0.032,-0.184 -0.122,-0.352 -0.274,-0.503 -0.152,-0.153 -0.32,-0.242 -0.504,-0.274 0.182,-0.033 0.345,-0.123 0.489,-0.274 0.182,-0.193 0.274,-0.421 0.274,-0.685 0,0.284 0.096,0.517 0.289,0.7 0.15,0.143 0.324,0.228 0.518,0.259 C 0.598,-0.744 0.424,-0.654 0.274,-0.503 0.122,-0.352 0.032,-0.184 0,0"
             style="fill:#231f20;fill-opacity:1;fill-rule:nonzero;stroke:none"
             id="path3191" />
        </g>
        <g
           id="g3193"
           transform="translate(814.7499,370.7792)">
          <path
             inkscape:connector-curvature="0"
             d="m 0,0 c -0.033,-0.183 -0.123,-0.352 -0.274,-0.502 -0.152,-0.153 -0.32,-0.242 -0.504,-0.275 0.184,-0.032 0.352,-0.122 0.504,-0.273 0.15,-0.151 0.24,-0.324 0.273,-0.517 0.032,0.208 0.121,0.387 0.275,0.532 0.15,0.142 0.323,0.228 0.518,0.259 C 0.597,-0.743 0.424,-0.654 0.274,-0.502 0.122,-0.352 0.032,-0.183 0,0"
             style="fill:#231f20;fill-opacity:1;fill-rule:nonzero;stroke:none"
             id="path3195" />
        </g>
        <g
           id="g3197"
           transform="translate(812.863,370.7805)">
          <path
             inkscape:connector-curvature="0"
             d="m 0,0 c -0.032,-0.184 -0.121,-0.353 -0.273,-0.504 -0.153,-0.152 -0.321,-0.242 -0.504,-0.274 0.183,-0.032 0.351,-0.122 0.504,-0.274 0.15,-0.151 0.24,-0.324 0.273,-0.518 0.031,0.209 0.12,0.388 0.274,0.533 0.151,0.143 0.324,0.228 0.518,0.259 C 0.598,-0.745 0.425,-0.655 0.274,-0.504 0.122,-0.353 0.032,-0.184 0,0"
             style="fill:#231f20;fill-opacity:1;fill-rule:nonzero;stroke:none"
             id="path3199" />
        </g>
        <g
           id="g3201"
           transform="translate(816.6359,363.58)">
          <path
             inkscape:connector-curvature="0"
             d="M 0,0 C 0.031,0.21 0.12,0.39 0.274,0.535 0.407,0.661 0.557,0.74 0.724,0.779 0.557,0.821 0.407,0.904 0.274,1.038 0.121,1.189 0.032,1.358 0,1.543 -0.031,1.358 -0.121,1.189 -0.274,1.038 -0.407,0.903 -0.554,0.819 -0.712,0.779 -0.554,0.738 -0.407,0.654 -0.274,0.521 -0.123,0.369 -0.033,0.195 0,0"
             style="fill:#231f20;fill-opacity:1;fill-rule:nonzero;stroke:none"
             id="path3203" />
        </g>
        <g
           id="g3205"
           transform="translate(812.8627,363.5811)">
          <path
             inkscape:connector-curvature="0"
             d="M 0,0 C 0.031,0.21 0.121,0.389 0.275,0.534 0.407,0.66 0.558,0.739 0.725,0.778 0.558,0.819 0.407,0.903 0.275,1.036 0.122,1.188 0.033,1.357 0,1.54 -0.031,1.357 -0.121,1.188 -0.273,1.036 -0.407,0.902 -0.553,0.818 -0.711,0.777 -0.553,0.737 -0.407,0.652 -0.273,0.519 -0.122,0.368 -0.033,0.194 0,0"
             style="fill:#231f20;fill-opacity:1;fill-rule:nonzero;stroke:none"
             id="path3207" />
        </g>
        <g
           id="g3209"
           transform="translate(816.6359,367.3225)">
          <path
             inkscape:connector-curvature="0"
             d="M 0,0 C 0.031,0.21 0.12,0.389 0.274,0.535 0.425,0.679 0.599,0.763 0.794,0.794 0.599,0.826 0.425,0.916 0.274,1.068 0.121,1.22 0.032,1.389 0,1.573 -0.031,1.389 -0.121,1.22 -0.274,1.068 -0.426,0.915 -0.595,0.825 -0.779,0.793 -0.595,0.762 -0.426,0.672 -0.274,0.519 -0.123,0.368 -0.033,0.195 0,0"
             style="fill:#231f20;fill-opacity:1;fill-rule:nonzero;stroke:none"
             id="path3211" />
        </g>
        <g
           id="g3213"
           transform="translate(816.3621,360.3267)">
          <path
             inkscape:connector-curvature="0"
             d="m 0,0 c 0.151,-0.151 0.241,-0.325 0.274,-0.52 0.031,0.21 0.12,0.39 0.274,0.536 C 0.699,0.159 0.872,0.244 1.067,0.275 0.872,0.307 0.699,0.397 0.548,0.548 0.395,0.7 0.306,0.869 0.274,1.053 0.242,0.869 0.152,0.7 0,0.548 -0.152,0.396 -0.321,0.306 -0.505,0.274 -0.321,0.242 -0.152,0.152 0,0"
             style="fill:#231f20;fill-opacity:1;fill-rule:nonzero;stroke:none"
             id="path3215" />
        </g>
        <g
           id="g3217"
           transform="translate(816.3621,362.2131)">
          <path
             inkscape:connector-curvature="0"
             d="m 0,0 c 0.151,-0.151 0.241,-0.325 0.274,-0.519 0.031,0.209 0.12,0.389 0.274,0.534 0.15,0.144 0.323,0.228 0.517,0.26 C 0.871,0.308 0.698,0.397 0.548,0.548 0.395,0.7 0.306,0.87 0.274,1.053 0.242,0.87 0.152,0.7 0,0.548 -0.152,0.396 -0.32,0.306 -0.503,0.274 -0.32,0.242 -0.152,0.152 0,0"
             style="fill:#231f20;fill-opacity:1;fill-rule:nonzero;stroke:none"
             id="path3219" />
        </g>
        <g
           id="g3221"
           transform="translate(814.749,363.5827)">
          <path
             inkscape:connector-curvature="0"
             d="M 0,0 C 0.031,0.209 0.121,0.388 0.275,0.533 0.407,0.658 0.558,0.737 0.725,0.777 0.558,0.818 0.407,0.901 0.275,1.035 0.123,1.186 0.033,1.354 0.001,1.537 -0.032,1.354 -0.122,1.186 -0.273,1.035 -0.407,0.901 -0.554,0.817 -0.711,0.776 -0.554,0.735 -0.407,0.651 -0.273,0.518 -0.123,0.367 -0.033,0.194 0,0"
             style="fill:#231f20;fill-opacity:1;fill-rule:nonzero;stroke:none"
             id="path3223" />
        </g>
        <g
           id="g3225"
           transform="translate(809.1056,359.4263)">
          <path
             inkscape:connector-curvature="0"
             d="m 0,0 c -0.041,-0.158 -0.125,-0.304 -0.258,-0.438 -0.153,-0.153 -0.322,-0.242 -0.506,-0.274 0.184,-0.031 0.353,-0.121 0.506,-0.274 0.131,-0.131 0.214,-0.281 0.256,-0.446 0.04,0.178 0.125,0.334 0.261,0.461 0.151,0.144 0.325,0.229 0.52,0.26 C 0.584,-0.679 0.41,-0.589 0.259,-0.438 0.125,-0.304 0.041,-0.158 0,0"
             style="fill:#231f20;fill-opacity:1;fill-rule:nonzero;stroke:none"
             id="path3227" />
        </g>
        <g
           id="g3229"
           transform="translate(807.2345,359.491)">
          <path
             inkscape:connector-curvature="0"
             d="m 0,0 c -0.032,-0.183 -0.122,-0.351 -0.274,-0.502 -0.153,-0.153 -0.322,-0.243 -0.506,-0.274 0.184,-0.032 0.353,-0.122 0.506,-0.274 0.151,-0.151 0.241,-0.324 0.274,-0.518 0.031,0.21 0.121,0.388 0.274,0.532 0.151,0.144 0.325,0.229 0.521,0.26 -0.196,0.033 -0.37,0.122 -0.521,0.274 C 0.122,-0.351 0.032,-0.183 0,0"
             style="fill:#231f20;fill-opacity:1;fill-rule:nonzero;stroke:none"
             id="path3231" />
        </g>
        <g
           id="g3233"
           transform="translate(810.9768,359.4918)">
          <path
             inkscape:connector-curvature="0"
             d="m 0,0 c -0.032,-0.183 -0.122,-0.352 -0.274,-0.503 -0.152,-0.153 -0.322,-0.242 -0.506,-0.274 0.184,-0.032 0.354,-0.122 0.506,-0.274 0.151,-0.151 0.241,-0.324 0.273,-0.518 0.032,0.209 0.122,0.388 0.275,0.533 0.151,0.144 0.325,0.228 0.521,0.259 -0.196,0.033 -0.37,0.122 -0.521,0.274 C 0.122,-0.352 0.032,-0.183 0,0"
             style="fill:#231f20;fill-opacity:1;fill-rule:nonzero;stroke:none"
             id="path3235" />
        </g>
        <g
           id="g3237"
           transform="translate(816.6362,359.4937)">
          <path
             inkscape:connector-curvature="0"
             d="m 0,0 c -0.032,-0.184 -0.122,-0.353 -0.274,-0.505 -0.153,-0.153 -0.322,-0.242 -0.506,-0.274 0.184,-0.032 0.353,-0.122 0.506,-0.274 0.151,-0.152 0.241,-0.325 0.274,-0.52 0.031,0.21 0.12,0.39 0.273,0.535 0.152,0.144 0.326,0.228 0.521,0.259 C 0.599,-0.746 0.425,-0.657 0.273,-0.505 0.121,-0.353 0.032,-0.184 0,0"
             style="fill:#231f20;fill-opacity:1;fill-rule:nonzero;stroke:none"
             id="path3239" />
        </g>
        <g
           id="g3241"
           transform="translate(814.7341,361.5291)">
          <path
             inkscape:connector-curvature="0"
             d="M 0,0 C 0,0.283 0.096,0.517 0.289,0.699 0.44,0.843 0.613,0.927 0.807,0.959 0.613,0.992 0.44,1.081 0.289,1.232 0.137,1.383 0.048,1.552 0.016,1.735 -0.017,1.552 -0.107,1.383 -0.258,1.232 -0.451,1.039 -0.669,0.943 -0.913,0.943 -1.176,0.943 -1.404,1.039 -1.597,1.232 -1.749,1.384 -1.839,1.553 -1.871,1.737 -1.903,1.553 -1.992,1.384 -2.145,1.232 -2.338,1.039 -2.556,0.943 -2.799,0.943 c -0.264,0 -0.492,0.096 -0.685,0.289 -0.151,0.152 -0.241,0.32 -0.273,0.504 C -3.789,1.552 -3.879,1.384 -4.031,1.232 -4.224,1.039 -4.442,0.943 -4.685,0.943 -4.949,0.943 -5.177,1.039 -5.37,1.232 -5.504,1.365 -5.588,1.512 -5.629,1.67 -5.67,1.512 -5.754,1.365 -5.887,1.232 -6.08,1.039 -6.298,0.943 -6.541,0.943 -6.805,0.943 -7.033,1.039 -7.226,1.232 -7.378,1.383 -7.467,1.552 -7.5,1.735 -7.532,1.552 -7.622,1.383 -7.773,1.232 -7.925,1.08 -8.094,0.99 -8.277,0.958 -8.094,0.926 -7.925,0.836 -7.773,0.684 -7.581,0.492 -7.484,0.263 -7.484,0 c 0,-0.244 -0.097,-0.462 -0.289,-0.654 -0.153,-0.153 -0.322,-0.242 -0.505,-0.274 0.183,-0.033 0.352,-0.122 0.505,-0.274 0.15,-0.15 0.24,-0.324 0.273,-0.517 0.031,0.209 0.121,0.388 0.274,0.533 0.193,0.182 0.421,0.273 0.685,0.273 0.243,0 0.461,-0.097 0.654,-0.289 0.131,-0.132 0.215,-0.282 0.256,-0.446 0.041,0.178 0.126,0.333 0.261,0.462 0.193,0.182 0.421,0.273 0.685,0.273 0.243,0 0.461,-0.097 0.654,-0.289 0.151,-0.151 0.24,-0.324 0.273,-0.518 0.032,0.209 0.121,0.388 0.274,0.534 0.193,0.182 0.421,0.273 0.685,0.273 0.243,0 0.461,-0.097 0.654,-0.289 0.151,-0.151 0.241,-0.324 0.274,-0.519 0.031,0.21 0.12,0.389 0.274,0.535 0.193,0.182 0.421,0.273 0.684,0.273 0.244,0 0.462,-0.097 0.655,-0.289 0.15,-0.15 0.24,-0.324 0.273,-0.517 0.031,0.209 0.121,0.388 0.274,0.533 0.151,0.142 0.325,0.227 0.52,0.258 C 0.614,-0.895 0.44,-0.805 0.289,-0.654 0.096,-0.462 0,-0.244 0,0"
             style="fill:#231f20;fill-opacity:1;fill-rule:nonzero;stroke:none"
             id="path3243" />
        </g>
        <g
           id="g3245"
           transform="translate(810.9762,363.5819)">
          <path
             inkscape:connector-curvature="0"
             d="M 0,0 C 0.031,0.209 0.121,0.388 0.274,0.534 0.407,0.659 0.558,0.738 0.724,0.777 0.558,0.819 0.407,0.902 0.274,1.036 0.123,1.187 0.033,1.356 0.001,1.539 -0.031,1.356 -0.121,1.187 -0.273,1.036 -0.407,0.901 -0.553,0.817 -0.711,0.777 -0.553,0.736 -0.407,0.652 -0.273,0.519 -0.122,0.367 -0.033,0.194 0,0"
             style="fill:#231f20;fill-opacity:1;fill-rule:nonzero;stroke:none"
             id="path3247" />
        </g>
        <g
           id="g3249"
           transform="translate(809.0903,363.5874)">
          <path
             inkscape:connector-curvature="0"
             d="M 0,0 C 0.032,0.207 0.122,0.384 0.274,0.528 0.407,0.654 0.557,0.733 0.724,0.772 0.557,0.813 0.407,0.897 0.274,1.03 0.14,1.163 0.056,1.31 0.015,1.468 -0.026,1.31 -0.11,1.163 -0.243,1.03 -0.377,0.896 -0.524,0.812 -0.682,0.771 -0.527,0.73 -0.385,0.646 -0.259,0.513 -0.117,0.363 -0.032,0.192 0,0"
             style="fill:#231f20;fill-opacity:1;fill-rule:nonzero;stroke:none"
             id="path3251" />
        </g>
        <g
           id="g3253"
           transform="translate(811.5948,375.0918)">
          <path
             inkscape:connector-curvature="0"
             d="m 0,0 c -6.116,0 -11.075,-4.958 -11.075,-11.075 0,-6.117 4.959,-11.075 11.075,-11.075 6.117,0 11.075,4.958 11.075,11.075 C 11.075,-4.958 6.117,0 0,0 m 6.654,-7.25 c 0.192,-0.193 0.289,-0.421 0.289,-0.684 0,-0.244 -0.097,-0.462 -0.289,-0.654 -0.153,-0.153 -0.322,-0.243 -0.505,-0.274 0.183,-0.032 0.352,-0.122 0.505,-0.273 0.192,-0.194 0.289,-0.422 0.289,-0.686 0,-0.243 -0.097,-0.462 -0.289,-0.653 -0.134,-0.134 -0.28,-0.218 -0.438,-0.259 0.158,-0.041 0.304,-0.125 0.438,-0.258 0.192,-0.194 0.289,-0.422 0.289,-0.685 0,-0.243 -0.097,-0.462 -0.289,-0.655 -0.152,-0.152 -0.32,-0.241 -0.503,-0.274 0.183,-0.032 0.351,-0.121 0.503,-0.274 0.192,-0.192 0.289,-0.42 0.289,-0.684 0,-0.244 -0.097,-0.461 -0.289,-0.654 -0.152,-0.152 -0.321,-0.242 -0.505,-0.274 0.184,-0.032 0.353,-0.122 0.505,-0.274 0.192,-0.192 0.289,-0.421 0.289,-0.684 0,-0.244 -0.097,-0.462 -0.289,-0.654 -0.153,-0.153 -0.322,-0.242 -0.506,-0.274 0.184,-0.032 0.353,-0.122 0.506,-0.274 0.192,-0.193 0.289,-0.421 0.289,-0.685 0,-0.243 -0.097,-0.461 -0.289,-0.654 -0.193,-0.192 -0.411,-0.289 -0.654,-0.289 -0.264,0 -0.492,0.097 -0.685,0.289 -0.153,0.153 -0.242,0.322 -0.274,0.506 -0.031,-0.184 -0.121,-0.353 -0.274,-0.506 -0.193,-0.192 -0.41,-0.289 -0.654,-0.289 -0.264,0 -0.492,0.097 -0.684,0.289 -0.193,0.193 -0.29,0.411 -0.29,0.654 0,0.284 0.097,0.518 0.29,0.7 0.151,0.144 0.325,0.228 0.52,0.259 -0.195,0.033 -0.369,0.122 -0.52,0.274 -0.152,0.151 -0.242,0.319 -0.274,0.502 -0.033,-0.183 -0.123,-0.351 -0.274,-0.502 -0.193,-0.193 -0.411,-0.289 -0.654,-0.289 -0.264,0 -0.492,0.096 -0.685,0.289 -0.152,0.151 -0.242,0.32 -0.274,0.504 -0.032,-0.184 -0.121,-0.353 -0.273,-0.504 -0.153,-0.153 -0.322,-0.242 -0.506,-0.274 0.184,-0.032 0.353,-0.122 0.506,-0.274 0.192,-0.193 0.289,-0.421 0.289,-0.685 0,-0.243 -0.097,-0.461 -0.289,-0.654 -0.193,-0.192 -0.411,-0.289 -0.655,-0.289 -0.263,0 -0.492,0.097 -0.684,0.289 -0.152,0.152 -0.242,0.321 -0.274,0.504 -0.032,-0.183 -0.122,-0.352 -0.274,-0.504 -0.193,-0.192 -0.41,-0.289 -0.654,-0.289 -0.264,0 -0.492,0.097 -0.684,0.289 -0.134,0.134 -0.218,0.28 -0.259,0.438 -0.041,-0.158 -0.126,-0.304 -0.259,-0.438 -0.193,-0.192 -0.411,-0.289 -0.654,-0.289 -0.264,0 -0.492,0.097 -0.684,0.289 -0.152,0.152 -0.242,0.32 -0.274,0.503 -0.033,-0.183 -0.122,-0.351 -0.274,-0.503 -0.193,-0.192 -0.411,-0.289 -0.655,-0.289 -0.263,0 -0.492,0.097 -0.684,0.289 -0.193,0.193 -0.289,0.411 -0.289,0.654 0,0.284 0.096,0.518 0.289,0.7 0.151,0.144 0.325,0.228 0.521,0.259 -0.196,0.033 -0.37,0.122 -0.521,0.274 -0.152,0.151 -0.241,0.319 -0.274,0.502 -0.032,-0.183 -0.122,-0.351 -0.274,-0.502 -0.193,-0.193 -0.411,-0.289 -0.654,-0.289 -0.264,0 -0.492,0.096 -0.684,0.289 -0.193,0.192 -0.289,0.41 -0.289,0.654 0,0.283 0.096,0.517 0.289,0.7 0.151,0.143 0.324,0.228 0.519,0.259 -0.195,0.032 -0.368,0.122 -0.519,0.273 -0.193,0.193 -0.289,0.41 -0.289,0.654 0,0.284 0.096,0.517 0.289,0.7 0.15,0.143 0.323,0.228 0.517,0.259 -0.194,0.033 -0.367,0.122 -0.517,0.273 -0.193,0.193 -0.289,0.412 -0.289,0.655 0,0.283 0.096,0.517 0.289,0.7 0.192,0.182 0.42,0.273 0.684,0.273 0.243,0 0.457,-0.096 0.639,-0.288 0.183,-0.194 0.274,-0.422 0.274,-0.685 0,0.283 0.096,0.517 0.289,0.7 0.133,0.125 0.283,0.204 0.45,0.244 -0.167,0.041 -0.317,0.124 -0.45,0.258 -0.193,0.191 -0.289,0.41 -0.289,0.653 0,0.285 0.096,0.518 0.289,0.7 0.192,0.182 0.421,0.274 0.684,0.274 0.244,0 0.457,-0.096 0.639,-0.288 0.183,-0.194 0.275,-0.422 0.275,-0.686 0,0.285 0.095,0.518 0.289,0.7 0.192,0.182 0.42,0.274 0.684,0.274 0.243,0 0.457,-0.096 0.639,-0.288 0.142,-0.15 0.226,-0.322 0.258,-0.513 0.033,0.207 0.122,0.384 0.275,0.527 0.192,0.182 0.42,0.274 0.684,0.274 0.244,0 0.456,-0.096 0.639,-0.288 0.182,-0.194 0.274,-0.422 0.274,-0.686 0,0.285 0.096,0.518 0.289,0.7 0.192,0.182 0.421,0.274 0.684,0.274 0.244,0 0.457,-0.096 0.64,-0.288 0.182,-0.194 0.273,-0.422 0.273,-0.686 0,0.285 0.096,0.518 0.289,0.7 0.193,0.182 0.421,0.274 0.685,0.274 0.243,0 0.461,-0.096 0.654,-0.288 0.15,-0.151 0.24,-0.324 0.273,-0.518 0.032,0.209 0.121,0.388 0.275,0.532 0.151,0.143 0.325,0.228 0.52,0.259 -0.195,0.033 -0.369,0.122 -0.52,0.274 -0.193,0.192 -0.29,0.41 -0.29,0.654 0,0.285 0.097,0.517 0.29,0.7 0.151,0.143 0.324,0.228 0.519,0.258 C 3.753,-6.943 3.58,-6.853 3.429,-6.702 3.277,-6.55 3.187,-6.382 3.155,-6.199 3.122,-6.382 3.032,-6.55 2.881,-6.702 2.688,-6.895 2.47,-6.991 2.227,-6.991 1.963,-6.991 1.735,-6.895 1.542,-6.702 1.39,-6.549 1.3,-6.381 1.268,-6.197 1.236,-6.381 1.147,-6.549 0.995,-6.702 0.802,-6.895 0.584,-6.991 0.34,-6.991 c -0.263,0 -0.492,0.096 -0.684,0.289 -0.152,0.152 -0.242,0.321 -0.274,0.504 -0.032,-0.183 -0.122,-0.352 -0.274,-0.504 -0.193,-0.193 -0.41,-0.289 -0.654,-0.289 -0.264,0 -0.492,0.096 -0.684,0.289 -0.134,0.134 -0.218,0.28 -0.259,0.438 -0.041,-0.158 -0.126,-0.304 -0.259,-0.438 -0.193,-0.193 -0.411,-0.289 -0.654,-0.289 -0.264,0 -0.492,0.096 -0.684,0.289 -0.152,0.152 -0.242,0.32 -0.274,0.503 -0.033,-0.183 -0.122,-0.351 -0.274,-0.503 -0.193,-0.193 -0.411,-0.289 -0.655,-0.289 -0.263,0 -0.492,0.096 -0.684,0.289 -0.193,0.193 -0.289,0.411 -0.289,0.655 0,0.283 0.096,0.516 0.289,0.699 0.192,0.182 0.421,0.274 0.684,0.274 0.244,0 0.457,-0.097 0.639,-0.289 0.183,-0.193 0.275,-0.421 0.275,-0.684 0,0.283 0.095,0.516 0.289,0.699 0.15,0.143 0.323,0.228 0.518,0.259 -0.195,0.033 -0.368,0.123 -0.518,0.274 -0.194,0.192 -0.289,0.41 -0.289,0.654 0,0.284 0.095,0.517 0.289,0.7 0.192,0.182 0.42,0.273 0.684,0.273 0.243,0 0.457,-0.096 0.639,-0.289 0.142,-0.149 0.226,-0.321 0.258,-0.512 0.033,0.207 0.122,0.383 0.275,0.528 0.192,0.182 0.42,0.273 0.684,0.273 0.244,0 0.456,-0.096 0.639,-0.289 0.182,-0.192 0.274,-0.421 0.274,-0.684 0,0.284 0.096,0.517 0.289,0.7 0.192,0.182 0.421,0.273 0.684,0.273 0.244,0 0.457,-0.096 0.64,-0.289 0.182,-0.192 0.273,-0.421 0.273,-0.684 0,0.284 0.096,0.517 0.289,0.7 0.193,0.182 0.421,0.273 0.685,0.273 0.243,0 0.456,-0.096 0.639,-0.289 0.183,-0.192 0.273,-0.421 0.273,-0.684 0,0.284 0.097,0.517 0.29,0.7 0.192,0.182 0.42,0.273 0.684,0.273 0.244,0 0.461,-0.096 0.654,-0.289 0.193,-0.192 0.29,-0.421 0.29,-0.684 0,-0.244 -0.097,-0.462 -0.29,-0.654 -0.152,-0.152 -0.32,-0.242 -0.503,-0.274 0.183,-0.032 0.351,-0.123 0.503,-0.274 0.151,-0.151 0.241,-0.325 0.274,-0.52 0.031,0.21 0.12,0.389 0.274,0.535 0.193,0.182 0.421,0.274 0.685,0.274 0.243,0 0.461,-0.097 0.654,-0.289 0.192,-0.193 0.289,-0.421 0.289,-0.684 0,-0.244 -0.097,-0.462 -0.289,-0.655 C 6.501,-6.855 6.333,-6.944 6.149,-6.976 6.333,-7.008 6.501,-7.097 6.654,-7.25"
             style="fill:#231f20;fill-opacity:1;fill-rule:nonzero;stroke:none"
             id="path3255" />
        </g>
        <g
           id="g3257"
           transform="translate(807.2194,363.4153)">
          <path
             inkscape:connector-curvature="0"
             d="M 0,0 C 0,0.284 0.096,0.517 0.289,0.7 0.422,0.826 0.573,0.905 0.739,0.944 0.573,0.985 0.422,1.069 0.289,1.202 0.137,1.353 0.047,1.521 0.015,1.705 -0.017,1.521 -0.107,1.353 -0.259,1.202 -0.392,1.068 -0.539,0.984 -0.698,0.943 -0.542,0.902 -0.4,0.818 -0.274,0.685 -0.091,0.492 0,0.263 0,0"
             style="fill:#231f20;fill-opacity:1;fill-rule:nonzero;stroke:none"
             id="path3259" />
        </g>
        <g
           id="g3261"
           transform="translate(805.348,361.3776)">
          <path
             inkscape:connector-curvature="0"
             d="m 0,0 c -0.032,-0.184 -0.122,-0.351 -0.274,-0.503 -0.152,-0.152 -0.321,-0.242 -0.505,-0.274 0.182,-0.032 0.346,-0.121 0.49,-0.274 0.183,-0.192 0.274,-0.421 0.274,-0.684 0,0.284 0.096,0.517 0.289,0.7 0.151,0.143 0.325,0.228 0.519,0.259 C 0.599,-0.744 0.425,-0.654 0.274,-0.503 0.122,-0.351 0.032,-0.184 0,0"
             style="fill:#231f20;fill-opacity:1;fill-rule:nonzero;stroke:none"
             id="path3263" />
        </g>
        <g
           id="g3265"
           transform="translate(805.3326,361.5291)">
          <path
             inkscape:connector-curvature="0"
             d="M 0,0 C 0,0.283 0.096,0.517 0.289,0.699 0.44,0.843 0.613,0.927 0.807,0.959 0.613,0.992 0.44,1.081 0.289,1.232 0.137,1.383 0.048,1.552 0.015,1.735 -0.017,1.552 -0.107,1.383 -0.258,1.232 -0.41,1.08 -0.579,0.99 -0.762,0.958 -0.581,0.926 -0.417,0.836 -0.274,0.684 -0.091,0.492 0,0.263 0,0"
             style="fill:#231f20;fill-opacity:1;fill-rule:nonzero;stroke:none"
             id="path3267" />
        </g>
        <g
           id="g3269"
           transform="translate(798.8503,361.594)">
          <path
             inkscape:connector-curvature="0"
             d="m 0,0 c -0.264,0 -0.492,-0.091 -0.685,-0.275 -0.193,-0.182 -0.289,-0.415 -0.289,-0.698 0,-0.245 0.096,-0.462 0.289,-0.655 0.193,-0.193 0.421,-0.289 0.685,-0.289 0.244,0 0.461,0.096 0.654,0.289 0.192,0.193 0.289,0.41 0.289,0.655 0,0.263 -0.097,0.49 -0.289,0.684 C 0.461,-0.096 0.244,0 0,0"
             style="fill:#231f20;fill-opacity:1;fill-rule:nonzero;stroke:none"
             id="path3271" />
        </g>
        <g
           id="g3273"
           transform="translate(807.8481,376.649)">
          <path
             inkscape:connector-curvature="0"
             d="m 0,0 c 0.244,0 0.462,0.096 0.654,0.289 0.193,0.193 0.289,0.41 0.289,0.654 0,0.264 -0.096,0.492 -0.289,0.685 C 0.462,1.821 0.244,1.917 0,1.917 -0.264,1.917 -0.492,1.826 -0.684,1.643 -0.877,1.46 -0.973,1.227 -0.973,0.943 -0.973,0.699 -0.877,0.482 -0.684,0.289 -0.492,0.096 -0.264,0 0,0"
             style="fill:#231f20;fill-opacity:1;fill-rule:nonzero;stroke:none"
             id="path3275" />
        </g>
      </g>
    </g>
  </g>
</svg>
