<?xml version="1.0" encoding="UTF-8" standalone="no"?>
<!-- Created with Inkscape (http://www.inkscape.org/) -->

<svg
   xmlns:dc="http://purl.org/dc/elements/1.1/"
   xmlns:cc="http://creativecommons.org/ns#"
   xmlns:rdf="http://www.w3.org/1999/02/22-rdf-syntax-ns#"
   xmlns:svg="http://www.w3.org/2000/svg"
   xmlns="http://www.w3.org/2000/svg"
   xmlns:sodipodi="http://sodipodi.sourceforge.net/DTD/sodipodi-0.dtd"
   xmlns:inkscape="http://www.inkscape.org/namespaces/inkscape"
   width="13.22917mm"
   height="13.22917mm"
   viewBox="0 0 13.22917 13.22917"
   version="1.1"
   id="svg9262"
   inkscape:version="0.92.3 (2405546, 2018-03-11)"
   sodipodi:docname="logo_nate_hill.svg">
  <defs
     id="defs9256" />
  <sodipodi:namedview
     id="base"
     pagecolor="#ffffff"
     bordercolor="#666666"
     borderopacity="1.0"
     inkscape:pageopacity="0.0"
     inkscape:pageshadow="2"
     inkscape:zoom="1.979899"
     inkscape:cx="175.71128"
     inkscape:cy="124.06405"
     inkscape:document-units="mm"
     inkscape:current-layer="layer1"
     showgrid="false"
     fit-margin-top="0"
     fit-margin-left="0"
     fit-margin-right="0"
     fit-margin-bottom="0"
     inkscape:window-width="2477"
     inkscape:window-height="1417"
     inkscape:window-x="75"
     inkscape:window-y="-8"
     inkscape:window-maximized="1" />
  <metadata
     id="metadata9259">
    <rdf:RDF>
      <cc:Work
         rdf:about="">
        <dc:format>image/svg+xml</dc:format>
        <dc:type
           rdf:resource="http://purl.org/dc/dcmitype/StillImage" />
        <dc:title></dc:title>
      </cc:Work>
    </rdf:RDF>
  </metadata>
  <g
     inkscape:label="Ebene 1"
     inkscape:groupmode="layer"
     id="layer1"
     transform="translate(-145.14286,-179.8274)">
    <path
       id="path13750"
       d="m 153.19357,189.86701 c -0.0208,-0.0498 -0.0395,-0.10454 -0.11587,-0.33934 -0.0321,-0.0985 -0.0737,-0.22143 -0.0925,-0.27306 -0.0188,-0.0516 -0.0675,-0.20073 -0.10827,-0.33133 -0.10217,-0.32763 -0.38404,-1.19208 -0.56395,-1.72954 l -0.14974,-0.44734 0.13548,0.005 c 0.0745,0.003 0.42573,0.004 0.78049,0.002 l 0.64502,-0.003 0.008,-0.16027 c 0.004,-0.0882 0.004,-0.2324 -6.3e-4,-0.32056 l -0.009,-0.16027 h -0.88485 -0.88486 l -0.0243,-0.0891 c -0.0134,-0.049 -0.0679,-0.21726 -0.12108,-0.37397 -0.0532,-0.15672 -0.22599,-0.68029 -0.38396,-1.16349 -0.15796,-0.48321 -0.30667,-0.93198 -0.33045,-0.99728 -0.0238,-0.0653 -0.072,-0.21222 -0.10722,-0.32649 l -0.064,-0.20776 h -0.30911 c -0.28516,0 -0.31126,0.002 -0.31126,0.002 0.0398,0.0954 0.18024,0.49661 0.2797,0.81737 0.0486,0.15671 0.0971,0.3063 0.1078,0.33242 0.0107,0.0261 0.0753,0.2238 0.14366,0.43928 0.0683,0.21548 0.13865,0.42546 0.15631,0.46661 0.0177,0.0412 0.0321,0.0851 0.0321,0.0977 0,0.0126 0.0481,0.16828 0.10685,0.34597 0.0588,0.17768 0.10685,0.33977 0.10685,0.36019 0,0.0204 0.0147,0.0608 0.0327,0.0897 0.018,0.0289 0.0391,0.0873 0.0469,0.12976 l 0.0142,0.0772 h -0.77111 c -0.7549,0 -0.77113,9.9e-4 -0.77224,0.0475 -6.3e-4,0.0261 -0.001,0.13297 -0.001,0.23744 0,0.10448 5.4e-4,0.22736 0.001,0.27307 l 10e-4,0.0831 h 0.87914 0.87914 l 0.0255,0.0653 c 0.014,0.0359 0.0279,0.076 0.0307,0.089 0.0148,0.0673 0.0957,0.31803 0.1233,0.38206 0.0174,0.0404 0.047,0.13118 0.0659,0.20183 0.0189,0.0707 0.0514,0.17654 0.0722,0.2353 0.0451,0.1272 0.39938,1.20918 0.46263,1.41281 0.0243,0.0784 0.0897,0.28341 0.14516,0.45567 l 0.10091,0.31321 0.31979,0.001 c 0.29524,0.001 0.31846,-0.002 0.3025,-0.0401 z m 1.67376,-3.43692 -4.5e-4,-4.09595 h -0.35285 c -0.31676,0 -0.36192,0.001 -0.36192,0.001 -0.007,0.032 -0.005,7.95252 0.002,8.18968 0,0 0.005,9.6e-4 0.35765,9.6e-4 h 0.35606 l -4.5e-4,-4.09595 z m -5.49385,0 -0.001,-4.09595 h -0.36032 -0.36032 l -0.002,4.07456 c -0.001,2.24101 0.004,4.08418 0.011,4.09595 0.007,0.0118 0.17103,0.0214 0.36392,0.0214 h 0.3507 l -0.001,-4.09596 z m -4.23062,0.0119 v -6.61459 h 6.61458 6.61459 v 6.61459 6.61458 h -6.61459 -6.61458 z"
       inkscape:connector-curvature="0"
       style="stroke-width:0.08974358" />
  </g>
</svg>
