<?xml version="1.0" encoding="UTF-8" standalone="no"?>
<!-- Created with Inkscape (http://www.inkscape.org/) -->

<svg
   xmlns:dc="http://purl.org/dc/elements/1.1/"
   xmlns:cc="http://creativecommons.org/ns#"
   xmlns:rdf="http://www.w3.org/1999/02/22-rdf-syntax-ns#"
   xmlns:svg="http://www.w3.org/2000/svg"
   xmlns="http://www.w3.org/2000/svg"
   xmlns:sodipodi="http://sodipodi.sourceforge.net/DTD/sodipodi-0.dtd"
   xmlns:inkscape="http://www.inkscape.org/namespaces/inkscape"
   width="50.000011"
   height="50.000011"
   viewBox="0 0 13.229169 13.229169"
   version="1.1"
   id="svg4766"
   inkscape:version="0.92.3 (2405546, 2018-03-11)"
   sodipodi:docname="logo_ponk.svg">
  <defs
     id="defs4760" />
  <sodipodi:namedview
     id="base"
     pagecolor="#ffffff"
     bordercolor="#666666"
     borderopacity="1.0"
     inkscape:pageopacity="0.0"
     inkscape:pageshadow="2"
     inkscape:zoom="2.8"
     inkscape:cx="142.15369"
     inkscape:cy="79.399836"
     inkscape:document-units="mm"
     inkscape:current-layer="layer1"
     showgrid="false"
     fit-margin-top="0"
     fit-margin-left="0"
     fit-margin-right="0"
     fit-margin-bottom="0"
     inkscape:window-width="2477"
     inkscape:window-height="1417"
     inkscape:window-x="75"
     inkscape:window-y="-8"
     inkscape:window-maximized="1"
     units="px" />
  <metadata
     id="metadata4763">
    <rdf:RDF>
      <cc:Work
         rdf:about="">
        <dc:format>image/svg+xml</dc:format>
        <dc:type
           rdf:resource="http://purl.org/dc/dcmitype/StillImage" />
        <dc:title></dc:title>
      </cc:Work>
    </rdf:RDF>
  </metadata>
  <g
     inkscape:label="Ebene 1"
     inkscape:groupmode="layer"
     id="layer1"
     transform="translate(688.67263,-450.83632)">
    <path
       d="m -688.67263,457.45091 v -6.61459 h 6.61458 6.61459 v 6.61459 6.61458 h -6.61459 -6.61458 z m 5.91213,1.87192 c 0.003,0 0.008,0.003 0.0116,0.006 0.009,0.009 0.69024,0.39767 0.69597,0.39767 0.003,0 0.16263,-0.0907 0.35543,-0.20147 l 0.35056,-0.20147 0.003,1.96382 0.003,1.96382 1.52796,-0.88307 c 0.84039,-0.48568 1.85019,-1.06922 2.244,-1.29675 l 0.71603,-0.41368 -7e-5,-2.99733 -8e-5,-2.99733 -0.21324,-0.12347 c -0.11729,-0.0679 -0.68504,-0.39641 -1.26166,-0.73 -0.57663,-0.33359 -1.09604,-0.63422 -1.15425,-0.66805 -0.72526,-0.42153 -2.5665,-1.48481 -2.5712,-1.48481 -0.003,0 -0.29245,0.16562 -0.64233,0.36803 -0.34988,0.20242 -1.03352,0.59794 -1.5192,0.87893 -1.32016,0.76379 -2.04736,1.18437 -2.57125,1.48712 l -0.47112,0.27225 -1.8e-4,2.99683 -1.7e-4,2.99683 0.31584,0.1825 c 0.17372,0.10038 0.61053,0.35284 0.97069,0.56101 0.54698,0.31616 2.20298,1.27316 2.9931,1.7297 l 0.20836,0.1204 0.002,-1.96365 c 9.1e-4,-1.08 0.004,-1.96365 0.007,-1.96365 z m -0.97104,2.29231 c -0.0127,-0.008 -0.59986,-0.34812 -1.30473,-0.7548 l -1.28159,-0.73943 0.002,-2.46034 0.002,-2.46035 0.80698,-0.46722 c 0.44384,-0.25697 1.00045,-0.57915 1.23693,-0.71595 0.23647,-0.13681 0.82583,-0.47787 1.30968,-0.75791 0.48386,-0.28004 0.88639,-0.51268 0.89452,-0.51698 0.015,-0.008 0.21748,0.1082 2.88572,1.65516 0.15097,0.0875 0.52453,0.304 0.83013,0.48105 l 0.55562,0.3219 0.002,2.46007 0.002,2.46006 -0.0347,0.02 c -0.0191,0.011 -0.24756,0.14308 -0.50768,0.29348 -0.26011,0.15039 -0.82566,0.47713 -1.25677,0.72609 -0.4311,0.24896 -0.79052,0.45692 -0.79871,0.46214 l -0.0149,0.009 v -1.42815 -1.42815 l 0.0447,-0.0262 c 0.0245,-0.0144 0.46211,-0.26683 0.97234,-0.56092 l 0.9277,-0.53471 v -1.07221 -1.07222 l -0.52752,-0.3071 c -0.56799,-0.33066 -1.42184,-0.8279 -1.99494,-1.16175 -0.19589,-0.11411 -0.35737,-0.20748 -0.35883,-0.20748 -10e-4,0 -0.003,0.99172 -0.004,2.20383 l -0.002,2.20383 -0.35308,0.20403 -0.35308,0.20403 -0.35468,-0.20466 -0.35468,-0.20465 -0.003,-2.20315 -0.003,-2.20315 -0.48617,0.28319 c -0.26739,0.15575 -0.66774,0.38901 -0.88966,0.51835 -0.22192,0.12935 -0.64757,0.37727 -0.94588,0.55095 -0.29832,0.17368 -0.54612,0.31879 -0.55067,0.32245 -0.007,0.005 -0.008,0.22811 -0.008,1.07404 v 1.06736 l 0.0248,0.0156 c 0.0136,0.009 0.44152,0.2559 0.95085,0.5496 0.50932,0.2937 0.9372,0.54125 0.95084,0.55012 l 0.0248,0.0161 v 1.42534 c 0,0.78395 -0.002,1.42517 -0.005,1.42496 -0.003,-2.3e-4 -0.0154,-0.007 -0.0281,-0.0158 z m -0.49426,-4.21926 -0.51741,-0.29885 7e-5,-0.51594 8e-5,-0.51594 0.51117,-0.30236 c 0.28114,-0.1663 0.51617,-0.30429 0.52229,-0.30663 0.0104,-0.004 0.0111,0.0693 0.0111,1.11761 0,0.61703 -0.002,1.12167 -0.005,1.12142 -0.003,-2.5e-4 -0.2378,-0.13494 -0.52237,-0.29931 z m 3.8214,-0.82124 c 0,-0.61673 10e-4,-1.12134 0.003,-1.12134 10e-4,0 0.13164,0.0763 0.28939,0.16963 0.15774,0.0933 0.39098,0.23123 0.51832,0.30652 l 0.23151,0.1369 v 0.51468 0.51469 l -0.50271,0.29035 c -0.27649,0.15969 -0.5109,0.29475 -0.5209,0.30013 l -0.0182,0.01 z"
       id="path9254"
       inkscape:connector-curvature="0"
       style="stroke-width:0.025" />
  </g>
</svg>
