<?xml version="1.0" encoding="UTF-8" standalone="no"?>
<!-- Created with Inkscape (http://www.inkscape.org/) -->

<svg
   xmlns:dc="http://purl.org/dc/elements/1.1/"
   xmlns:cc="http://creativecommons.org/ns#"
   xmlns:rdf="http://www.w3.org/1999/02/22-rdf-syntax-ns#"
   xmlns:svg="http://www.w3.org/2000/svg"
   xmlns="http://www.w3.org/2000/svg"
   xmlns:sodipodi="http://sodipodi.sourceforge.net/DTD/sodipodi-0.dtd"
   xmlns:inkscape="http://www.inkscape.org/namespaces/inkscape"
   width="311.11252mm"
   height="132.05833mm"
   viewBox="0 0 311.11252 132.05834"
   version="1.1"
   id="svg13768"
   inkscape:version="0.92.3 (2405546, 2018-03-11)"
   sodipodi:docname="logo_cold_skin_studios.svg">
  <defs
     id="defs13762" />
  <sodipodi:namedview
     id="base"
     pagecolor="#ffffff"
     bordercolor="#666666"
     borderopacity="1.0"
     inkscape:pageopacity="0.0"
     inkscape:pageshadow="2"
     inkscape:zoom="0.7"
     inkscape:cx="324.02405"
     inkscape:cy="378.51313"
     inkscape:document-units="mm"
     inkscape:current-layer="layer1"
     showgrid="false"
     fit-margin-top="0"
     fit-margin-left="0"
     fit-margin-right="0"
     fit-margin-bottom="0"
     inkscape:measure-start="810.357,485"
     inkscape:measure-end="843.214,383.929"
     inkscape:window-width="2477"
     inkscape:window-height="1417"
     inkscape:window-x="75"
     inkscape:window-y="-8"
     inkscape:window-maximized="1" />
  <metadata
     id="metadata13765">
    <rdf:RDF>
      <cc:Work
         rdf:about="">
        <dc:format>image/svg+xml</dc:format>
        <dc:type
           rdf:resource="http://purl.org/dc/dcmitype/StillImage" />
        <dc:title></dc:title>
      </cc:Work>
    </rdf:RDF>
  </metadata>
  <g
     inkscape:label="Ebene 1"
     inkscape:groupmode="layer"
     id="layer1"
     transform="translate(192.06875,133.24702)">
    <path
       style="fill:none;stroke:#000000;stroke-width:4;stroke-miterlimit:4;stroke-dasharray:none;stroke-opacity:1"
       d="M -190.06875,-67.217855 V -131.24702 H -36.512488 117.04378 v 64.029165 64.0291696 H -36.512488 -190.06875 Z"
       id="path18302"
       inkscape:connector-curvature="0" />
    <path
       id="path18260"
       style="fill:#000000;stroke-width:0.26458335"
       d="m 55.017153,-103.34987 v -2.11667 h 2.116667 2.116667 v 2.11667 2.11667 H 57.13382 55.017153 Z m 25.929168,16.271878 v -10.186459 h 2.116667 2.116666 v 0.821158 0.821159 l 0.92038,-0.808107 c 1.039495,-0.912685 2.31693,-1.242996 3.775975,-0.976373 1.327785,0.242633 1.999827,0.710827 2.748201,1.914588 0.61968,0.996778 0.625977,1.083752 0.707575,9.803096 l 0.08234,8.797397 -2.199005,-2.65e-4 -2.199005,-2.65e-4 v -7.563498 -7.563501 l -0.764831,-0.657627 c -0.57023,-0.490279 -0.940541,-0.614612 -1.455209,-0.488588 -1.486799,0.364045 -1.477433,0.312513 -1.565169,8.609915 l -0.08104,7.663829 h -2.10177 -2.101771 z m -25.929168,0 v -10.186459 h 2.116667 2.116667 v 10.186459 10.186459 H 57.13382 55.017153 Z m -33.866668,-4.101042 v -14.287506 h 2.112962 2.112937 l 0.06988,8.306433 0.06985,8.306425 2.294229,-4.139237 2.294228,-4.13924 2.170166,-0.07737 c 1.868064,-0.0666 2.148311,-0.02045 2.013241,0.331538 -0.08631,0.224904 -1.129877,2.045658 -2.319047,4.046125 -1.189143,2.000465 -2.163392,3.756272 -2.164953,3.901792 -0.0026,0.145521 1.265449,2.870576 2.81559,6.055678 1.550115,3.185102 2.818422,5.834243 2.818422,5.88698 0,0.05274 -1.05209,0.09589 -2.337991,0.09589 h -2.337964 l -1.691032,-4.101042 c -0.930063,-2.255573 -1.772761,-4.101042 -1.872642,-4.101042 -0.09991,0 -0.549036,0.597101 -0.998087,1.326891 -0.775944,1.261038 -0.816452,1.464574 -0.816452,4.101042 v 2.774151 h -2.116666 -2.116667 z m -30.5256424,14.163631 c -2.6205916,-0.934133 -4.3993596,-3.517199 -4.3993596,-6.388635 v -1.689579 h 2.116667 2.1166666 v 1.124479 c 0.00265,1.569736 0.7841721,2.769042 1.9500851,2.987771 2.5305015,0.474723 3.6026462,-0.684396 3.6042072,-3.896588 0,-1.118315 -0.1136385,-2.334742 -0.253709,-2.703174 -0.2613289,-0.687359 -1.8415,-1.601322 -4.7932183,-2.772392 -3.2947236,-1.307147 -4.4760616,-3.254901 -4.4783906,-7.383875 -0.0026,-2.920864 0.550995,-4.572284 2.027344,-6.057974 2.4300916,-2.44548 6.8202437,-2.54731 9.5377792,-0.22121 1.48526503,1.27135 2.14815214,2.75612 2.24665652,5.032342 l 0.0801423,1.852079 -2.14921052,0.0763 -2.1492105,0.0763 -0.1229254,-1.482545 c -0.095673,-1.153674 -0.2792148,-1.638816 -0.8273786,-2.186966 -0.9894358,-0.98944 -2.5439688,-0.9815 -3.5435647,0.0181 -0.6304757,0.63045 -0.7350655,0.970822 -0.8209227,2.671386 -0.09308,1.843019 -0.057441,1.992361 0.6563519,2.749527 0.4901141,0.519906 1.6811361,1.158266 3.3966151,1.820521 3.1654751,1.222005 4.67198621,2.482038 5.16313228,4.318323 0.1919023,0.71746 0.28000855,2.432717 0.22431376,4.365625 -0.0823383,2.855757 -0.16761355,3.333793 -0.82777546,4.639049 -1.22459748,2.421271 -2.97539838,3.416361 -6.01088378,3.416361 -0.9458854,0 -2.1808547,-0.164351 -2.7443907,-0.365225 z m -56.3991546,-4.473118 c 0.828249,-0.828249 1.007941,-2.182595 0.895049,-6.746047 -0.08449,-3.415236 -0.140304,-3.772371 -0.672743,-4.304485 -0.701236,-0.700805 -2.037525,-0.765564 -2.673133,-0.129548 -0.393446,0.393702 -0.450422,1.105072 -0.450422,5.623896 0,5.117542 0.0067,5.178624 0.624623,5.678803 0.832906,0.674216 1.516616,0.637392 2.276626,-0.122619 z m -5.335799,4.343115 c -1.709484,-1.042332 -1.789822,-1.45232 -1.880217,-9.59529 -0.07568,-6.817945 -0.04476,-7.418528 0.438275,-8.510495 0.604379,-1.366301 1.451806,-2.004555 2.923611,-2.201966 1.578356,-0.211701 2.843885,0.122894 3.868955,1.022916 l 0.920385,0.808107 v -4.922206 -4.9222 h 2.116667 2.116666 v 14.287506 14.287501 h -2.116666 -2.116667 v -0.843251 -0.843251 l -0.727604,0.67863 c -1.095182,1.021469 -1.744859,1.272553 -3.289899,1.271465 -0.92783,-5.29e-4 -1.694711,-0.176749 -2.253506,-0.517466 z m -24.866419,0.226917 c -1.144294,-0.331094 -2.296377,-1.543029 -2.678152,-2.817276 -0.224933,-0.750758 -0.315672,-4.600331 -0.315672,-13.392195 v -12.33858 h 2.116667 2.116667 v 11.629224 c 0,8.130255 0.0906,11.828071 0.301133,12.290129 0.179123,0.393137 0.60792,0.728295 1.058333,0.827223 0.750242,0.164782 0.757201,0.184348 0.757201,2.129663 v 1.963351 l -1.256771,-0.02387 c -0.691224,-0.01312 -1.635956,-0.133578 -2.099406,-0.267677 z m -28.77868,-4.591228 c 0.64255,-0.642546 0.64943,-0.701127 0.64943,-5.526937 0,-4.2604 -0.0586,-4.94674 -0.46302,-5.424702 -0.71405,-0.843872 -1.68729,-0.959863 -2.52499,-0.300929 l -0.71615,0.563325 v 5.090281 c 0,4.756979 0.0353,5.128197 0.53947,5.669339 0.70999,0.762077 1.71081,0.734076 2.51526,-0.07038 z m -4.41156,4.142386 c -1.1921,-0.622766 -1.54366,-0.98756 -2.21302,-2.296377 l -0.79578,-1.555999 v -5.707266 c 0,-6.539283 0.21193,-7.514077 1.98111,-9.112425 3.11363,-2.81297 8.85364,-1.447814 9.99662,2.377519 0.42701,1.429115 0.44533,11.678439 0.0234,13.086742 -0.41419,1.382451 -1.69483,2.860686 -2.98657,3.447381 -1.71154,0.777362 -4.25319,0.675973 -6.00575,-0.239575 z m -33.49767,0.302022 c -1.44639,-0.512101 -3.08743,-2.358364 -3.47923,-3.914333 -0.18905,-0.750787 -0.29544,-4.448871 -0.29544,-10.269422 0,-7.455804 0.0726,-9.307406 0.40283,-10.267736 0.80816,-2.3505 2.90081,-3.89266 5.61267,-4.1362 4.2171,-0.37872 7.13643,2.29852 7.28397,6.679932 l 0.062,1.840909 h -2.11667 -2.11667 l -0.14233,-1.322917 c -0.18739,-1.741674 -0.59014,-2.408624 -1.66961,-2.764884 -1.25455,-0.41403 -2.21462,0.008 -2.70925,1.19228 -0.32759,0.784042 -0.38155,2.374932 -0.31793,9.373442 l 0.0766,8.429133 0.64144,0.682411 c 0.90624,0.964139 2.19677,0.927621 3.21537,-0.09099 0.6517,-0.651692 0.7734,-0.984776 0.7734,-2.116667 v -1.343268 h 2.2855 2.2855 l -0.18215,1.777897 c -0.31072,3.03276 -1.6558,5.135838 -3.95146,6.178204 -1.34225,0.609467 -4.04373,0.64394 -5.65855,0.07221 z M 8.9796507,-55.460282 v -2.116667 h 2.1166673 2.116667 v 2.116667 2.116666 H 11.096318 8.9796507 Z M -82.03702,-29.192845 c -0.977582,-0.367347 -1.952881,-1.298125 -2.406271,-2.296477 -0.4381,-0.964671 -0.493165,-1.822715 -0.498335,-7.765231 l -0.0058,-6.680729 h -1.058334 -1.058333 v -1.719792 -1.719791 h 1.058333 1.058334 v -3.042709 -3.042708 h 2.116666 2.116667 v 3.042708 3.042709 h 1.322917 1.322917 v 1.719791 1.719792 h -1.322917 -1.322917 v 5.894255 c 0,6.684752 0.09461,7.070329 1.734794,7.070329 h 0.91104 v 1.984375 1.984375 l -1.785938,-0.0209 c -0.982266,-0.01138 -1.964531,-0.088 -2.182813,-0.170021 z m 124.07038,-4.475004 c 0.509297,-0.647435 0.548376,-1.041373 0.548376,-5.526934 0,-4.214945 -0.05895,-4.899449 -0.463021,-5.376995 -0.770149,-0.910167 -1.783451,-0.993167 -2.566379,-0.210238 l -0.674767,0.674767 v 4.95591 c 0,4.724189 0.02691,4.984539 0.575284,5.568263 0.78523,0.835845 1.884785,0.799703 2.580507,-0.08477 z m -4.084108,4.437037 c -1.29331,-0.587534 -2.597097,-2.022581 -3.076734,-3.386456 -0.256037,-0.728107 -0.356632,-2.585005 -0.356023,-6.571139 0,-6.463295 0.221033,-7.428971 2.049489,-8.994087 1.188217,-1.017085 2.399665,-1.453991 4.031377,-1.453991 2.636599,0 4.591844,1.146545 5.582126,3.273372 0.602483,1.293918 0.630449,1.605783 0.631534,7.042415 0,3.161665 -0.122184,6.132486 -0.276436,6.687952 -0.152665,0.549699 -0.656987,1.431581 -1.120749,1.959769 -1.175623,1.338977 -2.599928,1.923997 -4.684184,1.923997 -1.098788,0 -2.102749,-0.17399 -2.7804,-0.481832 z M 8.9790422,-39.122261 v -10.252604 h 2.1166668 2.116667 v 10.166324 10.166297 l -2.117275,0.08631 -2.1173024,0.08628 v -10.252605 z m -26.0870182,5.271823 c 0.515832,-0.694293 0.555334,-1.086432 0.555334,-5.513229 v -4.765728 l -0.742368,-0.63836 c -0.895535,-0.77007 -1.506696,-0.804889 -2.33717,-0.133112 -0.609918,0.493369 -0.626375,0.619522 -0.698844,5.357813 -0.0689,4.506172 -0.03543,4.915112 0.469053,5.728785 0.454978,0.733795 0.677783,0.862806 1.370965,0.79375 0.539644,-0.05376 1.020974,-0.342609 1.38303,-0.829919 z m -5.583396,4.594622 c -1.712966,-1.044469 -1.79033,-1.443408 -1.875288,-9.668007 -0.07514,-7.277048 -0.06575,-7.429077 0.529167,-8.57938 0.823066,-1.591336 1.989323,-2.199058 3.972322,-2.069862 1.226794,0.07993 1.716881,0.261303 2.579688,0.95467 l 1.065133,0.855953 v -4.907253 -4.907254 h 2.116667 2.116666 v 14.2875 14.287501 h -2.116666 -2.116667 v -0.843253 -0.843254 l -0.727604,0.67863 c -1.09519,1.021477 -1.744848,1.272566 -3.289909,1.271481 -0.927814,0 -1.694709,-0.176768 -2.253509,-0.517472 z m -33.284188,0.264584 c -0.742077,-0.308954 -1.897896,-1.590728 -2.232126,-2.475336 -0.177739,-0.470429 -0.281416,-3.906441 -0.281416,-9.326563 v -8.581734 h 2.116667 2.116667 l 0.0039,7.342187 c 0.0042,7.936151 0.08414,8.450713 1.383607,8.907701 0.800814,0.281623 1.880269,-0.143139 2.223937,-0.875109 0.109958,-0.234209 0.245017,-3.789336 0.300132,-7.9003 l 0.100206,-7.474479 h 2.095151 2.095151 v 10.186458 10.186459 h -2.116667 -2.116667 v -0.792004 -0.792003 l -1.210892,0.924295 c -1.035106,0.790125 -1.409597,0.921861 -2.579688,0.907521 -0.752837,-0.0093 -1.60692,-0.115914 -1.897962,-0.237093 z m -59.76211,-0.11893 c -2.64343,-0.982637 -4.39936,-3.538803 -4.39936,-6.404293 v -1.689577 h 2.11667 2.11667 v 1.075717 c 0,2.579132 2.03929,3.895328 4.25784,2.748068 1.05236,-0.544195 1.29841,-1.302914 1.29841,-4.003781 0,-2.132647 -0.0417,-2.299732 -0.72761,-2.917375 -0.40018,-0.360363 -1.8481,-1.12104 -3.21759,-1.690397 -4.53396,-1.885024 -5.35228,-2.969895 -5.52986,-7.331101 -0.12382,-3.040724 0.17283,-4.211426 1.54823,-6.110129 2.68267,-3.70332 9.57543,-2.892743 11.58638,1.362525 0.32774,0.693499 0.56457,1.832874 0.61857,2.975848 l 0.0875,1.852083 -2.18281,0.07684 -2.18281,0.07686 v -1.162209 c 0,-2.833079 -2.75502,-4.286303 -4.53468,-2.391939 -0.50229,0.53467 -0.63403,1.010867 -0.71316,2.577756 -0.13036,2.581592 0.24066,2.996353 4.05721,4.535408 4.74905,1.915081 5.58171,3.310731 5.38603,9.027795 -0.0895,2.61456 -0.1826,3.079856 -0.89493,4.472703 -1.15344,2.255387 -2.58896,3.093746 -5.49981,3.212041 -1.43398,0.05826 -2.51265,-0.04072 -3.19089,-0.29284 z"
       inkscape:connector-curvature="0" />
  </g>
</svg>
