<?xml version="1.0" encoding="UTF-8" standalone="no"?>
<!-- Created with Inkscape (http://www.inkscape.org/) -->

<svg
   xmlns:dc="http://purl.org/dc/elements/1.1/"
   xmlns:cc="http://creativecommons.org/ns#"
   xmlns:rdf="http://www.w3.org/1999/02/22-rdf-syntax-ns#"
   xmlns:svg="http://www.w3.org/2000/svg"
   xmlns="http://www.w3.org/2000/svg"
   xmlns:sodipodi="http://sodipodi.sourceforge.net/DTD/sodipodi-0.dtd"
   xmlns:inkscape="http://www.inkscape.org/namespaces/inkscape"
   width="147.41072mm"
   height="147.41072mm"
   viewBox="0 0 147.41072 147.41072"
   version="1.1"
   id="svg9262"
   inkscape:version="0.92.3 (2405546, 2018-03-11)"
   sodipodi:docname="logo_nate_hill.svg">
  <defs
     id="defs9256" />
  <sodipodi:namedview
     id="base"
     pagecolor="#ffffff"
     bordercolor="#666666"
     borderopacity="1.0"
     inkscape:pageopacity="0.0"
     inkscape:pageshadow="2"
     inkscape:zoom="0.7"
     inkscape:cx="621.96316"
     inkscape:cy="389.36873"
     inkscape:document-units="mm"
     inkscape:current-layer="layer1"
     showgrid="false"
     fit-margin-top="0"
     fit-margin-left="0"
     fit-margin-right="0"
     fit-margin-bottom="0"
     inkscape:window-width="2477"
     inkscape:window-height="1417"
     inkscape:window-x="75"
     inkscape:window-y="-8"
     inkscape:window-maximized="1" />
  <metadata
     id="metadata9259">
    <rdf:RDF>
      <cc:Work
         rdf:about="">
        <dc:format>image/svg+xml</dc:format>
        <dc:type
           rdf:resource="http://purl.org/dc/dcmitype/StillImage" />
        <dc:title></dc:title>
      </cc:Work>
    </rdf:RDF>
  </metadata>
  <g
     inkscape:label="Ebene 1"
     inkscape:groupmode="layer"
     id="layer1"
     transform="translate(-145.14286,-45.645828)">
    <path
       id="path13750"
       style="fill:#000000;stroke-width:0.26458335"
       d="m 234.85074,157.51596 c -0.23155,-0.55496 -0.43981,-1.16488 -1.29112,-3.78122 -0.35732,-1.09816 -0.82126,-2.46738 -1.03098,-3.04271 -0.20972,-0.57533 -0.75262,-2.23667 -1.20644,-3.69188 -1.13853,-3.65079 -4.27939,-13.28325 -6.28405,-19.2721 l -1.66851,-4.98461 1.5096,0.0553 c 0.83028,0.0304 4.74389,0.041 8.69692,0.0237 l 7.18732,-0.0316 0.0887,-1.78594 c 0.0488,-0.98227 0.0455,-2.58961 -0.007,-3.57188 l -0.096,-1.78593 h -9.85983 -9.85984 l -0.27114,-0.99219 c -0.14912,-0.54571 -0.75623,-2.42094 -1.34913,-4.16719 -0.59289,-1.74625 -2.51816,-7.58031 -4.27837,-12.964583 -1.76021,-5.38427 -3.41721,-10.3849 -3.68221,-11.1125 -0.26501,-0.72761 -0.80264,-2.36472 -1.19475,-3.63802 l -0.71292,-2.31511 h -3.44435 c -3.17753,0 -3.46837,0.02035 -3.46837,0.02035 0.44341,1.06298 2.00843,5.533615 3.11671,9.107775 0.54148,1.74625 1.08203,3.41312 1.20122,3.70416 0.11918,0.29104 0.83951,2.4937 1.60073,4.89479 0.76121,2.401108 1.545,4.740818 1.74175,5.199378 0.19674,0.45855 0.35772,0.94856 0.35772,1.08891 0,0.14034 0.53578,1.87511 1.19062,3.85503 0.65484,1.97992 1.19063,3.78605 1.19063,4.01363 0,0.22757 0.16408,0.67747 0.36463,0.99977 0.20055,0.3223 0.4357,0.97296 0.52255,1.4459 l 0.15792,0.8599 h -8.59234 c -8.41176,0 -8.59261,0.0111 -8.60495,0.52916 -0.007,0.29104 -0.0126,1.48167 -0.0126,2.64584 0,1.16416 0.006,2.53338 0.0126,3.0427 l 0.0126,0.92605 h 9.79613 9.79614 l 0.2843,0.7276 c 0.15637,0.40018 0.3105,0.84667 0.3425,0.99219 0.1649,0.7498 1.06654,3.54369 1.37387,4.25719 0.1937,0.44969 0.52427,1.46172 0.73461,2.24896 0.21034,0.78724 0.57233,1.96713 0.80441,2.62197 0.5023,1.41728 4.45015,13.47365 5.15495,15.74271 0.2712,0.87313 0.99908,3.158 1.6175,5.0775 l 1.12441,3.49002 3.56337,0.0143 c 3.28986,0.0132 3.54859,-0.0211 3.37075,-0.4473 z m 18.65049,-38.29706 -0.005,-45.640633 h -3.93173 c -3.52961,0 -4.03282,0.01418 -4.03282,0.01418 -0.0778,0.35658 -0.0569,88.613723 0.0217,91.256413 0,0 0.0524,0.0107 3.98521,0.0107 h 3.96751 l -0.005,-45.64063 z m -61.21719,0 -0.0152,-45.640633 h -4.01499 -4.01501 l -0.025,45.402223 c -0.0137,24.97122 0.0414,45.5095 0.12241,45.64063 0.081,0.13112 1.90587,0.23841 4.05517,0.23841 h 3.90784 l -0.0152,-45.64063 z m -47.14118,0.13229 V 45.645828 h 73.70536 73.70536 v 73.705362 73.70536 h -73.70536 -73.70536 z"
       inkscape:connector-curvature="0" />
  </g>
</svg>
