<?xml version="1.0" encoding="UTF-8" standalone="no"?>
<!-- Created with Inkscape (http://www.inkscape.org/) -->

<svg
   xmlns:dc="http://purl.org/dc/elements/1.1/"
   xmlns:cc="http://creativecommons.org/ns#"
   xmlns:rdf="http://www.w3.org/1999/02/22-rdf-syntax-ns#"
   xmlns:svg="http://www.w3.org/2000/svg"
   xmlns="http://www.w3.org/2000/svg"
   xmlns:sodipodi="http://sodipodi.sourceforge.net/DTD/sodipodi-0.dtd"
   xmlns:inkscape="http://www.inkscape.org/namespaces/inkscape"
   width="72"
   height="51.170238"
   id="svg3900"
   version="1.1"
   inkscape:version="0.48.5 r10040"
   sodipodi:docname="logo_dkm.svg"
   inkscape:export-filename="C:\Users\Bassmas\Desktop\Sojus Homepage\logo_dkm.png"
   inkscape:export-xdpi="72.255936"
   inkscape:export-ydpi="72.255936">
  <defs
     id="defs3902" />
  <sodipodi:namedview
     id="base"
     pagecolor="#ffffff"
     bordercolor="#666666"
     borderopacity="1.0"
     inkscape:pageopacity="0.0"
     inkscape:pageshadow="2"
     inkscape:zoom="5.6"
     inkscape:cx="73.028099"
     inkscape:cy="24.550276"
     inkscape:document-units="px"
     inkscape:current-layer="layer1"
     showgrid="false"
     fit-margin-top="1"
     fit-margin-left="1"
     fit-margin-right="1"
     fit-margin-bottom="1"
     inkscape:window-width="1849"
     inkscape:window-height="1058"
     inkscape:window-x="63"
     inkscape:window-y="-8"
     inkscape:window-maximized="1" />
  <metadata
     id="metadata3905">
    <rdf:RDF>
      <cc:Work
         rdf:about="">
        <dc:format>image/svg+xml</dc:format>
        <dc:type
           rdf:resource="http://purl.org/dc/dcmitype/StillImage" />
        <dc:title />
      </cc:Work>
    </rdf:RDF>
  </metadata>
  <g
     inkscape:label="Ebene 1"
     inkscape:groupmode="layer"
     id="layer1"
     transform="translate(-118.48718,-257.44925)">
    <path
       inkscape:connector-curvature="0"
       d="m 189.4868,307.04719 -0.002,-15.48728 c -0.002,-0.19328 -0.0158,-0.39647 -0.0347,-0.61949 -0.16613,-1.83864 -0.99367,-3.53854 -2.33177,-4.79238 -1.34801,-1.26376 -3.1024,-1.96007 -4.9361,-1.96007 -2.44575,0 -4.67593,1.22164 -6.02641,3.24365 -1.35049,-2.02201 -3.58066,-3.24365 -6.02641,-3.24365 -1.77175,0 -3.44189,0.64179 -4.75273,1.79405 l 0,-2.07902 -2.83479,0.94658 0,16.18358 -5.71914,-9.87467 1.75934,-1.01845 c 1.36785,-0.82021 2.33673,-2.18556 2.65886,-3.74421 0.1064,-0.51541 0.14114,-1.04321 0.10402,-1.56855 -0.21062,-2.98099 -2.71585,-5.3177 -5.70179,-5.3177 -0.13622,0 -0.27505,0.004 -0.41134,0.014 -1.52395,0.10906 -2.91657,0.80286 -3.91766,1.9576 -1.00358,1.15472 -1.49422,2.63158 -1.38519,4.15553 0.10906,1.54378 0.81772,2.9463 1.99476,3.94987 l 0.29984,0.25524 2.80506,-1.62554 -0.8326,-0.48074 c -0.8326,-0.48071 -1.37032,-1.34057 -1.43971,-2.29954 -0.0544,-0.76818 0.19329,-1.51404 0.6988,-2.09636 0.5055,-0.58233 1.20924,-0.93171 1.97742,-0.98623 0.0693,-0.004 0.13874,-0.009 0.20813,-0.009 1.50661,0 2.77037,1.17702 2.87692,2.68363 0.0767,1.08288 -0.45346,2.10628 -1.3827,2.67125 -0.0371,0.0224 -0.0718,0.0423 -0.10906,0.0619 l -9.73096,5.63727 0,-34.94921 -8.00383,4.63627 0,25.20585 c -2.15086,-2.27724 -5.16902,-3.60048 -8.34082,-3.60048 -6.32128,0 -11.46306,5.14178 -11.46306,11.46306 0,6.32128 5.14178,11.46554 11.46306,11.46554 3.1718,0 6.18996,-1.32324 8.34082,-3.60048 l 0,3.0256 2.83727,0 0,-42.32611 2.32929,-1.34801 0,43.67412 2.83727,0 0,-10.36782 7.07459,-4.09853 8.378,14.46635 2.62911,0 0,-15.48232 c 0,-2.5424 2.0691,-4.60901 4.60901,-4.60901 2.5424,0 4.6115,2.06661 4.6115,4.60901 l 0,15.48232 2.83479,0 0,-15.48232 c 0,-2.5424 2.06909,-4.60901 4.60901,-4.60901 2.54239,0 4.60901,2.06661 4.60901,4.60901 l 0,15.48232 2.83727,0 z m -58.53694,-2.26239 c -4.75769,0 -8.62827,-3.87058 -8.62827,-8.62827 0,-4.75769 3.87058,-8.62827 8.62827,-8.62827 3.94492,0 7.38185,2.6663 8.35817,6.47989 0.18079,0.69878 0.2701,1.42234 0.2701,2.14838 0,0.72853 -0.0892,1.45209 -0.2701,2.1484 -0.97632,3.81606 -4.41325,6.47987 -8.35817,6.47987"
       style="fill:#231f20;fill-opacity:1;fill-rule:nonzero;stroke:none"
       id="path3339" />
  </g>
</svg>
