<?xml version="1.0" encoding="UTF-8" standalone="no"?>
<!-- Created with Inkscape (http://www.inkscape.org/) -->

<svg
   xmlns:dc="http://purl.org/dc/elements/1.1/"
   xmlns:cc="http://creativecommons.org/ns#"
   xmlns:rdf="http://www.w3.org/1999/02/22-rdf-syntax-ns#"
   xmlns:svg="http://www.w3.org/2000/svg"
   xmlns="http://www.w3.org/2000/svg"
   xmlns:sodipodi="http://sodipodi.sourceforge.net/DTD/sodipodi-0.dtd"
   xmlns:inkscape="http://www.inkscape.org/namespaces/inkscape"
   width="87"
   height="43.04504"
   id="svg5325"
   version="1.1"
   inkscape:version="0.48.5 r10040"
   sodipodi:docname="logo_baracke.svg"
   style="enable-background:new"
   inkscape:export-filename="C:\Users\Bassmas\Desktop\Sojus Homepage\logo_baracke.png"
   inkscape:export-xdpi="72"
   inkscape:export-ydpi="72">
  <defs
     id="defs5327" />
  <sodipodi:namedview
     id="base"
     pagecolor="#ffffff"
     bordercolor="#666666"
     borderopacity="1.0"
     inkscape:pageopacity="0.0"
     inkscape:pageshadow="2"
     inkscape:zoom="2.8"
     inkscape:cx="142.89768"
     inkscape:cy="101.93443"
     inkscape:document-units="px"
     inkscape:current-layer="layer2"
     showgrid="false"
     fit-margin-top="1"
     fit-margin-left="1"
     fit-margin-right="1"
     fit-margin-bottom="1"
     inkscape:window-width="1849"
     inkscape:window-height="1058"
     inkscape:window-x="63"
     inkscape:window-y="-8"
     inkscape:window-maximized="1" />
  <metadata
     id="metadata5330">
    <rdf:RDF>
      <cc:Work
         rdf:about="">
        <dc:format>image/svg+xml</dc:format>
        <dc:type
           rdf:resource="http://purl.org/dc/dcmitype/StillImage" />
        <dc:title />
      </cc:Work>
    </rdf:RDF>
  </metadata>
  <g
     inkscape:groupmode="layer"
     id="layer2"
     inkscape:label="Ebene"
     style="display:inline"
     transform="translate(-0.53125002,-93.947265)">
    <g
       id="g6264"
       transform="matrix(0.30499913,0,0,0.30499913,1.0642201,94.524224)">
      <path
         inkscape:connector-curvature="0"
         id="use5933"
         d="m 3.4375,41.5625 c -1.049296,0 -1.90625,0.825704 -1.90625,1.875 0,1.049296 0.856954,1.90625 1.90625,1.90625 l 41.8125,0 c 0.779573,-1.277692 1.609264,-2.551508 2.5,-3.78125 l -44.3125,0 z m 191.75,0 c 0.89074,1.229742 1.72043,2.503558 2.5,3.78125 l 61.8125,0 c 1.04929,0 1.90625,-0.856954 1.90625,-1.90625 0,-1.049296 -0.85696,-1.875 -1.90625,-1.875 l -64.3125,0 z M 3.4375,55.875 c -1.049296,0 -1.90625,0.856954 -1.90625,1.90625 0,1.049296 0.856954,1.875 1.90625,1.875 l 35.78125,0 c 0.312501,-1.269813 0.64726,-2.539714 1.0625,-3.78125 l -36.84375,0 z m 199.21875,0 c 0.41524,1.241536 0.75,2.511437 1.0625,3.78125 l 55.78125,0 c 1.04929,0 1.90625,-0.825704 1.90625,-1.875 0,-1.049296 -0.85696,-1.90625 -1.90625,-1.90625 l -56.84375,0 z M 3.4375,70.1875 c -1.049296,0 -1.90625,0.856954 -1.90625,1.90625 0,1.049296 0.856954,1.875 1.90625,1.875 l 34.5,0 c -0.06947,-1.035809 -0.09375,-2.076414 -0.09375,-3.125 0,-0.220112 -0.0031,-0.43668 0,-0.65625 l -34.40625,0 z m 201.65625,0 c 0.003,0.21957 0,0.436138 0,0.65625 0,1.048586 -0.0243,2.089191 -0.0937,3.125 l 54.5,0 c 1.04929,0 1.90625,-0.825704 1.90625,-1.875 0,-1.049296 -0.85696,-1.90625 -1.90625,-1.90625 l -54.40625,0 z M 3.4375,84.5 c -1.049296,0 -1.90625,0.856954 -1.90625,1.90625 0,1.049296 0.856954,1.90625 1.90625,1.90625 l 37.8125,0 C 40.748689,87.048278 40.268555,85.79638 39.875,84.5 l -36.4375,0 z m 199.625,0 c -0.39356,1.29638 -0.87369,2.548278 -1.375,3.8125 l 57.8125,0 c 1.04929,0 1.90625,-0.856954 1.90625,-1.90625 0,-1.049296 -0.85696,-1.90625 -1.90625,-1.90625 l -56.4375,0 z M 3.4375,98.84375 c -1.049296,0 -1.90625,0.825701 -1.90625,1.875 0,1.04929 0.856954,1.90625 1.90625,1.90625 l 46.25,0 c -0.997145,-1.2334 -1.930472,-2.49413 -2.8125,-3.78125 l -43.4375,0 z m 192.625,0 c -0.88203,1.28712 -1.81536,2.54785 -2.8125,3.78125 l 66.25,0 c 1.04929,0 1.90625,-0.85696 1.90625,-1.90625 0,-1.049299 -0.85696,-1.875 -1.90625,-1.875 l -63.4375,0 z"
         style="fill:#231f20;fill-opacity:1;stroke:none" />
      <text
         sodipodi:linespacing="125%"
         id="text6034"
         y="124.85714"
         x="220.35713"
         style="font-size:24px;font-style:normal;font-weight:normal;line-height:125%;letter-spacing:0px;word-spacing:0px;fill:#231f20;fill-opacity:1;stroke:none;font-family:Sans"
         xml:space="preserve"><tspan
           style="font-size:24px;font-style:normal;font-variant:normal;font-weight:normal;font-stretch:normal;fill:#231f20;fill-opacity:1;font-family:Arial;-inkscape-font-specification:Arial"
           y="124.85714"
           x="220.35713"
           id="tspan6036"
           sodipodi:role="line">e.V.</tspan></text>
      <path
         sodipodi:nodetypes="cccccccc"
         inkscape:connector-curvature="0"
         id="path6031"
         d="m 206.35429,77.490286 14.36404,-58.173058 59.48324,-0.0558 0.019,-2.6593 -8.11711,-15.2151034 -51.80095,0.00142 -15.9992,65.6584934 z"
         style="fill:#231f20;fill-opacity:1;stroke:none" />
      <path
         inkscape:connector-curvature="0"
         id="path5935"
         d="m 205.06097,68.940971 c 0,35.495869 -38.04643,64.270959 -84.97908,64.270959 -46.932654,0 -84.979084,-28.77509 -84.979084,-64.270959 0,-35.49587 38.04643,-64.2709576 84.979084,-64.2709576 46.93265,0 84.97908,28.7750876 84.97908,64.2709576 z"
         mask="none"
         style="fill:none;stroke:#231f20;stroke-width:7.34322214;stroke-linejoin:miter;stroke-miterlimit:4;stroke-opacity:1"
         transform="matrix(0.98410147,0,0,0.96419142,2.6495377,3.987606)" />
      <path
         sodipodi:nodetypes="sssssssss"
         inkscape:connector-curvature="0"
         id="rect5938"
         d="m 90.820542,10.349628 22.678948,0 c 1.0493,0 2.14886,0.876155 1.89404,1.894036 l -23.456,93.694146 c -0.254825,1.01789 -0.84474,1.89404 -1.894036,1.89404 l -22.678944,0 c -1.049296,0 -2.14886,-0.87615 -1.894036,-1.89404 L 88.926506,12.243664 c 0.254823,-1.017883 0.84474,-1.894036 1.894036,-1.894036 z"
         style="fill:#231f20;fill-opacity:1;stroke:none" />
      <path
         inkscape:connector-curvature="0"
         id="rect5967"
         d="m 100,36.1875 c -5.389124,0 -9.71875,4.329627 -9.71875,9.71875 l 0,2.0625 19.8125,0 c 1.58038,0 3.21935,1.339909 2.84375,2.875 l -10.34375,42.3125 c -0.3756,1.535091 -1.26337,2.875 -2.84375,2.875 l -9.46875,0 0,2.03125 c 0,5.38912 1.677976,9.71875 9.71875,9.71875 l 18.1875,0 c 5.38913,0 8.38532,-4.49719 9.71875,-9.71875 l 13.3125,-52.15625 C 142.55218,40.684698 141.43482,36.1875 131.5,36.1875 l -31.5,0 z"
         clip-path="none"
         style="fill:#231f20;fill-opacity:1;stroke:none" />
      <path
         sodipodi:nodetypes="cccccccccccccccccccc"
         inkscape:connector-curvature="0"
         id="path6010"
         d="m 152.6593,36.616088 -9.02824,38.827739 c -0.63135,2.115007 2.115,5.713675 3.6618,5.682108 l 20.39246,0.126269 -4.23002,15.909902 c -0.50508,1.325825 -0.94701,1.925603 -2.27284,1.894036 l -4.16688,-0.252538 2.27284,-8.175922 -19.54013,-0.03157 -2.65166,10.638168 c -0.97858,3.25143 1.13642,6.50286 3.25143,6.40816 l 33.77698,0 c 3.50397,0.0316 7.98652,-4.00904 8.7757,-6.81853 l 5.01378,-22.392957 c 0.40178,-2.633929 -2.1133,-5.839016 -4.74723,-5.794373 l -19.51175,0.02298 7.50218,-27.267773 25.09597,0.0947 -5.7768,-8.933537 z"
         style="fill:#231f20;fill-opacity:1;stroke:none" />
    </g>
  </g>
</svg>
