<?xml version="1.0" encoding="UTF-8" standalone="no"?>
<!-- Created with Inkscape (http://www.inkscape.org/) -->

<svg
   xmlns:dc="http://purl.org/dc/elements/1.1/"
   xmlns:cc="http://creativecommons.org/ns#"
   xmlns:rdf="http://www.w3.org/1999/02/22-rdf-syntax-ns#"
   xmlns:svg="http://www.w3.org/2000/svg"
   xmlns="http://www.w3.org/2000/svg"
   xmlns:sodipodi="http://sodipodi.sourceforge.net/DTD/sodipodi-0.dtd"
   xmlns:inkscape="http://www.inkscape.org/namespaces/inkscape"
   width="132.25999"
   height="55.091019"
   id="svg4191"
   version="1.1"
   inkscape:version="0.48.5 r10040"
   sodipodi:docname="logo_fuzzmatazz.svg"
   inkscape:export-filename="C:\Users\Bassmas\Desktop\Sojus Homepage\logo_fuzzmatazz.png"
   inkscape:export-xdpi="72"
   inkscape:export-ydpi="72">
  <defs
     id="defs4193">
    <clipPath
       id="clipPath3357"
       clipPathUnits="userSpaceOnUse">
      <path
         inkscape:connector-curvature="0"
         id="path3359"
         d="m 0,0 895.748,0 0,895.748 L 0,895.748 0,0 z" />
    </clipPath>
  </defs>
  <sodipodi:namedview
     id="base"
     pagecolor="#ffffff"
     bordercolor="#666666"
     borderopacity="1.0"
     inkscape:pageopacity="0.0"
     inkscape:pageshadow="2"
     inkscape:zoom="5.6568543"
     inkscape:cx="77.438607"
     inkscape:cy="42.277646"
     inkscape:document-units="px"
     inkscape:current-layer="layer1"
     showgrid="false"
     fit-margin-top="1"
     fit-margin-left="1"
     fit-margin-right="1"
     fit-margin-bottom="1"
     inkscape:window-width="1849"
     inkscape:window-height="1058"
     inkscape:window-x="63"
     inkscape:window-y="-8"
     inkscape:window-maximized="1" />
  <metadata
     id="metadata4196">
    <rdf:RDF>
      <cc:Work
         rdf:about="">
        <dc:format>image/svg+xml</dc:format>
        <dc:type
           rdf:resource="http://purl.org/dc/dcmitype/StillImage" />
        <dc:title />
      </cc:Work>
    </rdf:RDF>
  </metadata>
  <g
     inkscape:label="Ebene 1"
     inkscape:groupmode="layer"
     id="layer1"
     transform="translate(-342.81322,-230.27321)">
    <g
       id="g5271"
       transform="matrix(0.87859117,0,0,0.87859117,41.741961,34.524328)">
      <g
         transform="matrix(2.7413351,0,0,-2.7413351,364.65206,247.74444)"
         id="g3369">
        <path
           id="path3371"
           style="fill:#231f20;fill-opacity:1;fill-rule:nonzero;stroke:none"
           d="M 0,0 C -0.157,0.84 -0.036,1.657 0.058,2.476 0.2,3.718 0.319,4.962 0.466,6.203 0.505,6.524 0.602,6.84 0.696,7.151 0.714,7.209 0.85,7.282 0.916,7.268 1.49,7.151 2.062,7.021 2.63,6.878 2.713,6.857 2.811,6.758 2.838,6.674 3.31,5.244 3.555,3.78 3.438,2.271 3.358,1.246 3.063,0.268 2.775,-0.713 2.565,-1.426 2.385,-2.148 2.216,-2.871 2.168,-3.079 2.114,-3.174 1.878,-3.179 0.675,-3.204 -0.528,-3.252 -1.731,-3.283 c -0.188,-0.005 -0.379,0.022 -0.564,0.059 -0.07,0.014 -0.164,0.089 -0.181,0.153 -0.366,1.372 -0.758,2.739 -1.07,4.124 -0.382,1.695 -0.244,3.385 0.237,5.049 0.035,0.125 0.093,0.246 0.106,0.373 0.055,0.502 0.334,0.726 0.831,0.752 0.566,0.03 1.13,0.095 1.694,0.147 0.25,0.022 0.308,-0.081 0.261,-0.321 -0.15,-0.777 -0.291,-1.555 -0.419,-2.336 -0.21,-1.28 -0.292,-2.567 -0.128,-3.859 0.04,-0.321 0.141,-0.64 0.254,-0.944 0.174,-0.466 0.82,-0.65 1.385,-0.418 0.055,0.022 0.113,0.043 0.161,0.076 0.168,0.117 0.414,0.215 0.321,0.472 C 1.067,0.289 0.809,0.255 0.611,0.219 0.411,0.182 0.222,0.082 0,0"
           inkscape:connector-curvature="0" />
      </g>
      <g
         transform="matrix(2.7413351,0,0,-2.7413351,402.71522,242.86735)"
         id="g3373">
        <path
           id="path3375"
           style="fill:#231f20;fill-opacity:1;fill-rule:nonzero;stroke:none"
           d="m 0,0 c 1.294,-1.56 2.453,-3.241 2.138,-4.522 -0.425,0.064 -0.854,0.131 -1.284,0.191 -0.285,0.04 -0.571,0.077 -0.857,0.105 -0.263,0.026 -0.401,0.145 -0.448,0.422 -0.232,1.36 -0.479,2.717 -0.725,4.074 -0.192,1.053 -0.202,3.349 -0.009,4.208 0.256,0.044 0.517,0.106 0.781,0.123 0.065,0.004 0.17,-0.123 0.203,-0.211 C 0.023,3.81 0.179,3.196 0.461,2.646 0.802,1.981 1.459,2.013 1.804,2.68 1.871,2.809 1.872,3.073 1.788,3.153 1.7,3.236 1.467,3.199 1.308,3.164 1.204,3.141 1.12,3.027 1.019,2.947 0.753,3.148 0.719,3.44 0.714,3.743 0.713,3.791 0.731,3.84 0.74,3.889 0.8,4.198 0.767,4.593 0.948,4.79 1.119,4.977 1.513,4.976 1.814,5.02 2.493,5.118 3.175,5.193 3.856,5.278 4.102,5.309 4.136,5.199 4.095,4.978 3.99,4.414 3.871,3.864 3.42,3.456 3.399,3.437 3.375,3.42 3.354,3.403 2.932,3.613 2.752,3.608 2.521,3.375 2.327,3.18 2.3,2.942 2.431,2.718 2.566,2.487 2.791,2.427 3.052,2.51 3.581,2.679 3.905,3.087 4.18,3.526 4.491,4.023 4.771,4.541 5.034,5.065 5.138,5.273 5.256,5.335 5.472,5.303 5.647,5.277 5.827,5.284 6.025,5.275 6.065,4.793 6.127,4.331 6.138,3.867 6.17,2.533 6.259,1.193 6.176,-0.136 6.102,-1.316 5.827,-2.484 5.641,-3.657 5.594,-3.96 5.534,-4.262 5.507,-4.568 5.486,-4.815 5.342,-4.909 5.132,-4.895 4.526,-4.855 3.92,-4.806 3.318,-4.73 c -0.1,0.012 -0.204,0.165 -0.268,0.275 -0.731,1.264 -0.43,2.382 0.499,3.405 0.241,0.265 0.488,0.526 0.723,0.796 0.11,0.125 0.198,0.153 0.351,0.053 0.212,-0.137 0.45,-0.161 0.673,-0.006 0.24,0.168 0.28,0.421 0.119,0.709 C 5.204,0.88 4.944,1.008 4.611,0.837 4.387,0.721 4.163,0.564 4.005,0.372 3.469,-0.28 2.956,-0.952 2.449,-1.627 2.326,-1.79 2.262,-1.997 2.173,-2.178 1.717,-1.555 1.261,-0.92 0.789,-0.297 0.556,0.012 0.31,0.316 0.037,0.591 -0.207,0.838 -0.445,0.822 -0.595,0.592 -0.694,0.442 -0.795,0.281 -0.643,0.102 -0.463,-0.11 -0.252,-0.159 0,0"
           inkscape:connector-curvature="0" />
      </g>
      <g
         transform="matrix(2.7413351,0,0,-2.7413351,491.35409,244.12755)"
         id="g3377">
        <path
           id="path3379"
           style="fill:#231f20;fill-opacity:1;fill-rule:nonzero;stroke:none"
           d="M 0,0 C -0.106,-0.55 -0.216,-1.022 -0.285,-1.5 -0.398,-2.276 -0.49,-3.055 -0.576,-3.834 -0.609,-4.14 -0.721,-4.288 -1.03,-4.308 c -1.103,-0.073 -2.206,-0.143 -3.31,-0.207 -0.384,-0.023 -0.506,0.095 -0.467,0.486 0.129,1.292 -0.016,2.565 -0.241,3.834 -0.09,0.502 0.053,0.707 0.551,0.786 1.177,0.186 2.173,0.682 2.835,1.711 0.336,0.522 0.475,1.097 0.276,1.709 C -1.43,4.145 -1.53,4.27 -1.632,4.373 -1.786,4.529 -2.015,4.604 -2.146,4.406 -2.23,4.279 -2.17,4.05 -2.157,3.868 -2.153,3.821 -2.086,3.774 -2.041,3.735 -1.719,3.457 -1.695,3.402 -1.877,3.001 -2.117,2.467 -2.484,2.067 -3.106,2.012 -3.686,1.962 -4.267,1.924 -4.849,1.907 -5.181,1.896 -5.385,2.075 -5.402,2.404 -5.462,3.594 -5.501,4.785 -5.549,6.012 -3.552,6.095 -1.764,5.486 0.054,5.047 0.282,3.766 0.313,2.488 0.195,1.204 0.175,0.984 0.08,0.842 -0.129,0.722 -1.036,0.199 -1.785,-0.514 -2.447,-1.319 c -0.075,-0.092 -0.151,-0.196 -0.181,-0.307 -0.035,-0.131 -0.047,-0.283 -0.012,-0.41 0.01,-0.039 0.238,-0.072 0.318,-0.025 0.144,0.085 0.252,0.232 0.375,0.353 -0.068,0.067 -0.136,0.134 -0.221,0.217 C -1.686,-0.709 -0.926,-0.3 0,0"
           inkscape:connector-curvature="0" />
      </g>
      <g
         transform="matrix(2.7413351,0,0,-2.7413351,473.77448,227.83332)"
         id="g3381">
        <path
           id="path3383"
           style="fill:#231f20;fill-opacity:1;fill-rule:nonzero;stroke:none"
           d="m 0,0 c -0.369,-1.922 -0.204,-3.781 0.222,-5.652 -0.487,0 -0.953,0.007 -1.42,-0.003 -0.177,-0.004 -0.361,-0.02 -0.527,-0.075 -0.377,-0.123 -0.735,-0.297 -0.803,-0.747 -0.085,-0.563 0.141,-1.034 0.584,-1.267 0.068,-0.035 0.151,-0.066 0.224,-0.06 0.082,0.006 0.196,0.036 0.228,0.094 0.028,0.05 -0.02,0.167 -0.068,0.229 -0.072,0.092 -0.162,0.182 -0.264,0.235 -0.194,0.1 -0.291,0.236 -0.23,0.453 0.064,0.225 0.219,0.36 0.453,0.362 0.177,0.002 0.354,-0.031 0.53,-0.058 0.382,-0.058 0.765,-0.119 1.146,-0.187 0.309,-0.054 0.519,-0.194 0.575,-0.545 0.112,-0.706 0.279,-1.403 0.379,-2.11 0.044,-0.309 0.003,-0.638 -0.045,-0.952 -0.036,-0.246 -0.269,-0.313 -0.481,-0.325 -1.213,-0.073 -2.427,-0.138 -3.64,-0.194 -0.165,-0.008 -0.341,0.019 -0.496,0.074 -0.217,0.077 -0.332,0.231 -0.36,0.489 -0.147,1.335 -0.324,2.667 -0.477,4.001 -0.068,0.593 -0.109,1.189 -0.155,1.783 -0.021,0.264 0.089,0.421 0.37,0.484 1.077,0.244 1.7,1.225 1.815,2.235 0.012,0.108 -0.101,0.23 -0.155,0.345 -0.148,-0.078 -0.332,-0.127 -0.428,-0.246 -0.063,-0.079 -0.007,-0.262 0.011,-0.396 0.013,-0.098 0.097,-0.208 0.071,-0.287 -0.214,-0.641 -0.818,-1.031 -1.481,-0.983 -0.181,0.012 -0.213,0.12 -0.195,0.266 0.078,0.641 0.15,1.282 0.245,1.92 0.013,0.088 0.133,0.206 0.224,0.227 1.21,0.286 2.424,0.558 3.638,0.829 C -0.366,-0.028 -0.215,-0.025 0,0"
           inkscape:connector-curvature="0" />
      </g>
      <g
         transform="matrix(2.7413351,0,0,-2.7413351,420.64767,228.48082)"
         id="g3385">
        <path
           id="path3387"
           style="fill:#231f20;fill-opacity:1;fill-rule:nonzero;stroke:none"
           d="M 0,0 C 0.742,-0.053 1.435,-0.109 2.128,-0.152 2.864,-0.198 3.6,-0.245 4.336,-0.264 4.581,-0.27 4.635,-0.348 4.638,-0.575 4.672,-2.737 4.71,-4.899 4.762,-7.061 4.78,-7.806 4.829,-8.552 4.887,-9.296 4.916,-9.665 4.771,-9.806 4.358,-9.852 4.091,-9.881 3.82,-9.873 3.551,-9.875 3.232,-9.877 3.109,-9.704 3.134,-9.381 3.185,-8.748 3.258,-8.112 3.233,-7.48 3.213,-6.971 3.087,-6.459 2.96,-5.961 2.86,-5.567 2.336,-5.435 2.085,-5.728 2.001,-5.828 1.979,-6.016 2,-6.152 2.007,-6.199 2.232,-6.219 2.359,-6.236 2.4,-6.242 2.448,-6.201 2.527,-6.166 2.71,-6.809 2.858,-7.45 2.697,-8.099 2.556,-8.665 2.339,-9.212 2.14,-9.762 2.115,-9.831 1.999,-9.902 1.919,-9.911 1.295,-9.975 0.67,-10.035 0.044,-10.074 c -0.431,-0.027 -0.555,0.134 -0.474,0.562 0.198,1.055 0.408,2.108 0.593,3.165 0.068,0.39 0.081,0.79 0.112,1.114 0.599,0.299 1.191,0.535 1.718,0.871 0.758,0.485 0.868,1.156 0.73,2.054 -0.008,0.058 -0.03,0.12 -0.064,0.165 -0.118,0.152 -0.23,0.39 -0.461,0.267 C 1.985,-1.99 1.957,-2.229 2.04,-2.459 2.063,-2.523 2.104,-2.582 2.142,-2.641 2.221,-2.766 2.392,-2.911 2.368,-3.009 2.313,-3.228 2.206,-3.472 2.042,-3.618 1.593,-4.016 1.025,-4.03 0.464,-3.967 0.386,-3.958 0.279,-3.765 0.27,-3.651 0.196,-2.738 0.143,-1.823 0.08,-0.909 0.061,-0.622 0.03,-0.336 0,0"
           inkscape:connector-curvature="0" />
      </g>
      <g
         transform="matrix(2.7413351,0,0,-2.7413351,349.60185,242.36952)"
         id="g3389">
        <path
           id="path3391"
           style="fill:#231f20;fill-opacity:1;fill-rule:nonzero;stroke:none"
           d="M 0,0 C 0.303,-0.029 0.389,0.164 0.363,0.354 0.333,0.578 0.264,0.833 0.121,0.995 0.005,1.127 -0.173,0.974 -0.187,0.808 -0.225,0.356 -0.322,-0.116 -0.238,-0.551 0.095,-2.276 0.979,-3.682 2.378,-4.758 2.441,-4.807 2.479,-4.889 2.529,-4.955 2.438,-5.004 2.346,-5.095 2.256,-5.093 c -0.397,0.009 -0.794,0.056 -1.192,0.07 -0.766,0.027 -1.533,0.046 -2.3,0.061 -0.598,0.011 -0.768,0.186 -0.777,0.787 -0.033,2.053 -0.106,4.106 -0.098,6.159 0.006,1.461 0.119,2.922 0.182,4.343 C -0.485,6.458 0.955,6.59 2.435,6.724 2.192,5.931 1.947,5.128 1.699,4.326 1.685,4.28 1.659,4.233 1.629,4.196 1.388,3.901 0.421,3.802 0.121,4.04 -0.142,4.25 -0.14,4.472 0.114,4.688 0.186,4.75 0.268,4.837 0.282,4.923 0.299,5.025 0.281,5.199 0.219,5.232 0.131,5.28 -0.015,5.243 -0.128,5.212 -0.184,5.196 -0.229,5.118 -0.266,5.06 -0.572,4.587 -0.447,3.595 0.011,3.28 0.288,3.09 0.634,2.964 0.966,2.906 1.263,2.855 1.346,2.812 1.3,2.479 1.086,0.949 1.231,-0.556 1.72,-2.025 1.879,-2.505 2.04,-2.986 2.189,-3.47 2.224,-3.582 2.214,-3.709 2.224,-3.829 2.115,-3.782 1.988,-3.757 1.899,-3.686 0.733,-2.753 0.223,-1.478 0,0"
           inkscape:connector-curvature="0" />
      </g>
      <g
         transform="matrix(2.7413351,0,0,-2.7413351,386.25462,231.10702)"
         id="g3393">
        <path
           id="path3395"
           style="fill:#231f20;fill-opacity:1;fill-rule:nonzero;stroke:none"
           d="M 0,0 C 1.369,0.044 2.692,0.087 4.014,0.13 4.055,-1.174 4.097,-2.482 4.138,-3.774 3.715,-3.882 3.247,-3.968 2.804,-4.125 2.322,-4.296 1.972,-4.633 1.879,-5.167 c -0.061,-0.349 0.287,-0.63 0.607,-0.491 0.08,0.035 0.194,0.129 0.19,0.189 -0.005,0.087 -0.096,0.177 -0.166,0.25 -0.044,0.045 -0.116,0.062 -0.173,0.091 0.141,0.466 0.387,0.616 1.017,0.634 0.915,0.026 0.949,0.02 1.105,-0.849 0.152,-0.85 0.27,-1.706 0.373,-2.563 C 4.883,-8.336 4.758,-8.434 4.32,-8.473 3.596,-8.537 2.874,-8.616 2.15,-8.68 1.526,-8.735 0.902,-8.798 0.277,-8.822 c -0.436,-0.017 -0.595,0.164 -0.568,0.605 0.079,1.282 0.172,2.563 0.259,3.845 0.013,0.199 0.026,0.398 0.03,0.597 0.008,0.444 0.07,0.528 0.511,0.628 C 1,-3.035 1.46,-2.863 1.846,-2.524 2.248,-2.171 2.395,-1.72 2.314,-1.208 2.295,-1.085 2.145,-0.936 2.022,-0.891 1.944,-0.863 1.767,-0.982 1.7,-1.079 1.594,-1.237 1.694,-1.364 1.831,-1.484 1.895,-1.54 1.93,-1.696 1.901,-1.78 1.796,-2.089 1.584,-2.32 1.255,-2.385 0.935,-2.448 0.607,-2.476 0.282,-2.507 0.13,-2.521 0,-2.472 0,-2.281 0,-1.525 0,-0.769 0,0"
           inkscape:connector-curvature="0" />
      </g>
      <g
         transform="matrix(2.7413351,0,0,-2.7413351,454.03494,242.7108)"
         id="g3397">
        <path
           id="path3399"
           style="fill:#231f20;fill-opacity:1;fill-rule:nonzero;stroke:none"
           d="m 0,0 c 0.247,-1.64 0.056,-3.246 -0.059,-4.876 -0.594,0.095 -1.152,0.173 -1.706,0.278 -0.298,0.056 -0.44,0.262 -0.466,0.574 -0.109,1.298 -0.012,2.582 0.145,3.872 0.07,0.57 0.265,0.882 0.82,1.075 0.469,0.163 0.889,0.478 1.321,0.743 C 0.4,1.878 0.561,2.222 0.624,2.607 0.64,2.703 0.585,2.876 0.517,2.904 0.399,2.952 0.224,2.959 0.114,2.903 0.012,2.85 -0.086,2.694 -0.09,2.579 -0.093,2.501 0.069,2.418 0.18,2.315 0.043,1.945 -0.318,1.792 -0.66,1.655 -0.96,1.535 -1.292,1.492 -1.61,1.417 -1.8,1.372 -1.854,1.457 -1.851,1.641 c 0.01,0.855 0.009,1.711 0.013,2.567 0,0.027 0.008,0.055 0.017,0.115 l 4.15,0 C 2.307,4.093 2.288,3.81 2.25,3.53 2.042,1.952 2.028,0.372 2.144,-1.213 2.22,-2.254 2.274,-3.298 2.34,-4.34 2.351,-4.508 2.369,-4.676 2.388,-4.844 2.42,-5.129 2.263,-5.272 2.009,-5.256 1.673,-5.235 1.328,-5.197 1.013,-5.09 0.877,-5.044 0.731,-4.808 0.722,-4.651 0.669,-3.669 0.666,-2.685 0.622,-1.703 0.594,-1.069 0.531,-0.437 0.471,0.194 0.444,0.481 0.246,0.567 -0.018,0.553 -0.308,0.537 -0.565,0.348 -0.595,0.121 -0.62,-0.067 -0.489,-0.187 -0.302,-0.134 -0.209,-0.108 -0.125,-0.057 0,0"
           inkscape:connector-curvature="0" />
      </g>
      <g
         transform="matrix(2.7413351,0,0,-2.7413351,446.34139,246.52648)"
         id="g3401">
        <path
           id="path3403"
           style="fill:#231f20;fill-opacity:1;fill-rule:nonzero;stroke:none"
           d="M 0,0 C -0.564,0.91 -0.607,1.871 -0.355,2.863 -0.314,3.027 -0.29,3.201 -0.036,3.232 0.05,3.242 0.141,3.486 0.166,3.635 0.183,3.734 0.085,3.946 0.041,3.946 -0.092,3.944 -0.269,3.899 -0.345,3.804 -0.587,3.501 -0.78,3.17 -0.794,2.755 -0.811,2.229 -0.865,1.704 -0.904,1.179 c -0.072,-0.98 0.212,-1.889 0.547,-2.79 0.145,-0.391 0.266,-0.792 0.412,-1.183 0.098,-0.26 -0.037,-0.33 -0.25,-0.334 -0.339,-0.007 -0.678,0.009 -1.017,-10e-4 -0.737,-0.021 -1.473,-0.058 -2.21,-0.079 -0.385,-0.011 -0.491,0.109 -0.359,0.459 0.161,0.425 0.332,0.856 0.566,1.244 0.797,1.321 1.204,2.762 1.394,4.278 0.06,0.484 -0.561,1.19 -1.018,1.153 -0.26,-0.021 -0.367,-0.161 -0.34,-0.485 0.018,-0.218 0.032,-0.466 0.362,-0.417 0.277,0.042 0.392,-0.114 0.413,-0.349 0.106,-1.18 -0.342,-2.137 -1.223,-2.897 -0.105,-0.091 -0.311,-0.062 -0.517,-0.096 0,0.161 -0.002,0.268 0,0.374 0.015,0.847 0.051,1.694 0.041,2.54 -0.014,1.125 -0.053,2.25 -0.102,3.373 -0.012,0.29 0.084,0.374 0.354,0.339 C -2.719,6.16 -1.586,6.017 -0.453,5.872 -0.206,5.84 0.039,5.787 0.286,5.779 0.55,5.772 0.638,5.67 0.656,5.403 0.764,3.809 0.587,2.237 0.336,0.669 0.316,0.541 0.298,0.412 0.291,0.283 0.281,0.1 0.219,-0.024 0,0"
           inkscape:connector-curvature="0" />
      </g>
      <g
         transform="matrix(2.7413351,0,0,-2.7413351,374.05622,229.49375)"
         id="g3405">
        <path
           id="path3407"
           style="fill:#231f20;fill-opacity:1;fill-rule:nonzero;stroke:none"
           d="m 0,0 c 1.23,-0.415 2.497,-0.624 3.825,-0.554 l 0,-3.421 C 3.367,-4.211 2.916,-4.394 2.519,-4.658 1.98,-5.018 1.666,-5.566 1.488,-6.186 1.459,-6.287 1.435,-6.414 1.472,-6.504 c 0.029,-0.07 0.2,-0.159 0.231,-0.136 0.13,0.095 0.262,0.216 0.33,0.357 0.031,0.066 -0.08,0.201 -0.145,0.347 0.295,0.887 0.919,0.997 1.716,1.084 0.194,0.021 0.192,-0.122 0.179,-0.262 C 3.717,-5.807 3.653,-6.501 3.59,-7.195 3.535,-7.789 3.478,-8.384 3.432,-8.979 3.406,-9.308 3.218,-9.51 2.899,-9.529 1.925,-9.587 0.952,-9.646 -0.022,-9.704 c -0.09,-0.005 -0.182,-0.019 -0.268,-0.003 -0.236,0.043 -0.422,0.128 -0.342,0.434 0.192,0.747 0.389,1.493 0.56,2.245 0.189,0.827 0.363,1.659 0.521,2.493 0.065,0.347 0.205,0.591 0.534,0.763 0.593,0.311 1.03,0.79 1.221,1.442 0.067,0.228 0.057,0.493 0.016,0.73 C 2.2,-1.488 2.036,-1.382 1.914,-1.316 1.874,-1.294 1.694,-1.406 1.696,-1.452 1.7,-1.586 1.766,-1.717 1.805,-1.85 1.841,-1.969 1.924,-2.101 1.899,-2.206 1.766,-2.763 1.241,-3.083 0.683,-2.951 0.602,-2.932 0.503,-2.818 0.485,-2.733 0.304,-1.852 0.138,-0.968 -0.031,-0.084 -0.034,-0.069 -0.019,-0.05 0,0"
           inkscape:connector-curvature="0" />
      </g>
      <g
         transform="matrix(2.7413351,0,0,-2.7413351,435.98654,282.91332)"
         id="g3409">
        <path
           id="path3411"
           style="fill:#231f20;fill-opacity:1;fill-rule:nonzero;stroke:none"
           d="m 0,0 c -0.064,0.68 -0.124,1.33 -0.187,1.979 -0.095,0.976 -0.234,1.951 -0.275,2.93 -0.032,0.741 0.055,1.488 0.102,2.231 0.004,0.059 0.1,0.154 0.162,0.161 C 0.739,7.414 1.676,7.54 2.617,7.608 3.159,7.647 3.624,7.167 3.647,6.629 3.69,5.627 3.747,4.624 3.759,3.62 3.77,2.716 3.732,1.81 3.707,0.905 3.685,0.142 3.417,-0.125 2.665,-0.106 1.782,-0.084 0.899,-0.037 0,0 M 2.512,2.203 C 2.526,2.238 2.55,2.273 2.553,2.309 2.625,3.138 2.601,3.96 2.325,4.756 2.173,5.196 1.929,5.56 1.451,5.702 1.211,5.773 0.991,5.764 0.861,5.508 0.753,5.296 0.727,5.087 0.939,4.916 1.168,4.732 1.341,4.851 1.497,5.079 2.12,4.188 2.38,3.223 2.512,2.203"
           inkscape:connector-curvature="0" />
      </g>
      <g
         transform="matrix(2.7413351,0,0,-2.7413351,409.23523,266.07768)"
         id="g3413">
        <path
           id="path3415"
           style="fill:#231f20;fill-opacity:1;fill-rule:nonzero;stroke:none"
           d="M 0,0 C 0.03,0.105 0.117,0.264 0.079,0.305 -0.027,0.42 -0.186,0.485 -0.325,0.57 -0.394,0.455 -0.518,0.342 -0.523,0.224 c -0.04,-0.935 -0.071,-1.871 -0.078,-2.806 -0.004,-0.626 0.03,-1.252 0.068,-1.877 0.006,-0.101 0.127,-0.283 0.181,-0.278 0.153,0.015 0.319,0.083 0.436,0.182 0.038,0.033 -0.06,0.226 -0.096,0.346 -0.039,0.003 -0.079,0.007 -0.118,0.011 0.11,0.148 0.198,0.323 0.335,0.439 0.416,0.351 0.833,0.706 1.285,1.007 0.314,0.208 0.451,0.115 0.406,-0.253 C 1.79,-3.871 1.668,-4.737 1.519,-5.597 1.396,-6.311 1.378,-6.33 0.6,-6.428 -0.237,-6.533 -1.079,-6.607 -1.92,-6.665 -2.415,-6.7 -2.51,-6.581 -2.514,-6.084 -2.533,-4.101 -2.554,-2.119 -2.571,-0.136 -2.576,0.52 -2.572,1.175 -2.572,1.902 -2.096,1.839 -1.692,1.818 -1.305,1.726 -0.478,1.53 0.342,1.304 1.16,1.071 1.278,1.037 1.43,0.911 1.456,0.802 1.62,0.107 1.762,-0.594 1.894,-1.297 1.947,-1.58 1.716,-1.572 1.569,-1.501 1.287,-1.363 1.007,-1.202 0.766,-1.002 0.433,-0.726 0.078,-0.453 0,0"
           inkscape:connector-curvature="0" />
      </g>
      <g
         transform="matrix(2.7413351,0,0,-2.7413351,401.04383,260.74195)"
         id="g3417">
        <path
           id="path3419"
           style="fill:#231f20;fill-opacity:1;fill-rule:nonzero;stroke:none"
           d="m 0,0 c -0.057,-0.671 -0.105,-1.232 -0.154,-1.792 -0.007,-0.079 -0.021,-0.158 -0.026,-0.237 -0.023,-0.416 -0.079,-0.47 -0.486,-0.412 -0.323,0.045 -0.645,0.099 -0.965,0.162 -0.268,0.054 -0.465,0.213 -0.588,0.459 -0.093,0.184 -0.132,0.34 0.106,0.472 0.084,0.046 0.095,0.22 0.14,0.336 -0.152,0.021 -0.389,0.112 -0.44,0.05 -0.133,-0.162 -0.254,-0.39 -0.256,-0.593 -0.009,-0.759 0.498,-1.162 1.126,-1.417 0.372,-0.15 0.782,-0.203 1.167,-0.324 0.096,-0.03 0.161,-0.157 0.24,-0.239 -0.073,-0.058 -0.139,-0.151 -0.221,-0.169 -0.711,-0.159 -1.398,-0.362 -1.934,-0.899 -0.335,-0.337 -0.466,-0.745 -0.392,-1.2 0.023,-0.143 0.156,-0.31 0.285,-0.381 0.09,-0.049 0.259,0.046 0.393,0.076 -0.044,0.122 -0.054,0.311 -0.138,0.353 -0.279,0.138 -0.184,0.321 -0.093,0.495 0.152,0.289 0.406,0.469 0.724,0.522 0.362,0.061 0.728,0.095 1.094,0.128 0.226,0.021 0.348,-0.086 0.36,-0.326 0.05,-1.053 0.106,-2.106 0.16,-3.159 0.022,-0.428 -0.08,-0.551 -0.511,-0.504 -0.958,0.104 -1.914,0.229 -2.869,0.361 -0.22,0.03 -0.389,0.173 -0.422,0.409 -0.207,1.507 -0.483,3.01 -0.42,4.539 0.035,0.843 0.151,1.683 0.239,2.523 0.006,0.058 0.083,0.147 0.138,0.156 C -2.521,-0.406 -1.297,-0.21 0,0"
           inkscape:connector-curvature="0" />
      </g>
      <g
         transform="matrix(2.7413351,0,0,-2.7413351,447.5251,261.88563)"
         id="g3421">
        <path
           id="path3423"
           style="fill:#231f20;fill-opacity:1;fill-rule:nonzero;stroke:none"
           d="m 0,0 c 1.325,-0.097 2.633,-0.192 3.998,-0.292 0.016,-0.535 0.034,-1.047 0.047,-1.56 0.004,-0.17 -0.028,-0.342 -0.004,-0.508 0.046,-0.327 -0.11,-0.427 -0.404,-0.423 -0.44,0.006 -0.846,0.108 -1.17,0.424 -0.131,0.127 -0.206,0.259 0.008,0.412 0.076,0.055 0.132,0.25 0.093,0.33 C 2.517,-1.515 2.364,-1.415 2.25,-1.409 2.157,-1.403 2.007,-1.517 1.968,-1.612 1.835,-1.944 1.944,-2.255 2.143,-2.53 2.378,-2.857 2.692,-3.072 3.093,-3.153 3.239,-3.182 3.385,-3.221 3.521,-3.28 3.858,-3.427 3.962,-3.611 3.929,-3.975 3.83,-5.085 3.728,-6.195 3.629,-7.304 3.607,-7.554 3.441,-7.649 3.225,-7.66 2.27,-7.706 1.314,-7.748 0.358,-7.779 c -0.365,-0.012 -0.46,0.097 -0.453,0.459 0.022,0.956 0.049,1.913 0.064,2.87 0.003,0.195 0.067,0.296 0.264,0.321 0.65,0.083 1.593,-0.528 1.796,-1.158 C 2.081,-5.451 2.091,-5.564 1.902,-5.648 1.838,-5.676 1.761,-5.838 1.786,-5.876 1.835,-5.951 1.95,-6.019 2.04,-6.023 2.311,-6.032 2.435,-5.893 2.425,-5.618 2.402,-4.973 2.161,-4.449 1.603,-4.08 1.139,-3.773 0.685,-3.448 0.249,-3.103 0.125,-3.005 0.079,-2.807 0.005,-2.65 -0.014,-2.609 0,-2.552 0,-2.502 0,-1.696 0,-0.89 0,0"
           inkscape:connector-curvature="0" />
      </g>
      <g
         transform="matrix(2.7413351,0,0,-2.7413351,387.69656,267.80198)"
         id="g3425">
        <path
           id="path3427"
           style="fill:#231f20;fill-opacity:1;fill-rule:nonzero;stroke:none"
           d="m 0,0 c 0.279,-0.227 0.364,-0.601 0.366,-0.999 0.006,-1.319 0.2,-2.617 0.413,-3.914 0.015,-0.088 0.009,-0.179 0.023,-0.268 0.043,-0.274 -0.118,-0.371 -0.346,-0.364 -0.397,0.011 -0.794,0.049 -1.193,0.076 -0.652,1.468 -0.899,6.637 -0.319,7.162 0.179,-0.071 0.375,-0.144 0.482,0.123 0.081,0.202 0.014,0.365 -0.153,0.465 C -0.932,2.404 -1.135,2.352 -1.289,2.17 -1.594,1.809 -1.668,1.359 -1.708,0.915 -1.884,-1.038 -1.72,-2.98 -1.495,-4.92 c 0.019,-0.166 0.065,-0.329 0.106,-0.534 -0.39,-0.048 -0.769,-0.098 -1.14,0.039 -0.196,0.072 -0.217,0.256 -0.216,0.448 0.004,1.406 0.002,2.812 0.002,4.218 l 0,3.978 0,0.339 c 0.089,0.011 0.155,0.027 0.221,0.028 0.918,0.002 1.835,0.005 2.752,0.002 C 0.651,3.597 0.786,3.457 0.745,3.03 0.688,2.438 0.656,1.837 0.527,1.26 0.434,0.845 0.199,0.461 0,0"
           inkscape:connector-curvature="0" />
      </g>
      <g
         transform="matrix(2.7413351,0,0,-2.7413351,432.48037,271.23058)"
         id="g3429">
        <path
           id="path3431"
           style="fill:#231f20;fill-opacity:1;fill-rule:nonzero;stroke:none"
           d="M 0,0 C 0.424,-0.268 0.552,-0.67 0.6,-1.126 0.696,-2.025 0.81,-2.923 0.921,-3.821 0.956,-4.107 0.82,-4.234 0.552,-4.238 0.124,-4.244 -0.304,-4.24 -0.802,-4.24 c -0.122,0.58 -0.266,1.156 -0.362,1.741 -0.168,1.023 -0.255,2.054 -0.196,3.093 0.01,0.167 0.031,0.337 0.07,0.5 0.043,0.178 0.094,0.352 0.364,0.249 0.056,-0.022 0.183,0.143 0.277,0.222 C -0.745,1.658 -0.834,1.82 -0.938,1.83 -1.227,1.855 -1.445,1.666 -1.533,1.415 -1.651,1.082 -1.762,0.724 -1.765,0.376 c -0.014,-1.503 0.063,-3.003 0.351,-4.484 0.006,-0.027 10e-4,-0.057 10e-4,-0.115 -0.339,0 -0.674,-0.022 -1.005,0.008 -0.22,0.019 -0.327,0.17 -0.325,0.418 0.011,1.646 0.006,3.292 0.014,4.938 0.002,0.337 0.035,0.675 0.053,1.012 0.008,0.155 0.057,0.248 0.239,0.275 0.836,0.124 1.669,0.265 2.503,0.399 C 0.434,2.886 0.541,2.81 0.542,2.467 0.542,2.11 0.533,1.752 0.511,1.395 0.464,0.621 0.459,0.621 0,0"
           inkscape:connector-curvature="0" />
      </g>
      <g
         transform="matrix(2.7413351,0,0,-2.7413351,423.8035,273.55221)"
         id="g3433">
        <path
           id="path3435"
           style="fill:#231f20;fill-opacity:1;fill-rule:nonzero;stroke:none"
           d="m 0,0 c 0,-0.967 0.001,-1.934 -0.001,-2.9 0,-0.404 -0.089,-0.481 -0.488,-0.495 -0.905,-0.033 -1.809,-0.075 -2.713,-0.119 -0.225,-0.011 -0.322,0.027 -0.281,0.299 0.21,1.394 0.485,2.781 0.454,4.203 C -3.046,1.757 -3.145,2.51 -3.371,3.246 -3.472,3.574 -3.439,3.607 -3.104,3.533 -2.18,3.329 -1.248,3.197 -0.299,3.235 -0.019,3.246 0.049,3.148 0.043,2.869 0.021,1.913 0.034,0.956 0.034,0 0.023,0 0.011,0 0,0 m -1.743,2.373 c 0,-0.435 0.02,-0.892 -0.004,-1.347 -0.05,-0.964 -0.115,-1.928 -0.188,-2.892 -0.034,-0.44 0.107,-0.705 0.439,-0.7 0.114,10e-4 0.243,0.069 0.332,0.146 0.044,0.036 0.041,0.219 0.007,0.237 -0.101,0.052 -0.227,0.055 -0.343,0.078 -0.027,0.006 -0.053,0.015 -0.037,0.011 0,0.427 -0.005,0.835 10e-4,1.242 0.013,0.996 0.033,1.992 0.042,2.988 10e-4,0.136 -0.005,0.332 -0.088,0.395 C -1.74,2.653 -1.954,2.705 -2.151,2.769 -2.176,2.777 -2.276,2.677 -2.27,2.639 -2.228,2.38 -1.998,2.432 -1.743,2.373"
           inkscape:connector-curvature="0" />
      </g>
      <g
         transform="matrix(2.7413351,0,0,-2.7413351,381.81227,380.64001)"
         id="g3437" />
    </g>
  </g>
</svg>
