<?xml version="1.0" encoding="UTF-8" standalone="no"?>
<!-- Created with Inkscape (http://www.inkscape.org/) -->

<svg
   xmlns:dc="http://purl.org/dc/elements/1.1/"
   xmlns:cc="http://creativecommons.org/ns#"
   xmlns:rdf="http://www.w3.org/1999/02/22-rdf-syntax-ns#"
   xmlns:svg="http://www.w3.org/2000/svg"
   xmlns="http://www.w3.org/2000/svg"
   xmlns:sodipodi="http://sodipodi.sourceforge.net/DTD/sodipodi-0.dtd"
   xmlns:inkscape="http://www.inkscape.org/namespaces/inkscape"
   width="50"
   height="50"
   viewBox="0 0 13.229166 13.229167"
   version="1.1"
   id="svg8"
   sodipodi:docname="deezer.svg"
   inkscape:version="0.92.3 (2405546, 2018-03-11)">
  <defs
     id="defs2" />
  <sodipodi:namedview
     id="base"
     pagecolor="#ffffff"
     bordercolor="#666666"
     borderopacity="1.0"
     inkscape:pageopacity="0.0"
     inkscape:pageshadow="2"
     inkscape:zoom="15.839192"
     inkscape:cx="6.865261"
     inkscape:cy="27.687483"
     inkscape:document-units="mm"
     inkscape:current-layer="layer1"
     showgrid="false"
     fit-margin-top="5"
     fit-margin-left="0"
     fit-margin-right="0"
     fit-margin-bottom="5"
     inkscape:window-width="2477"
     inkscape:window-height="1417"
     inkscape:window-x="75"
     inkscape:window-y="-8"
     inkscape:window-maximized="1"
     units="px" />
  <metadata
     id="metadata5">
    <rdf:RDF>
      <cc:Work
         rdf:about="">
        <dc:format>image/svg+xml</dc:format>
        <dc:type
           rdf:resource="http://purl.org/dc/dcmitype/StillImage" />
        <dc:title />
      </cc:Work>
    </rdf:RDF>
  </metadata>
  <g
     inkscape:label="Ebene 1"
     inkscape:groupmode="layer"
     id="layer1"
     transform="translate(-61.50432,-243.48222)">
    <path
       id="path8463"
       style="fill:#000000;stroke-width:0.03315581"
       d="m 72.313113,246.76464 v -0.38129 h 1.210186 1.210187 v 0.38129 0.38129 h -1.210187 -1.210186 z m 0,0.96152 v -0.38129 h 1.210186 1.210187 v 0.38129 0.38129 h -1.210187 -1.210186 z m -5.404397,0 v -0.38129 h 1.210187 1.210187 v 0.38129 0.38129 h -1.210187 -1.210187 z m 5.404397,0.92836 v -0.38129 h 1.210186 1.210187 v 0.38129 0.38129 h -1.210187 -1.210186 z m -5.404397,0 v -0.38129 h 1.210187 1.210187 v 0.38129 0.38129 h -1.210187 -1.210187 z m 5.404397,0.96152 v -0.38129 h 1.210186 1.210187 v 0.38129 0.38129 h -1.210187 -1.210186 z m -2.685621,0 v -0.38129 h 1.210187 1.210187 v 0.38129 0.38129 h -1.210187 -1.210187 z m -2.718776,0 v -0.38129 h 1.210187 1.210187 v 0.38129 0.38129 h -1.210187 -1.210187 z m -5.404396,0 v -0.38129 h 1.210187 1.210186 v 0.38129 0.38129 H 62.714507 61.50432 Z m 10.808793,0.96152 v -0.38129 h 1.210186 1.210187 v 0.38129 0.38129 h -1.210187 -1.210186 z m -2.685621,0 v -0.38129 h 1.210187 1.210187 v 0.38129 0.38129 h -1.210187 -1.210187 z m -2.718776,0 v -0.38129 h 1.210187 1.210187 v 0.38129 0.38129 h -1.210187 -1.210187 z m -5.404396,0 v -0.38129 h 1.210187 1.210186 v 0.38129 0.38129 H 62.714507 61.50432 Z m 10.808793,0.92836 v -0.38129 h 1.210186 1.210187 v 0.38129 0.38129 h -1.210187 -1.210186 z m -2.685621,0 v -0.38129 h 1.210187 1.210187 v 0.38129 0.38129 h -1.210187 -1.210187 z m -2.718776,0 v -0.38129 h 1.210187 1.210187 v 0.38129 0.38129 h -1.210187 -1.210187 z m -2.68562,0 v -0.38129 h 1.210186 1.210187 v 0.38129 0.38129 h -1.210187 -1.210186 z m -2.718776,0 v -0.38129 h 1.210187 1.210186 v 0.38129 0.38129 H 62.714507 61.50432 Z m 10.808793,0.96152 v -0.38129 h 1.210186 1.210187 v 0.38129 0.38129 h -1.210187 -1.210186 z m -2.685621,0 v -0.38129 h 1.210187 1.210187 v 0.38129 0.38129 h -1.210187 -1.210187 z m -2.718776,0 v -0.38129 h 1.210187 1.210187 v 0.38129 0.38129 h -1.210187 -1.210187 z m -2.68562,0 v -0.38129 h 1.210186 1.210187 v 0.38129 0.38129 h -1.210187 -1.210186 z m -2.718776,0 v -0.38129 h 1.210187 1.210186 v 0.38129 0.38129 H 62.714507 61.50432 Z m 10.808793,0.96152 v -0.38129 h 1.210186 1.210187 v 0.38129 0.38129 h -1.210187 -1.210186 z m -2.685621,0 v -0.38129 h 1.210187 1.210187 v 0.38129 0.38129 h -1.210187 -1.210187 z m -2.718776,0 v -0.38129 h 1.210187 1.210187 v 0.38129 0.38129 h -1.210187 -1.210187 z m -2.68562,0 v -0.38129 h 1.210186 1.210187 v 0.38129 0.38129 h -1.210187 -1.210186 z m -2.718776,0 v -0.38129 h 1.210187 1.210186 v 0.38129 0.38129 H 62.714507 61.50432 Z" />
  </g>
</svg>
