<?xml version="1.0" encoding="UTF-8" standalone="no"?>
<!-- Created with Inkscape (http://www.inkscape.org/) -->

<svg
   xmlns:dc="http://purl.org/dc/elements/1.1/"
   xmlns:cc="http://creativecommons.org/ns#"
   xmlns:rdf="http://www.w3.org/1999/02/22-rdf-syntax-ns#"
   xmlns:svg="http://www.w3.org/2000/svg"
   xmlns="http://www.w3.org/2000/svg"
   xmlns:sodipodi="http://sodipodi.sourceforge.net/DTD/sodipodi-0.dtd"
   xmlns:inkscape="http://www.inkscape.org/namespaces/inkscape"
   width="529.16669mm"
   height="529.16669mm"
   viewBox="0 0 529.16669 529.16669"
   version="1.1"
   id="svg4766"
   inkscape:version="0.92.3 (2405546, 2018-03-11)"
   sodipodi:docname="logo_ponk.svg">
  <defs
     id="defs4760" />
  <sodipodi:namedview
     id="base"
     pagecolor="#ffffff"
     bordercolor="#666666"
     borderopacity="1.0"
     inkscape:pageopacity="0.0"
     inkscape:pageshadow="2"
     inkscape:zoom="0.35"
     inkscape:cx="2318.5715"
     inkscape:cy="1191.4286"
     inkscape:document-units="mm"
     inkscape:current-layer="layer1"
     showgrid="false"
     fit-margin-top="0"
     fit-margin-left="0"
     fit-margin-right="0"
     fit-margin-bottom="0"
     inkscape:window-width="2477"
     inkscape:window-height="1417"
     inkscape:window-x="75"
     inkscape:window-y="-8"
     inkscape:window-maximized="1" />
  <metadata
     id="metadata4763">
    <rdf:RDF>
      <cc:Work
         rdf:about="">
        <dc:format>image/svg+xml</dc:format>
        <dc:type
           rdf:resource="http://purl.org/dc/dcmitype/StillImage" />
        <dc:title></dc:title>
      </cc:Work>
    </rdf:RDF>
  </metadata>
  <g
     inkscape:label="Ebene 1"
     inkscape:groupmode="layer"
     id="layer1"
     transform="translate(688.67263,65.1012)">
    <path
       style="fill:#000000;stroke-width:0.26458335"
       d="M -688.67263,199.48214 V -65.1012 h 264.58335 264.58334 v 264.58334 264.58335 h -264.58334 -264.58335 z m 236.48503,74.87709 c 0.11618,0 0.32434,0.10462 0.46259,0.23249 0.3704,0.34261 27.60951,15.90709 27.83871,15.90709 0.10735,0 6.50521,-3.62651 14.21744,-8.05894 l 14.02228,-8.05894 0.1323,78.55291 0.13229,78.55292 61.11875,-35.32275 c 33.61531,-19.42751 74.00727,-42.769 89.7599,-51.86998 l 28.64115,-16.54725 -0.003,-119.89325 -0.003,-119.893265 -8.52961,-4.938715 c -4.69171,-2.716295 -27.40143,-15.856343 -50.46648,-29.200106 -23.06505,-13.343764 -43.84146,-25.368611 -46.16979,-26.721881 -29.01053,-16.861455 -102.66022,-59.392428 -102.84818,-59.392428 -0.13589,0 -11.69782,6.624566 -25.69319,14.721256 -13.99538,8.0966919 -41.34098,23.917345 -60.76801,35.157006 -52.80651,30.551619 -81.89425,47.374942 -102.85006,59.484845 l -18.84485,10.890023 -0.007,119.873135 -0.007,119.87316 12.63386,7.30023 c 6.94862,4.01513 24.42104,14.11332 38.8276,22.44045 21.87909,12.64631 88.11894,50.92607 119.72397,69.18801 l 8.33437,4.81576 0.0666,-78.5459 c 0.0366,-43.20022 0.16164,-78.54588 0.27782,-78.54588 z m -38.84127,91.69239 c -0.50932,-0.33845 -23.99456,-13.92502 -52.18942,-30.19232 l -51.26337,-29.57695 0.0665,-98.41384 0.0665,-98.41386 32.27917,-18.688759 c 17.75353,-10.278817 40.01822,-23.165992 49.47708,-28.638165 9.45885,-5.472174 33.03323,-19.114469 52.3875,-30.316217 19.35427,-11.201744 35.45566,-20.507384 35.78086,-20.679196 0.6003,-0.317164 8.69917,4.328089 115.42852,66.206222 6.03911,3.501279 20.98146,12.16024 33.20521,19.242136 l 22.225,12.876179 0.0665,98.40253 0.0665,98.40252 -1.38944,0.80145 c -0.76417,0.44079 -9.90237,5.72344 -20.30711,11.73919 -10.40474,6.01578 -33.02662,19.08553 -50.27084,29.04389 -17.24422,9.95837 -31.62101,18.27679 -31.94844,18.48536 l -0.59531,0.37923 v -57.12596 -57.12595 l 1.78594,-1.04838 c 0.98226,-0.57661 18.48445,-10.67314 38.89375,-22.43675 l 37.10781,-21.38839 V 164.6969 121.8082 l -21.10051,-12.28388 c -22.71993,-13.226639 -56.8738,-33.116039 -79.79762,-46.46988 -7.8359,-4.564661 -14.29486,-8.299385 -14.35325,-8.299385 -0.0584,0 -0.1361,39.668986 -0.17269,88.153305 l -0.0666,88.15329 -14.12327,8.16118 -14.12327,8.16118 -14.18715,-8.18637 -14.18714,-8.18634 -0.13229,-88.12601 -0.13229,-88.125999 -19.44683,11.327588 c -10.69578,6.230174 -26.70969,15.560615 -35.58646,20.734312 -8.87677,5.173698 -25.90271,15.090789 -37.83542,22.037989 -11.93271,6.94719 -21.84466,12.75132 -22.02656,12.89805 -0.26212,0.21144 -0.33073,9.12436 -0.33073,42.96128 V 207.413 l 0.99219,0.62431 c 0.5457,0.34338 17.66093,10.23628 38.03385,21.98423 20.37292,11.74795 37.48816,21.65004 38.03386,22.00463 l 0.99219,0.64474 v 57.01395 c 0,31.35768 -0.0893,57.00679 -0.19844,56.99806 -0.10914,-0.009 -0.61516,-0.29284 -1.12448,-0.6313 z m -19.77052,-168.77049 -20.69656,-11.95419 0.003,-20.63751 0.003,-20.6375 20.44677,-12.09455 c 11.24573,-6.65201 20.647,-12.17139 20.89171,-12.26529 0.41576,-0.15954 0.44492,2.77036 0.44492,44.70445 0,24.68136 -0.0893,44.86699 -0.19844,44.85698 -0.10914,-0.0101 -9.51189,-5.39758 -20.895,-11.97239 z m 152.85594,-32.84948 c 0,-24.66952 0.0464,-44.85368 0.10319,-44.85368 0.0568,0 5.26576,3.05326 11.57552,6.78502 6.30978,3.73176 15.63952,9.24916 20.73275,12.26089 l 9.26042,5.47588 v 20.58751 20.58752 l -20.10834,11.6139 c -11.05958,6.38766 -20.43575,11.79003 -20.83593,12.00527 l -0.72761,0.39137 z"
       id="path9254"
       inkscape:connector-curvature="0" />
  </g>
</svg>
