<?xml version="1.0" encoding="UTF-8" standalone="no"?>
<svg
   xmlns:dc="http://purl.org/dc/elements/1.1/"
   xmlns:cc="http://creativecommons.org/ns#"
   xmlns:rdf="http://www.w3.org/1999/02/22-rdf-syntax-ns#"
   xmlns:svg="http://www.w3.org/2000/svg"
   xmlns="http://www.w3.org/2000/svg"
   xmlns:sodipodi="http://sodipodi.sourceforge.net/DTD/sodipodi-0.dtd"
   xmlns:inkscape="http://www.inkscape.org/namespaces/inkscape"
   sodipodi:docname="basis.svg"
   inkscape:version="1.0 (4035a4fb49, 2020-05-01)"
   id="svg896"
   version="1.1"
   viewBox="0 0 110.63564 110.63564"
   height="110.63564mm"
   width="110.63564mm">
  <defs
     id="defs890" />
  <sodipodi:namedview
     inkscape:window-maximized="1"
     inkscape:window-y="-8"
     inkscape:window-x="60"
     inkscape:window-height="1417"
     inkscape:window-width="2492"
     inkscape:snap-center="true"
     fit-margin-bottom="0"
     fit-margin-right="0"
     fit-margin-left="0"
     fit-margin-top="0"
     inkscape:snap-page="true"
     inkscape:snap-midpoints="true"
     inkscape:object-paths="true"
     inkscape:snap-bbox="false"
     inkscape:snap-intersection-paths="true"
     showgrid="false"
     inkscape:document-rotation="0"
     inkscape:current-layer="layer1"
     inkscape:document-units="mm"
     inkscape:cy="176.26119"
     inkscape:cx="291.73043"
     inkscape:zoom="1.979899"
     inkscape:pageshadow="2"
     inkscape:pageopacity="0.0"
     borderopacity="1.0"
     bordercolor="#666666"
     pagecolor="#ffffff"
     id="base" />
  <metadata
     id="metadata893">
    <rdf:RDF>
      <cc:Work
         rdf:about="">
        <dc:format>image/svg+xml</dc:format>
        <dc:type
           rdf:resource="http://purl.org/dc/dcmitype/StillImage" />
        <dc:title></dc:title>
      </cc:Work>
    </rdf:RDF>
  </metadata>
  <g
     transform="translate(-119.81151,-2.1337855)"
     id="layer1"
     inkscape:groupmode="layer"
     inkscape:label="Ebene 1">
    <path
       id="path873"
       style="color:#000000;font-style:normal;font-variant:normal;font-weight:normal;font-stretch:normal;font-size:medium;line-height:normal;font-family:sans-serif;font-variant-ligatures:normal;font-variant-position:normal;font-variant-caps:normal;font-variant-numeric:normal;font-variant-alternates:normal;font-feature-settings:normal;text-indent:0;text-align:start;text-decoration:none;text-decoration-line:none;text-decoration-style:solid;text-decoration-color:#000000;letter-spacing:normal;word-spacing:normal;text-transform:none;writing-mode:lr-tb;direction:ltr;text-orientation:mixed;dominant-baseline:auto;baseline-shift:baseline;text-anchor:start;white-space:normal;shape-padding:0;clip-rule:nonzero;display:inline;overflow:visible;visibility:visible;isolation:auto;mix-blend-mode:normal;color-interpolation:sRGB;color-interpolation-filters:linearRGB;solid-color:#000000;solid-opacity:1;vector-effect:none;fill:#eeeeee;fill-opacity:0.498039;fill-rule:nonzero;stroke:none;stroke-width:4;stroke-linecap:butt;stroke-linejoin:miter;stroke-miterlimit:4;stroke-dasharray:none;stroke-dashoffset:0;stroke-opacity:1;color-rendering:auto;image-rendering:auto;shape-rendering:auto;text-rendering:auto;enable-background:accumulate"
       d="m 175.12907,34.177833 c 12.8775,0 23.27352,10.396014 23.27352,23.273514 0,12.877499 -10.39602,23.273515 -23.27352,23.273515 -12.8775,0 -23.27351,-10.396016 -23.27351,-23.273515 0,-12.8775 10.39601,-23.273514 23.27351,-23.273514 z m 0,-3.999756 c -15.03926,0 -27.27327,12.233971 -27.27327,27.27327 0,15.0392 12.23401,27.273787 27.27327,27.273787 15.03926,0 27.27379,-12.234587 27.27379,-27.273787 0,-15.039299 -12.23453,-27.27327 -27.27379,-27.27327 z" />
    <path
       id="path859"
       style="color:#000000;font-style:normal;font-variant:normal;font-weight:normal;font-stretch:normal;font-size:medium;line-height:normal;font-family:sans-serif;font-variant-ligatures:normal;font-variant-position:normal;font-variant-caps:normal;font-variant-numeric:normal;font-variant-alternates:normal;font-feature-settings:normal;text-indent:0;text-align:start;text-decoration:none;text-decoration-line:none;text-decoration-style:solid;text-decoration-color:#000000;letter-spacing:normal;word-spacing:normal;text-transform:none;writing-mode:lr-tb;direction:ltr;text-orientation:mixed;dominant-baseline:auto;baseline-shift:baseline;text-anchor:start;white-space:normal;shape-padding:0;clip-rule:nonzero;display:inline;overflow:visible;visibility:visible;isolation:auto;mix-blend-mode:normal;color-interpolation:sRGB;color-interpolation-filters:linearRGB;solid-color:#000000;solid-opacity:1;vector-effect:none;fill:#eeeeee;fill-opacity:1;fill-rule:nonzero;stroke:none;stroke-width:4;stroke-linecap:butt;stroke-linejoin:miter;stroke-miterlimit:4;stroke-dasharray:none;stroke-dashoffset:0;stroke-opacity:1;color-rendering:auto;image-rendering:auto;shape-rendering:auto;text-rendering:auto;enable-background:accumulate"
       d="m 175.1301,26.263053 c 17.27603,0 31.18931,13.913264 31.18931,31.18931 0,17.275943 -13.91328,31.189311 -31.18931,31.189311 -17.27604,0 -31.18983,-13.913368 -31.18983,-31.189311 0,-17.276046 13.91379,-31.18931 31.18983,-31.18931 z m 0,-8.000011 c -20.24517,0 -36.96806,15.453649 -38.98522,35.177696 h -8.33334 V 24.096794 h -8.00003 v 66.683785 h 8.00003 V 61.440767 h 8.33076 c 2.00637,19.735098 18.73467,35.200952 38.9878,35.200952 21.59921,0 39.18934,-17.590177 39.18934,-39.18934 0,-21.599255 -17.59013,-39.189337 -39.18934,-39.189337 z" />
    <path
       inkscape:transform-center-y="-8.0638552"
       inkscape:transform-center-x="0.00077501559"
       d="m 206.31788,57.452375 c 0,17.27603 -13.91326,31.18931 -31.18931,31.18931 -17.27594,0 -31.18931,-13.91328 -31.18931,-31.18931 0,-17.27604 13.91337,-31.18983 31.18931,-31.18983 17.27605,0 31.18931,13.91379 31.18931,31.18983 z m 8.00001,0 c 0,-20.24517 -15.45365,-36.96806 -35.17769,-38.98522 v -8.33334 h 29.34394 V 2.1337855 h -66.68378 v 8.0000295 h 29.33981 v 8.33076 c -19.7351,2.00637 -35.20095,18.73467 -35.20095,38.9878 0,21.59921 17.59017,39.18934 39.18934,39.18934 21.59925,0 39.18933,-17.59013 39.18933,-39.18934 z"
       style="color:#000000;font-style:normal;font-variant:normal;font-weight:normal;font-stretch:normal;font-size:medium;line-height:normal;font-family:sans-serif;font-variant-ligatures:normal;font-variant-position:normal;font-variant-caps:normal;font-variant-numeric:normal;font-variant-alternates:normal;font-feature-settings:normal;text-indent:0;text-align:start;text-decoration:none;text-decoration-line:none;text-decoration-style:solid;text-decoration-color:#000000;letter-spacing:normal;word-spacing:normal;text-transform:none;writing-mode:lr-tb;direction:ltr;text-orientation:mixed;dominant-baseline:auto;baseline-shift:baseline;text-anchor:start;white-space:normal;shape-padding:0;clip-rule:nonzero;display:inline;overflow:visible;visibility:visible;isolation:auto;mix-blend-mode:normal;color-interpolation:sRGB;color-interpolation-filters:linearRGB;solid-color:#000000;solid-opacity:1;vector-effect:none;fill:#eeeeee;fill-opacity:1;fill-rule:nonzero;stroke:none;stroke-width:4;stroke-linecap:butt;stroke-linejoin:miter;stroke-miterlimit:4;stroke-dasharray:none;stroke-dashoffset:0;stroke-opacity:1;color-rendering:auto;image-rendering:auto;shape-rendering:auto;text-rendering:auto;enable-background:accumulate"
       id="path3395" />
    <path
       id="path3397"
       style="color:#000000;font-style:normal;font-variant:normal;font-weight:normal;font-stretch:normal;font-size:medium;line-height:normal;font-family:sans-serif;font-variant-ligatures:normal;font-variant-position:normal;font-variant-caps:normal;font-variant-numeric:normal;font-variant-alternates:normal;font-feature-settings:normal;text-indent:0;text-align:start;text-decoration:none;text-decoration-line:none;text-decoration-style:solid;text-decoration-color:#000000;letter-spacing:normal;word-spacing:normal;text-transform:none;writing-mode:lr-tb;direction:ltr;text-orientation:mixed;dominant-baseline:auto;baseline-shift:baseline;text-anchor:start;white-space:normal;shape-padding:0;clip-rule:nonzero;display:inline;overflow:visible;visibility:visible;isolation:auto;mix-blend-mode:normal;color-interpolation:sRGB;color-interpolation-filters:linearRGB;solid-color:#000000;solid-opacity:1;vector-effect:none;fill:#eeeeee;fill-opacity:1;fill-rule:nonzero;stroke:none;stroke-width:4;stroke-linecap:butt;stroke-linejoin:miter;stroke-miterlimit:4;stroke-dasharray:none;stroke-dashoffset:0;stroke-opacity:1;color-rendering:auto;image-rendering:auto;shape-rendering:auto;text-rendering:auto;enable-background:accumulate"
       d="m 175.12856,88.640155 c -17.27603,0 -31.18931,-13.91326 -31.18931,-31.18931 0,-17.27594 13.91328,-31.18931 31.18931,-31.18931 17.27604,0 31.18983,13.91337 31.18983,31.18931 0,17.27605 -13.91379,31.18931 -31.18983,31.18931 z m 0,8.00001 c 20.24517,0 36.96806,-15.45365 38.98522,-35.17769 h 8.33334 v 29.34394 h 8.00003 v -66.68378 h -8.00003 v 29.33981 h -8.33076 c -2.00637,-19.7351 -18.73467,-35.20095 -38.9878,-35.20095 -21.59921,0 -39.18934,17.59017 -39.18934,39.18934 0,21.59925 17.59013,39.18933 39.18934,39.18933 z"
       inkscape:transform-center-x="-8.063855"
       inkscape:transform-center-y="-0.00077546559" />
    <path
       inkscape:transform-center-y="8.063857"
       inkscape:transform-center-x="-0.00077501559"
       d="m 143.94078,57.450835 c 0,-17.27603 13.91326,-31.18931 31.18931,-31.18931 17.27594,0 31.18931,13.91328 31.18931,31.18931 0,17.27604 -13.91337,31.18983 -31.18931,31.18983 -17.27605,0 -31.18931,-13.91379 -31.18931,-31.18983 z m -8.00001,0 c 0,20.24517 15.45365,36.96806 35.17769,38.98522 v 8.333345 h -29.34394 v 8.00003 h 66.68378 v -8.00003 h -29.33981 v -8.330765 c 19.7351,-2.00637 35.20095,-18.73467 35.20095,-38.9878 0,-21.59921 -17.59017,-39.18934 -39.18934,-39.18934 -21.59925,0 -39.18933,17.59013 -39.18933,39.18934 z"
       style="color:#000000;font-style:normal;font-variant:normal;font-weight:normal;font-stretch:normal;font-size:medium;line-height:normal;font-family:sans-serif;font-variant-ligatures:normal;font-variant-position:normal;font-variant-caps:normal;font-variant-numeric:normal;font-variant-alternates:normal;font-feature-settings:normal;text-indent:0;text-align:start;text-decoration:none;text-decoration-line:none;text-decoration-style:solid;text-decoration-color:#000000;letter-spacing:normal;word-spacing:normal;text-transform:none;writing-mode:lr-tb;direction:ltr;text-orientation:mixed;dominant-baseline:auto;baseline-shift:baseline;text-anchor:start;white-space:normal;shape-padding:0;clip-rule:nonzero;display:inline;overflow:visible;visibility:visible;isolation:auto;mix-blend-mode:normal;color-interpolation:sRGB;color-interpolation-filters:linearRGB;solid-color:#000000;solid-opacity:1;vector-effect:none;fill:#eeeeee;fill-opacity:1;fill-rule:nonzero;stroke:none;stroke-width:4;stroke-linecap:butt;stroke-linejoin:miter;stroke-miterlimit:4;stroke-dasharray:none;stroke-dashoffset:0;stroke-opacity:1;color-rendering:auto;image-rendering:auto;shape-rendering:auto;text-rendering:auto;enable-background:accumulate"
       id="path3399" />
  </g>
</svg>
