<?xml version="1.0" encoding="UTF-8"?>
<svg width="626.14mm" height="156.76mm" version="1.1" viewBox="0 0 626.14 156.76" xmlns="http://www.w3.org/2000/svg">
 <g transform="translate(232.64 -169.48)">
  <g transform="translate(112.74 224.18)" fill="#eee" shape-rendering="auto">
   <path transform="matrix(.26458 0 0 .26458 -102.47 -15.505)" d="m1151.3 60.154c48.671 0 87.963 39.292 87.963 87.963 0 48.671-39.292 87.963-87.963 87.963-48.671 0-87.963-39.292-87.963-87.963 0-48.671 39.292-87.963 87.963-87.963zm0-15.117c-56.841 0-103.08 46.239-103.08 103.08 0 56.841 46.239 103.08 103.08 103.08s103.08-46.241 103.08-103.08c0-56.841-46.241-103.08-103.08-103.08z" color="#000000" color-rendering="auto" dominant-baseline="auto" fill-opacity=".49804" image-rendering="auto" solid-color="#000000" style="font-feature-settings:normal;font-variant-alternates:normal;font-variant-caps:normal;font-variant-ligatures:normal;font-variant-numeric:normal;font-variant-position:normal;isolation:auto;mix-blend-mode:normal;shape-padding:0;text-decoration-color:#000000;text-decoration-line:none;text-decoration-style:solid;text-indent:0;text-orientation:mixed;text-transform:none;white-space:normal"/>
   <path d="m202.38-15.504c-17.851 0-32.968 11.993-37.674 28.369l-0.73226 2.5528h8.2832l0.44701-1.3829c4.0524-12.51 15.772-21.545 29.676-21.545 15.915 0 28.947 11.817 30.906 27.184h-33.426v8h33.428c-1.9543 15.372-14.989 27.195-30.908 27.195-13.879 0-25.581-8.9992-29.654-21.474l-0.45114-1.3829-8.2853 0.01344 0.73845 2.5528c4.7297 16.339 19.828 28.297 37.652 28.297 20.253 0 36.981-15.466 38.987-35.201h-8.0775c0.39701-2.6345 0.42413-5.2988-3e-3 -8h8.0776c-2.0168-19.724-18.739-35.178-38.984-35.178z" color="#000000" color-rendering="auto" dominant-baseline="auto" image-rendering="auto" solid-color="#000000" style="font-feature-settings:normal;font-variant-alternates:normal;font-variant-caps:normal;font-variant-ligatures:normal;font-variant-numeric:normal;font-variant-position:normal;isolation:auto;mix-blend-mode:normal;shape-padding:0;text-decoration-color:#000000;text-decoration-line:none;text-decoration-style:solid;text-indent:0;text-orientation:mixed;text-transform:none;white-space:normal"/>
  </g>
  <g transform="rotate(150 -237.45 -459.89)" fill="#e0c499"></g>
  <g transform="translate(-90.977 224.17)" fill="#eee" shape-rendering="auto">
   <path transform="matrix(.26458 0 0 .26458 -102.47 -15.505)" d="m147.95 46.021v0.01563c-43.129 0-80.154 26.619-95.508 64.293l16.512-0.0371c14.31-29.145 44.266-49.152 78.996-49.152 45.76 0 83.225 34.735 87.543 79.34h-87.824v15.117h88.006c-3.3117 45.624-41.238 81.469-87.725 81.469-34.296 0-63.935-19.511-78.451-48.064l-16.611-0.0371c15.616 37.103 52.346 63.219 95.062 63.219 56.841 0 103.08-46.241 103.08-103.08 0-56.841-46.239-103.08-103.08-103.08z" color="#000000" color-rendering="auto" dominant-baseline="auto" fill-opacity=".49804" image-rendering="auto" solid-color="#000000" style="font-feature-settings:normal;font-variant-alternates:normal;font-variant-caps:normal;font-variant-ligatures:normal;font-variant-numeric:normal;font-variant-position:normal;isolation:auto;mix-blend-mode:normal;shape-padding:0;text-decoration-color:#000000;text-decoration-line:none;text-decoration-style:solid;text-indent:0;text-orientation:mixed;text-transform:none;white-space:normal"/>
   <path d="m-63.285-15.5c-21.599 0-39.19 17.591-39.19 39.19 0 21.599 17.591 39.189 39.19 39.189 17.824 0 32.921-11.958 37.65-28.297l0.73794-2.5528-8.2853-0.01344-0.45114 1.3829c-4.0728 12.475-15.773 21.476-29.652 21.476-17.276 0-31.19-13.913-31.19-31.189 0-17.276 13.914-31.189 31.19-31.189 13.904 0 25.621 9.0328 29.674 21.543l0.44907 1.3829h8.2832l-0.73432-2.5507c-4.7055-16.377-19.821-28.371-37.672-28.371z" color="#000000" color-rendering="auto" dominant-baseline="auto" image-rendering="auto" solid-color="#000000" style="font-feature-settings:normal;font-variant-alternates:normal;font-variant-caps:normal;font-variant-ligatures:normal;font-variant-numeric:normal;font-variant-position:normal;isolation:auto;mix-blend-mode:normal;shape-padding:0;text-decoration-color:#000000;text-decoration-line:none;text-decoration-style:solid;text-indent:0;text-orientation:mixed;text-transform:none;white-space:normal"/>
  </g>
  <g transform="rotate(180 112.79 63.183)" fill="#eee" shape-rendering="auto">
   <path d="m66.928-144.77c12.877 0 23.274 10.396 23.274 23.274s-10.396 23.274-23.274 23.274c-12.878 0-23.274-10.396-23.274-23.274s10.396-23.274 23.274-23.274zm0-3.9998c-15.039 0-27.273 12.234-27.273 27.273 0 15.039 12.234 27.274 27.273 27.274 15.039 0 27.274-12.235 27.274-27.274 0-15.039-12.235-27.273-27.274-27.273z" color="#000000" color-rendering="auto" dominant-baseline="auto" fill-opacity=".49804" image-rendering="auto" solid-color="#000000" style="font-feature-settings:normal;font-variant-alternates:normal;font-variant-caps:normal;font-variant-ligatures:normal;font-variant-numeric:normal;font-variant-position:normal;isolation:auto;mix-blend-mode:normal;shape-padding:0;text-decoration-color:#000000;text-decoration-line:none;text-decoration-style:solid;text-indent:0;text-orientation:mixed;text-transform:none;white-space:normal"/>
   <path d="m66.929-152.68c17.276 0 31.189 13.913 31.189 31.189 0 17.276-13.913 31.189-31.189 31.189-17.276 0-31.19-13.913-31.19-31.189 0-17.276 13.914-31.189 31.19-31.189zm0-8c-20.245 0-36.968 15.454-38.985 35.178h-8.3333v-29.344h-8v66.684h8v-29.34h8.3308c2.0064 19.735 18.735 35.201 38.988 35.201 21.599 0 39.189-17.59 39.189-39.189 0-21.599-17.59-39.189-39.189-39.189z" color="#000000" color-rendering="auto" dominant-baseline="auto" image-rendering="auto" solid-color="#000000" style="font-feature-settings:normal;font-variant-alternates:normal;font-variant-caps:normal;font-variant-ligatures:normal;font-variant-numeric:normal;font-variant-position:normal;isolation:auto;mix-blend-mode:normal;shape-padding:0;text-decoration-color:#000000;text-decoration-line:none;text-decoration-style:solid;text-indent:0;text-orientation:mixed;text-transform:none;white-space:normal"/>
  </g>
  <g transform="translate(-15.9 224.18)" fill="#eee" shape-rendering="auto">
   <path transform="matrix(.26458 0 0 .26458 -102.47 -15.505)" d="m455.71 60.154c48.671 0 87.963 39.292 87.963 87.963 0 48.671-39.292 87.963-87.963 87.963-48.671 0-87.963-39.292-87.963-87.963 0-48.671 39.292-87.963 87.963-87.963zm0-15.117c-56.841 0-103.08 46.239-103.08 103.08 0 56.841 46.239 103.08 103.08 103.08 56.841 0 103.08-46.241 103.08-103.08 0-56.841-46.239-103.08-103.08-103.08z" color="#000000" color-rendering="auto" dominant-baseline="auto" fill-opacity=".49804" image-rendering="auto" solid-color="#000000" style="font-feature-settings:normal;font-variant-alternates:normal;font-variant-caps:normal;font-variant-ligatures:normal;font-variant-numeric:normal;font-variant-position:normal;isolation:auto;mix-blend-mode:normal;shape-padding:0;text-decoration-color:#000000;text-decoration-line:none;text-decoration-style:solid;text-indent:0;text-orientation:mixed;text-transform:none;white-space:normal"/>
   <path d="m18.098-7.5038c17.276 0 31.189 13.913 31.189 31.189 0 17.276-13.913 31.189-31.189 31.189-17.276 0-31.189-13.913-31.189-31.189 0-17.276 13.913-31.189 31.189-31.189zm0-8c-21.599 0-39.189 17.59-39.189 39.189 0 21.599 17.59 39.189 39.189 39.189 21.599 0 39.189-17.59 39.189-39.189 0-21.599-17.59-39.189-39.189-39.189z" color="#000000" color-rendering="auto" dominant-baseline="auto" image-rendering="auto" solid-color="#000000" style="font-feature-settings:normal;font-variant-alternates:normal;font-variant-caps:normal;font-variant-ligatures:normal;font-variant-numeric:normal;font-variant-position:normal;isolation:auto;mix-blend-mode:normal;shape-padding:0;text-decoration-color:#000000;text-decoration-line:none;text-decoration-style:solid;text-indent:0;text-orientation:mixed;text-transform:none;white-space:normal"/>
  </g>
 </g>
</svg>
